<?xml version="1.0" standalone="no"?>
<!DOCTYPE svg PUBLIC "-//W3C//DTD SVG 1.1//EN" "http://www.w3.org/Graphics/SVG/1.1/DTD/svg11.dtd" >
<svg>
<metadata>
Created by FontForge 20090914 at Wed Jan 18 00:33:04 2012
 By www-data
Copyright \(c\) 2004 SUDTIPOS. Disenada por Alfredo Graziani y Alejandro Paul. Todos los decheros reservados.
</metadata>
<defs>
<font id="MilkScript" horiz-adv-x="903" >
  <font-face 
    font-family="Milk Script"
    font-weight="400"
    font-stretch="normal"
    units-per-em="2048"
    panose-1="2 0 5 6 6 0 0 2 0 4"
    ascent="1638"
    descent="-410"
    x-height="968.999"
    cap-height="1794"
    bbox="-446 -597.999 2927 2195"
    underline-thickness="102"
    underline-position="-102"
    unicode-range="U+0020-U+FB04"
  />
<missing-glyph horiz-adv-x="411" 
 />
    <glyph glyph-name=".notdef" horiz-adv-x="411" 
 />
    <glyph glyph-name="space" unicode=" " horiz-adv-x="411" 
 />
    <glyph glyph-name="exclam" unicode="!" horiz-adv-x="468" 
d="M111 94c0 39.333 7.83105 71.334 23.498 96.001s47.167 37 94.5 37c28.667 0 51.667 -9.83301 69 -29.5s28 -52.167 32 -97.5c0 -28.667 -7.16699 -55.834 -21.5 -81.501s-44.166 -38.5 -89.499 -38.5c-39.333 0 -67.166 10.5 -83.499 31.5s-24.5 48.5 -24.5 82.5z
M110.998 1571c0 20.667 4.99512 36.333 14.9951 47s22.5 18.834 37.5 24.501s30.833 8.83398 47.5 9.50098s30.334 1 41.001 1c15.333 0 30.833 -1.83301 46.5 -5.5s29.834 -8.83398 42.501 -15.501s23.5 -14.834 32.5 -24.501s13.5 -21.167 13.5 -34.5
c0 -22 -0.333008 -41.833 -1 -59.5s-2 -39.5 -4 -65.5l-8 -99.5c-3.33301 -40.333 -7.16602 -94.333 -11.499 -162s-8.83301 -152.334 -13.5 -254.001l-17 -375.5c-1.33301 -23.333 -3 -46.166 -5 -68.499s-6.83301 -42.833 -14.5 -61.5s-17.667 -33.667 -30 -45
s-29.5 -17 -51.5 -17c-26 0 -46 6.33301 -60 19s-24.167 29 -30.5 49s-10.166 41.167 -11.499 63.5s-2 43.166 -2 62.499c0 74 -0.333008 134.833 -1 182.5s-1.33398 91 -2.00098 130l-2 114.5c-0.666992 37.333 -1.66699 81.333 -3 132s-2.66602 111.834 -3.99902 183.501
s-2.66602 161.5 -3.99902 269.5z" />
    <glyph glyph-name="quotedbl" unicode="&#x22;" horiz-adv-x="700" 
d="M90 1419l0.00195312 134.999c0 16.667 10 28.834 30 36.501s42.667 11.5 68 11.5c26 0 50 -4.16699 72 -12.5s34.333 -20.166 37 -35.499l-21 -311c-2.66699 -48 -12.5 -87.333 -29.5 -118s-41.167 -46 -72.5 -46c-16.667 0 -30.334 5.5 -41.001 16.5
s-18.834 24.667 -24.501 41s-9.5 34.166 -11.5 53.499s-3 37 -3 53v77c0 12.667 -0.333008 20.5 -1 23.5s-1 4.16699 -1 3.5s-0.333008 4 -1 14s-1 29.333 -1 58zM418.002 1419v134.999c0 16.667 9.83301 28.834 29.5 36.501s42.5 11.5 68.5 11.5s50 -4.16699 72 -12.5
s34.333 -20.166 37 -35.499l-21 -311c-2.66699 -48 -12.5 -87.333 -29.5 -118s-41.167 -46 -72.5 -46c-16.667 0 -30.5 5.5 -41.5 16.5s-19.167 24.667 -24.5 41s-9 34.166 -11 53.499s-3 37 -3 53v77c0 12.667 -0.333008 20.5 -1 23.5s-1 4.16699 -1 3.5s-0.333008 4 -1 14
s-1 29.333 -1 58z" />
    <glyph glyph-name="numbersign" unicode="#" horiz-adv-x="1464" 
d="M53 684c0 22 5.16602 40.165 15.499 54.498s23.333 25.5 39 33.5s33 13.833 52 17.5s38.167 5.5 57.5 5.5h203l74 184h-113c-57.333 0 -99 12.333 -125 37s-39 57.334 -39 98.001c0 22 5.16699 40.167 15.5 54.5s23.333 25.5 39 33.5s33 13.833 52 17.5
s38.167 5.5 57.5 5.5h211l129 323c8 8 17.667 12.333 29 13c4 0 11.333 -2.5 22 -7.5s21.834 -10.833 33.501 -17.5s22 -13.5 31 -20.5s13.5 -12.5 13.5 -16.5c0 -9.33301 1.33301 -16 4 -20v-4c-12 -24.667 -26 -58.5 -42 -101.5s-33.333 -92.5 -52 -148.5h186l125 313
c8 8 17.667 12 29 12c4 0 11.5 -2.33301 22.5 -7s22.333 -10.334 34 -17.001s21.834 -13.5 30.501 -20.5s13 -12.5 13 -16.5c0 -9.33301 1.33301 -16.333 4 -21v-4c-12 -23.333 -25.5 -55.666 -40.5 -96.999l-51.5 -142h172c50.667 0 85.167 -13.333 103.5 -40
s27.5 -56.334 27.5 -89.001c0 -35.333 -9.5 -63.666 -28.5 -84.999s-53.167 -32 -102.5 -32h-254c-10.667 -31.333 -21.834 -62 -33.501 -92s-22.834 -60.667 -33.501 -92h157c50.667 0 85.167 -13.333 103.5 -40s27.5 -56.334 27.5 -89.001
c0 -35.333 -9.5 -63.666 -28.5 -84.999s-53.167 -32 -102.5 -32h-256c-20.667 -49.333 -42.167 -96.5 -64.5 -141.5s-45.166 -86.5 -68.499 -124.5c-12 -8 -25 -12.333 -39 -13c-10.667 0 -27 2.5 -49 7.5s-36.333 11.5 -43 19.5c-8 10.667 -12 21.667 -12 33l88 219h-166
c-20.667 -48 -41.5 -93.5 -62.5 -136.5s-43.167 -82.833 -66.5 -119.5c-12 -8 -25 -12 -39 -12c-10.667 0 -27 2.33301 -49 7s-36.333 11 -43 19c-8 10.667 -12 21.667 -12 33l84 209h-105c-57.333 0 -99 12.333 -125 37s-39 57.334 -39 98.001zM607.999 794.998h166l74 184
h-172z" />
    <glyph glyph-name="dollar" unicode="$" horiz-adv-x="1325" 
d="M45 1155c0 74 15.3379 140.333 46.0049 199s71 109.5 121 152.5s107.333 78.167 172 105.5s132 47 202 59v117c5.33301 16.667 11.666 28 18.999 34s16 9 26 9c15.333 0 30 -4.16699 44 -12.5s28 -12.5 42 -12.5v-120h31c60 0 123 -10.667 189 -32
s126.667 -51.833 182 -91.5s100.833 -87.5 136.5 -143.5s53.5 -118.667 53.5 -188c0 -44 -7.5 -90.167 -22.5 -138.5s-36.5 -93 -64.5 -134s-61.833 -74.833 -101.5 -101.5s-83.5 -40 -131.5 -40c-16.667 0 -33.5 3.16699 -50.5 9.5s-32.333 14.833 -46 25.5
s-24.834 23.834 -33.501 39.501s-13 33.167 -13 52.5c0 15.333 4.33301 30.5 13 45.5s24 22.5 46 22.5l84 -19c27.333 0 50.166 6.16699 68.499 18.5s33 28 44 47s19 40.167 24 63.5s7.5 45.333 7.5 66c0 58.667 -10.333 111.5 -31 158.5s-49.334 87 -86.001 120
s-80.334 58 -131.001 75s-106 25.5 -166 25.5h-2v-709c40.667 -26 80.167 -54 118.5 -84s72.833 -62.333 103.5 -97s55.167 -72.5 73.5 -113.5s27.5 -86.167 27.5 -135.5c0 -50.667 -7.83301 -99.5 -23.5 -146.5s-37.834 -90 -66.501 -129s-62.834 -72.167 -102.501 -99.5
s-83.167 -47 -130.5 -59v-96c-8 -27.333 -17.5 -46.166 -28.5 -56.499s-22.167 -15.5 -33.5 -15.5c-16.667 0 -31.334 8.16699 -44.001 24.5s-21 32.166 -25 47.499v86c-32.667 1.33301 -64.5 6.66602 -95.5 15.999s-58 22.666 -81 39.999s-41.667 38.5 -56 63.5
s-21.5 55.5 -21.5 91.5c0 28.667 6.5 56.5 19.5 83.5s32.5 40.5 58.5 40.5c10.667 0 19.834 -7.5 27.501 -22.5l27.5 -52c10.667 -19.667 25.334 -39.667 44.001 -60s44.334 -36.166 77.001 -47.499v410l-54 31l-169 100c-58 35.333 -110.5 75.5 -157.5 120.5
s-85.5 96.5 -115.5 154.5s-45 125.333 -45 202zM367.005 1245c0 -106.667 42.999 -190.001 128.999 -250.001c13.333 -9.33301 27.5 -18.5 42.5 -27.5l47.5 -29.5v608c-65.333 -19.333 -118.166 -54.166 -158.499 -104.499s-60.5 -115.833 -60.5 -196.5zM717.004 128.999
c35.333 6.66699 65.667 20.667 91 42s38 54.333 38 99c0 38 -12 72.833 -36 104.5s-55 61.167 -93 88.5v-334z" />
    <glyph glyph-name="percent" unicode="%" horiz-adv-x="1427" 
d="M47 1067c0 36.667 5.16699 79.002 15.5 127.002s28.833 93.167 55.5 135.5s63.834 78.166 111.501 107.499s108.5 44 182.5 44c30 0 59.667 -6.5 89 -19.5s55.833 -32.5 79.5 -58.5s43.167 -58.5 58.5 -97.5s23 -84.5 23 -136.5c0 -26 -2.16699 -62.833 -6.5 -110.5
s-17.333 -95 -39 -142s-55.5 -88 -101.5 -123s-110.333 -52.5 -193 -52.5c-40.667 0 -77.834 10 -111.501 30s-62.5 45.667 -86.5 77s-42.833 66.166 -56.5 104.499s-20.5 76.5 -20.5 114.5zM190 72.002l894.998 1343c8 8 17.667 12 29 12c4 0 11.5 -2.33301 22.5 -7
s22.333 -10.334 34 -17.001s21.834 -13.5 30.501 -20.5s13 -12.5 13 -16.5c0 -9.33301 1.66699 -16 5 -20v-5c-13.333 -27.333 -39.666 -70.666 -78.999 -129.999l-139.5 -205.5l-175 -250.5l-185.5 -267.5l-172 -253c-54 -79.667 -98.667 -149.5 -134 -209.5
c-12 -8 -25 -12.333 -39 -13c-10.667 0 -27 2.5 -49 7.5s-36.333 11.5 -43 19.5c-8.66699 11.333 -13 22.333 -13 33zM251.998 1120c0 -16.667 0.664062 -41.001 1.99707 -73.001s5.83301 -64.333 13.5 -97s19.334 -61 35.001 -85s37.834 -36 66.501 -36
c23.333 0 40.666 8 51.999 24s20.166 34.833 26.499 56.5s9.83301 44.167 10.5 67.5s1 43 1 59c0 19.333 -0.666992 47.833 -2 85.5s-5.16602 75.167 -11.499 112.5s-16.666 70.333 -30.999 99s-34.5 43 -60.5 43c-23.333 0 -41.666 -6.83301 -54.999 -20.5
s-23.5 -30.667 -30.5 -51s-11.5 -42.166 -13.5 -65.499s-3 -44.333 -3 -63v-56zM765.995 289.001c0 36.667 5.16504 78.835 15.498 126.502s28.833 92.667 55.5 135s63.834 78.166 111.501 107.499s108.167 44 181.5 44c30 0 59.833 -6.33301 89.5 -19
s56.334 -32 80.001 -58s43 -58.5 58 -97.5s22.5 -84.5 22.5 -136.5c0 -26 -2 -62.833 -6 -110.5s-16.833 -95 -38.5 -142s-55.5 -88 -101.5 -123s-110.667 -52.5 -194 -52.5c-40.667 0 -77.667 10 -111 30s-62 45.667 -86 77s-42.833 66.166 -56.5 104.499
s-20.5 76.5 -20.5 114.5zM970.993 342.002c0 -16.667 0.666016 -41.002 1.99902 -73.002s5.66602 -64.333 12.999 -97s18.833 -61 34.5 -85s37.834 -36 66.501 -36c23.333 0 40.833 7.83301 52.5 23.5s20.667 34.5 27 56.5s9.83301 44.5 10.5 67.5s1 42.833 1 59.5
c0 19.333 -0.666992 47.666 -2 84.999s-5.16602 74.833 -11.499 112.5s-16.666 70.834 -30.999 99.501s-34.5 43 -60.5 43c-23.333 0 -41.833 -6.83301 -55.5 -20.5s-23.834 -30.667 -30.501 -51s-11 -42.166 -13 -65.499s-3 -44.666 -3 -63.999v-55z" />
    <glyph glyph-name="ampersand" unicode="&#x26;" horiz-adv-x="1372" 
d="M43 647c0 57.333 8.83203 110.337 26.499 159.004s40.167 92 67.5 130s56.333 71.667 87 101s59.334 54.333 86.001 75s48.167 36.834 64.5 48.501s23.833 18.834 22.5 21.501c-12 32.667 -20.333 62 -25 88s-7 52 -7 78c0 57.333 10.833 103.333 32.5 138
s49.5 61.834 83.5 81.501s71.833 32.667 113.5 39s82.5 9.5 122.5 9.5c45.333 0 96.166 -8.16699 152.499 -24.5s109.5 -39.833 159.5 -70.5s92 -68.334 126 -113.001s51 -95.667 51 -153c0 -16.667 -2 -30.667 -6 -42s-10.667 -17 -20 -17c-31.333 0 -56.666 14 -75.999 42
s-39.166 59 -59.499 93s-44.833 65 -73.5 93s-67.667 42 -117 42c-42 0 -80.833 -15.333 -116.5 -46s-53.5 -72 -53.5 -124c0 -28.667 6.16699 -55.834 18.5 -81.501s25.5 -50.5 39.5 -74.5l40 -67c12 -20.667 18.333 -40.334 19 -59.001c0 -13.333 -9.66699 -26 -29 -38
s-43.333 -25.167 -72 -39.5s-59.667 -31 -93 -50s-64.333 -43.167 -93 -72.5s-52.5 -64.833 -71.5 -106.5s-28.5 -92.5 -28.5 -152.5c0 -66.667 10.5 -126.667 31.5 -180s48.667 -98.5 83 -135.5s71.833 -65 112.5 -84s80.334 -28.5 119.001 -28.5
c44 0 85.333 10.167 124 30.5s73 47.333 103 81s54.667 72 74 115s29.666 86.167 30.999 129.5c-62.667 0 -113.834 3.16699 -153.501 9.5s-70.5 15.666 -92.5 27.999s-37.167 26.666 -45.5 42.999s-12.5 34.5 -12.5 54.5c0 35.333 12 63 36 83s51.667 30 83 30
c19.333 0 37.166 -3.66699 53.499 -11s32.333 -15.833 48 -25.5s30.667 -18.334 45 -26.001s28.5 -11.5 42.5 -11.5c2.66699 0 9.5 3.5 20.5 10.5s24.667 14.5 41 22.5s35 15.5 56 22.5s42.5 10.5 64.5 10.5c24.667 0 44.834 -16 60.501 -48s23.5 -73.333 23.5 -124
c0 -53.333 -10.667 -112 -32 -176s-55.833 -123.667 -103.5 -179s-111 -101.833 -190 -139.5s-176.833 -56.5 -293.5 -56.5c-88.667 0 -175 14 -259 42s-158.667 69.333 -224 124s-117.833 122.167 -157.5 202.5s-59.5 173.166 -59.5 278.499z" />
    <glyph glyph-name="quotesingle" unicode="'" horiz-adv-x="372" 
d="M90 1419l0.00195312 134.999c0 16.667 10 28.834 30 36.501s42.667 11.5 68 11.5c26 0 50 -4.16699 72 -12.5s34.333 -20.166 37 -35.499l-21 -311c-2.66699 -48 -12.5 -87.333 -29.5 -118s-41.167 -46 -72.5 -46c-16.667 0 -30.334 5.5 -41.001 16.5
s-18.834 24.667 -24.501 41s-9.5 34.166 -11.5 53.499s-3 37 -3 53v77c0 12.667 -0.333008 20.5 -1 23.5s-1 4.16699 -1 3.5s-0.333008 4 -1 14s-1 29.333 -1 58z" />
    <glyph glyph-name="parenleft" unicode="(" horiz-adv-x="704" 
d="M66 569c0 48 6.33008 107.5 18.9971 178.5s30 145 52 222s47.333 154.167 76 231.5s58 147 88 209s60.333 112.167 91 150.5s58.334 57.5 83.001 57.5c54.667 0 97.334 -15 128.001 -45s46 -71 46 -123c-90 -125.333 -158.5 -251.5 -205.5 -378.5
s-77.333 -251.667 -91 -374s-14 -240.833 -1 -355.5s34.167 -223.167 63.5 -325.5s64.5 -196.833 105.5 -283.5s81.833 -163.667 122.5 -231c0 -12 -7.5 -19 -22.5 -21s-27.167 -3 -36.5 -3c-40.667 0 -82 18.667 -124 56s-82 86.5 -120 147.5s-73.833 130 -107.5 207
s-63.167 156.167 -88.5 237.5s-44.666 160.5 -57.999 237.5s-20 145.5 -20 205.5z" />
    <glyph glyph-name="parenright" unicode=")" horiz-adv-x="704" 
d="M55 1450c0 52 15.3301 93 45.9971 123s73.334 45 128.001 45c26 0 54 -19.167 84 -57.5s60.167 -88.5 90.5 -150.5s59.833 -131.667 88.5 -209s53.834 -154.5 75.501 -231.5s39 -151 52 -222s19.5 -130.5 19.5 -178.5c0 -60 -6.83301 -128.5 -20.5 -205.5
s-33.167 -156.167 -58.5 -237.5s-54.666 -160.5 -87.999 -237.5s-69.166 -146 -107.499 -207s-78.333 -110.167 -120 -147.5s-82.834 -56 -123.501 -56c-9.33301 0 -21.666 1 -36.999 3s-23 9 -23 21c40.667 66.667 81.667 143.5 123 230.5s76.666 181.667 105.999 284
s50.5 210.833 63.5 325.5s12.667 233.167 -1 355.5s-44.167 247 -91.5 374s-116 253.167 -206 378.5z" />
    <glyph glyph-name="asterisk" unicode="*" horiz-adv-x="765" 
d="M49 1135c0 27.333 9.17188 43.6699 27.5049 49.0029s39.166 8 62.499 8c6.66699 0 17 -1.33301 31 -4l123 -23l-72 70c-4 2.66699 -7.33301 5 -10 7s-5.33398 4.33301 -8.00098 7c-24.667 27.333 -37 48.666 -37 63.999c0 13.333 7.33301 27 22 41
c9.33301 10.667 19.666 16 30.999 16c10.667 0 21.167 -3.66699 31.5 -11s20.5 -16.666 30.5 -27.999c8 -8 13.333 -15.333 16 -22l49 -72l-12 123c1.33301 36.667 6.83301 61.5 16.5 74.5s26.5 19.5 50.5 19.5c26 0 42.167 -7.5 48.5 -22.5s10.166 -40.167 11.499 -75.5
l-23 -129l72 86c27.333 24.667 48.333 37 63 37c9.33301 0 22.333 -7 39 -21c12 -12 18.333 -23.667 19 -35c0 -9.33301 -3.83301 -18.833 -11.5 -28.5s-18.834 -21.834 -33.501 -36.501l-86 -62l125 13c10.667 2.66699 18.667 4 24 4c48 0 72 -20 72 -60
c0 -26 -7.16699 -43.667 -21.5 -53s-39.166 -14.666 -74.499 -15.999l-109 12l59 -51c10.667 -5.33301 17.667 -10.333 21 -15c16.667 -16.667 25 -31.667 25 -45c0 -12 -7 -24.667 -21 -38c-6.66699 -6.66699 -12.834 -11.834 -18.501 -15.501s-11.834 -5.5 -18.501 -5.5
c-15.333 0 -37.666 13 -66.999 39l-56 72l13 -107c-1.33301 -40.667 -4.5 -70 -9.5 -88s-22.5 -27 -52.5 -27c-27.333 0 -44 12 -50 36s-7.66699 51.667 -5 83l8 111l-51 -66c-18 -16.667 -32.833 -29.334 -44.5 -38.001s-22.834 -13 -33.501 -13
c-9.33301 0 -21.666 6.33301 -36.999 19c-8 10.667 -12 20.667 -12 30c0 12 5.16699 24.667 15.5 38s22.833 26.666 37.5 39.999l53 45l-102 -4c-5.33301 0 -10 -0.333008 -14 -1s-8.33301 -1 -13 -1c-31.333 0 -54.833 4.83301 -70.5 14.5s-23.5 28.167 -23.5 55.5z" />
    <glyph glyph-name="plus" unicode="+" horiz-adv-x="1042" 
d="M70 754c0 22 5.00195 39.6641 15.002 52.9971s22.833 23.833 38.5 31.5s33.167 12.834 52.5 15.501s38.333 4 57 4l183 2v195c0 50.667 13.667 84.834 41 102.501s57.333 26.5 90 26.5c35.333 0 62.833 -10 82.5 -30s29.5 -54.333 29.5 -103v-189l191 2
c24.667 0 45.5 -3.33301 62.5 -10s30.667 -16.167 41 -28.5s17.5 -26.333 21.5 -42s6 -31.834 6 -48.501c0 -35.333 -9.5 -63.166 -28.5 -83.499s-53.167 -30.5 -102.5 -30.5h-193v-187c0 -57.333 -12.5 -98.666 -37.5 -123.999s-58.167 -38 -99.5 -38
c-22 0 -39.833 5.16699 -53.5 15.5s-23.834 23.333 -30.501 39s-11.334 33.5 -14.001 53.5s-4 39.333 -4 58v180h-185c-57.333 0 -98.833 12.5 -124.5 37.5s-38.5 57.833 -38.5 98.5z" />
    <glyph glyph-name="comma" unicode="," horiz-adv-x="503" 
d="M61 -319c0 8 10.334 17.5 31.001 28.5s43 26 67 45s46.167 42.833 66.5 71.5s30.5 64 30.5 106c0 26 -5.83301 48.333 -17.5 67s-24.667 34.5 -39 47.5s-27.333 23.833 -39 32.5s-17.5 17 -17.5 25v9c-4 4 -6 10 -6 18s4.16699 17.833 12.5 29.5s19 23 32 34s27 21 42 30
s29.167 15.5 42.5 19.5c12 0 27.667 -6.5 47 -19.5s38.166 -30.167 56.499 -51.5s34 -45 47 -71s19.5 -51.667 19.5 -77c0 -53.333 -10.5 -103 -31.5 -149s-48.667 -86 -83 -120s-72 -60.833 -113 -80.5s-81.833 -29.5 -122.5 -29.5c-9.33301 0 -15.833 4.16699 -19.5 12.5
s-5.5 15.833 -5.5 22.5z" />
    <glyph glyph-name="hyphen" unicode="-" horiz-adv-x="665" 
d="M55 778c0 15.333 5.16406 29.833 15.4971 43.5s26.5 20.5 48.5 20.5l84 -23c19.333 -5.33301 37.833 -10 55.5 -14l57 -13.5l71.5 -17.5c27.333 -6.66699 60.666 -15.334 99.999 -26.001l111 -29c2.66699 -1.33301 5.33398 -9.16602 8.00098 -23.499s5 -30.333 7 -48
l5.5 -50.5c1.66699 -16 2.5 -26.667 2.5 -32c0 -12 -3.83301 -23.5 -11.5 -34.5s-21.834 -16.5 -42.501 -16.5c-13.333 2.66699 -27.166 5 -41.499 7s-29.166 5 -44.499 9l-278 66c-19.333 4 -39.166 8.66699 -59.499 14s-42.166 11.666 -65.499 18.999
c-4 2.66699 -7.5 10.834 -10.5 24.501s-5.5 29 -7.5 46s-3.33301 33 -4 48s-1 25.167 -1 30.5z" />
    <glyph glyph-name="period" unicode="." horiz-adv-x="450" 
d="M147 94c0 39.333 7.99902 71.334 23.999 96.001s47.667 37 95 37c28.667 0 51.5 -9.83301 68.5 -29.5s27.833 -52.167 32.5 -97.5c0 -28.667 -7.16699 -55.834 -21.5 -81.501s-44.166 -38.5 -89.499 -38.5c-39.333 0 -67.333 10.5 -84 31.5s-25 48.5 -25 82.5z" />
    <glyph glyph-name="slash" unicode="/" horiz-adv-x="905" 
d="M-66 72l894.998 1343c8 8 17.667 12 29 12c4 0 11.5 -2.33301 22.5 -7s22.333 -10.334 34 -17.001s21.834 -13.5 30.501 -20.5s13 -12.5 13 -16.5c0 -9.33301 1.66699 -16 5 -20v-5c-13.333 -27.333 -39.666 -70.666 -78.999 -129.999l-139.5 -205.5l-175 -250.5
l-185.5 -267.5l-172 -253c-54 -79.667 -98.667 -149.5 -134 -209.5c-12 -8 -25 -12.333 -39 -13c-10.667 0 -27 2.5 -49 7.5s-36.333 11.5 -43 19.5c-8.66699 11.333 -13 22.333 -13 33z" />
    <glyph glyph-name="zero" unicode="0" horiz-adv-x="1611" 
d="M104 666c0 44 4.49805 93.1689 13.498 147.502s22.667 109.166 41 164.499s41.5 109.333 69.5 162s60.833 99.334 98.5 140.001s80.334 73.334 128.001 98.001s100.167 37 157.5 37c19.333 0 35.166 -3 47.499 -9s18.5 -16.667 18.5 -32c0 -34 -5.16699 -64 -15.5 -90
s-22.666 -51.667 -36.999 -77s-30.333 -52 -48 -80s-33.667 -60.333 -48 -97s-26.666 -79.667 -36.999 -129s-15.5 -108.666 -15.5 -177.999c0 -62.667 10 -126.167 30 -190.5s49 -122 87 -173s85.333 -93 142 -126s122 -49.5 196 -49.5c58.667 0 112.167 13.333 160.5 40
s90 61.834 125 105.501s62 93.167 81 148.5s28.5 111.666 28.5 168.999c0 53.333 -7.16699 106.666 -21.5 159.999s-35.833 101.166 -64.5 143.499s-65.167 76.833 -109.5 103.5s-96.5 40 -156.5 40c-23.333 0 -42.833 -4.83301 -58.5 -14.5
s-30.334 -20.334 -44.001 -32.001s-27.667 -22.334 -42 -32.001s-31.833 -14.5 -52.5 -14.5c-28.667 0 -48 5.16699 -58 15.5s-15 29.833 -15 58.5c0 45.333 9.83301 84.666 29.5 117.999s44.834 60.666 75.501 81.999s65.167 37.333 103.5 48s75.166 16 110.499 16
c80.667 0 152 -19 214 -57s113.833 -86.667 155.5 -146s73.5 -125.666 95.5 -198.999s33 -144.666 33 -213.999c0 -106.667 -19.167 -206.667 -57.5 -300s-91.666 -174.5 -159.999 -243.5s-149.166 -123.333 -242.499 -163s-196 -59.5 -308 -59.5
c-96.667 0 -185 18.833 -265 56.5s-148.333 88.5 -205 152.5s-100.834 139.167 -132.501 225.5s-47.5 177.833 -47.5 274.5z" />
    <glyph glyph-name="one" unicode="1" horiz-adv-x="901" 
d="M57 899c0 48 2.83203 100.002 8.49902 156.002s15.334 111.667 29.001 167s32 108.833 55 160.5s52.667 97.334 89 137.001s79.666 71.5 129.999 95.5s109.166 36 176.499 36c40.667 0 76 -16.833 106 -50.5s56 -76.334 78 -128.001s39.5 -109.334 52.5 -173.001
s23.5 -125.5 31.5 -185.5s13.5 -115 16.5 -165s4.5 -87.667 4.5 -113c0 -98 -3.16699 -189.167 -9.5 -273.5s-20.333 -163 -42 -236s-54 -142.333 -97 -208s-101.5 -129.834 -175.5 -192.501c-8 -5.33301 -15.667 -10 -23 -14c-6.66699 -2.66699 -13 -5.33398 -19 -8.00098
s-11.667 -4 -17 -4c-15.333 0 -30.5 6.16699 -45.5 18.5s-22.5 29.166 -22.5 50.499c0 2.66699 0.333008 7.83398 1 15.501s4.33398 12.834 11.001 15.501c35.333 83.333 64.333 167 87 251s40.167 165.167 52.5 243.5s20.833 153 25.5 224s7 135.167 7 192.5
c0 36.667 -1 81 -3 133s-9.16699 101.667 -21.5 149s-31.5 87.666 -57.5 120.999s-62.667 50 -110 50c-31.333 0 -59 -17.333 -83 -52s-44.167 -76 -60.5 -124s-28.666 -97.167 -36.999 -147.5s-12.5 -91.166 -12.5 -122.499c0 -13.333 -8.5 -24 -25.5 -32
s-35.167 -12 -54.5 -12c-12 0 -22.5 2.16699 -31.5 6.5s-13.5 10.5 -13.5 18.5z" />
    <glyph glyph-name="two" unicode="2" horiz-adv-x="1484" 
d="M33 981c6.66699 96.667 30.5 186.331 71.5 268.998s94.667 154 161 214s143.5 107.167 231.5 141.5s183 51.5 285 51.5c96.667 0 183.334 -16 260.001 -48s142.334 -77.167 197.001 -135.5s96.334 -127.666 125.001 -207.999s43 -169.166 43 -266.499
c0 -88.667 -23.5 -173.167 -70.5 -253.5s-105 -155.666 -174 -225.999s-143.167 -134.5 -222.5 -192.5l-217 -155c18 -9.33301 34.5 -16.5 49.5 -21.5s32.333 -8.5 52 -10.5s43.834 -3.33301 72.501 -4s65.667 -1 111 -1c131.333 0 274.666 6.33301 429.999 19
c-46.667 -62.667 -93.5 -109.167 -140.5 -139.5s-105.5 -45.5 -175.5 -45.5c-32.667 0 -72.834 1.33301 -120.501 4s-111.167 4 -190.5 4c-32.667 0 -61.334 -0.333008 -86.001 -1s-51.334 -2 -80.001 -4l-103.5 -7c-40.333 -2.66699 -92.5 -5.33398 -156.5 -8.00098
c-16.667 0 -34.5 0.666992 -53.5 2s-36.333 4.66602 -52 9.99902s-28.667 13.5 -39 24.5s-15.5 26.167 -15.5 45.5c0 23.333 10.667 42.166 32 56.499s47.666 27 78.999 38l99 34.5c34.667 12 66.334 28.333 95.001 49c52 27.333 109.5 64.5 172.5 111.5
s121.833 98.833 176.5 155.5s100 116.167 136 178.5s54 122.166 54 179.499c0 75.333 -5.83301 149 -17.5 221s-32.834 136.333 -63.501 193s-73 102.5 -127 137.5s-123.333 52.5 -208 52.5c-64 0 -123.333 -12.667 -178 -38s-102.5 -59.166 -143.5 -101.499
s-73.667 -91.833 -98 -148.5s-38.833 -115.667 -43.5 -177c-1.33301 -23.333 -9.16602 -40.166 -23.499 -50.499s-30.833 -15.5 -49.5 -15.5c-20.667 0 -40.167 5.83301 -58.5 17.5s-26.833 27.834 -25.5 48.501z" />
    <glyph glyph-name="three" unicode="3" horiz-adv-x="1259" 
d="M25 217c0 6.66699 1.99609 14.5 5.99609 23.5s9.33301 18.333 16 28s14.5 17.5 23.5 23.5s18.833 9 29.5 9c22 0 41.833 -12 59.5 -36s39.5 -50 65.5 -78s58.833 -53.833 98.5 -77.5s90.834 -35.5 153.501 -35.5c60 0 111.833 4.66699 155.5 14s80.5 26.666 110.5 51.999
s52.167 59.5 66.5 102.5s21.5 98.167 21.5 165.5c0 58.667 -9.5 109.167 -28.5 151.5s-42.833 78.166 -71.5 107.499s-59.667 53.5 -93 72.5s-64.333 35.667 -93 50s-52.667 27.333 -72 39s-29 24.167 -29 37.5c0 19.333 11 39.166 33 59.499s46.333 45.166 73 74.499
s50.834 64.833 72.501 106.5s32.5 91.834 32.5 150.501c0 40.667 -9.16699 75.834 -27.5 105.501s-40.5 53.667 -66.5 72s-53.667 32 -83 41s-54.333 13.5 -75 13.5c-49.333 0 -88.166 -13 -116.499 -39s-52.833 -54.667 -73.5 -86s-40.5 -60 -59.5 -86
s-44.167 -39 -75.5 -39c-9.33301 0 -16.166 5.83301 -20.499 17.5s-6.5 25.5 -6.5 41.5c0 57.333 17.167 108.333 51.5 153s76.333 82.334 126 113.001s102.834 54.167 159.501 70.5s107.667 24.5 153 24.5c39.333 0 84.333 -2 135 -6s98.167 -14.667 142.5 -32
s81.5 -42.333 111.5 -75s45 -77.667 45 -135c0 -49.333 -5.5 -93.333 -16.5 -132s-23.667 -73.5 -38 -104.5s-28.333 -58 -42 -81s-23.834 -42.833 -30.501 -59.5c-1.33301 -2.66699 6.16699 -9.83398 22.5 -21.501l64.5 -48c26.667 -20.333 55.334 -45.166 86.001 -74.499
s59.667 -63.166 87 -101.499s49.833 -81.333 67.5 -129s26.5 -100.834 26.5 -159.501c0 -105.333 -20.167 -193.166 -60.5 -263.499s-93.833 -127 -160.5 -170s-142.334 -73.667 -227.001 -92s-171.334 -27.5 -260.001 -27.5c-35.333 0 -79.666 2.33301 -132.999 7
s-105 16.5 -155 35.5s-92.667 46.333 -128 82s-53 84.167 -53 145.5z" />
    <glyph glyph-name="four" unicode="4" horiz-adv-x="1390" 
d="M0 485v3.99609c2.66699 20.667 13.167 39.834 31.5 57.501s40.166 33.334 65.499 47.001s51.333 25.334 78 35.001s49 16.5 67 20.5l6 62c1.33301 8 2 16 2 24v25c0 49.333 -4.83301 97.833 -14.5 145.5s-20.334 95.334 -32.001 143.001s-22.167 96.167 -31.5 145.5
s-14 100 -14 152v29c0 8.66699 0.666992 18.667 2 30c4 46.667 12.833 86.667 26.5 120s30.334 61.166 50.001 83.499s40.5 39 62.5 50s43 16.5 63 16.5h11c26 0 47.167 -10.833 63.5 -32.5s25.833 -50.5 28.5 -86.5l8 -110c6.66699 -78 17.834 -158.333 33.501 -241
s23.5 -162.667 23.5 -240v-36c0 -11.333 -0.666992 -22.666 -2 -33.999c-5.33301 -56 -16.833 -107.167 -34.5 -153.5s-38.834 -87.5 -63.501 -123.5c2.66699 -1.33301 5.33398 -2 8.00098 -2s6.33398 -0.666992 11.001 -2c15.333 -4 39.166 -8.33301 71.499 -13
s69.666 -9.66699 111.999 -15l135.5 -16.5l141 -16.5v913c0 19.333 7.5 40.666 22.5 63.999s33.833 45.166 56.5 65.499s47 37.333 73 51s50 20.5 72 20.5c4 0 10 -0.333008 18 -1s16.167 -2.66699 24.5 -6s15.5 -9.16602 21.5 -17.499s9 -19.833 9 -34.5v-1067l19.5 4
c6.33301 1.33301 12.833 1.33301 19.5 0l25 -2c13.333 -1.33301 22.166 -5.16602 26.499 -11.499s6.5 -16.833 6.5 -31.5v-15c-2.66699 -31.333 -13 -56.833 -31 -76.5s-40 -35.167 -66 -46.5v-178l17 -102c0 -19.333 -6.5 -39.5 -19.5 -60.5s-28.833 -40 -47.5 -57
s-38.167 -31.333 -58.5 -43s-38.166 -17.5 -53.499 -17.5c-24.667 0 -44.334 12.667 -59.001 38s-26.167 58.333 -34.5 99s-14.166 87.667 -17.499 141s-5 108.666 -5 165.999c-49.333 8 -104.666 20 -165.999 36l-186.5 47.5c-63 15.667 -123.167 29.667 -180.5 42
s-106.333 20.5 -147 24.5h-23c-20.667 0 -42.167 -1.5 -64.5 -4.5s-43 -6.16699 -62 -9.5l-50 -9c-14.333 -2.66699 -22.833 -4 -25.5 -4h-5c-12 2.66699 -18 7.33398 -18 14.001z" />
    <glyph glyph-name="five" unicode="5" horiz-adv-x="1327" 
d="M25 401c0 39.333 11.1719 69 33.5049 89s45.833 30 70.5 30c19.333 0 36.166 -6.83301 50.499 -20.5s21.5 -36.834 21.5 -69.501c0 -57.333 10.5 -108.5 31.5 -153.5s50 -83.167 87 -114.5s80.667 -55.166 131 -71.499s104.833 -24.5 163.5 -24.5
c48 0 93.5 6.66699 136.5 20s80.5 33.333 112.5 60s57.333 60.167 76 100.5s28 87.166 28 140.499c0 108 -43 191.333 -129 250c-48 31.333 -103.333 65.166 -166 101.499s-122 77 -178 122s-103.5 95.5 -142.5 151.5s-58.5 120 -58.5 192v25c0 8 0.333008 18.5 1 31.5
s1.66699 29.333 3 49s2.66602 43.834 3.99902 72.501c-19.333 6.66699 -43 16.334 -71 29.001s-54.5 27.5 -79.5 44.5s-46.833 35.667 -65.5 56s-28 41.5 -28 63.5c0 9.33301 2.5 14.666 7.5 15.999s11.5 2 19.5 2c4 0 14.167 -2.33301 30.5 -7s36.166 -10 59.499 -16
s48 -11.833 74 -17.5s49.667 -8.5 71 -8.5c50.667 0 104.667 6.5 162 19.5s114.666 27.333 171.999 43s113.666 30 168.999 43s106.333 19.5 153 19.5c30 0 62.667 -2.66699 98 -8s68.166 -15.166 98.499 -29.499s55.666 -33.5 75.999 -57.5s30.5 -53.667 30.5 -89
c0 -22 -2.66699 -37.5 -8 -46.5s-16.333 -13.5 -33 -13.5s-31.834 1.5 -45.501 4.5l-39.5 8.5c-12.667 2.66699 -26.167 5.33398 -40.5 8.00098s-31.166 4 -50.499 4c-53.333 0 -109 -2 -167 -6s-113 -9.16699 -165 -15.5l-139.5 -17.5
c-41 -5.33301 -69.5 -9.33301 -85.5 -12v-2c0 -61.333 11.167 -113.833 33.5 -157.5s52 -82.334 89 -116.001s79 -63.167 126 -88.5l143.5 -75.5c48.667 -25 96.5 -51.167 143.5 -78.5s89 -59.5 126 -96.5s66.667 -80.333 89 -130s33.5 -108.834 33.5 -177.501
c0 -88.667 -21.5 -166.167 -64.5 -232.5s-98.333 -121.666 -166 -165.999s-143 -77.333 -226 -99s-164.833 -32.5 -245.5 -32.5c-60 0 -123.167 10.5 -189.5 31.5s-127.166 51.333 -182.499 91s-100.666 87.5 -135.999 143.5s-53 118.667 -53 188z" />
    <glyph glyph-name="six" unicode="6" horiz-adv-x="1263" 
d="M86 498c0 57.333 3.82812 117.002 11.4951 179.002s16.834 122.667 27.501 182s23.5 115.333 38.5 168s29.5 97.334 43.5 134.001c16.667 42 37.834 91.5 63.501 148.5s57 111 94 162s78.667 94.333 125 130s98.166 53.5 155.499 53.5c15.333 0 32.5 -0.666992 51.5 -2
s37 -5.16602 54 -11.499s31.333 -16.333 43 -30s17.5 -32.834 17.5 -57.501c-69.333 -78 -132.666 -158.5 -189.999 -241.5s-106.166 -171.333 -146.499 -265s-71.833 -193 -94.5 -298s-34 -218.833 -34 -341.5c0 -44 3.5 -85.167 10.5 -123.5s19.333 -71.5 37 -99.5
s40.834 -50.167 69.501 -66.5s64.667 -24.5 108 -24.5c62.667 0 122.5 16.5 179.5 49.5s106.667 74.667 149 125s75.666 105.833 99.999 166.5s36.5 119 36.5 175c0 34 -2 67.5 -6 100.5s-12.167 62.5 -24.5 88.5s-29 47.167 -50 63.5s-48.167 24.5 -81.5 24.5
c-54.667 0 -103 -8.83301 -145 -26.5s-77.667 -37.5 -107 -59.5s-52.666 -41.833 -69.999 -59.5s-29.333 -26.5 -36 -26.5c-22 0 -36.667 7.16699 -44 21.5s-11 35.166 -11 62.499c6.66699 31.333 24 63.666 52 96.999s62.5 63.666 103.5 90.999s87.833 49.833 140.5 67.5
s107 26.5 163 26.5c53.333 0 98 -10.833 134 -32.5s64.5 -50.334 85.5 -86.001s36.333 -76.667 46 -123s14.5 -93.5 14.5 -141.5c0 -91.333 -17.667 -183 -53 -275s-84.833 -175 -148.5 -249s-140.167 -134.167 -229.5 -180.5s-188 -69.5 -296 -69.5
c-75.333 0 -137.833 15.667 -187.5 47s-89.167 73.333 -118.5 126s-50.166 113.834 -62.499 183.501s-18.5 142.167 -18.5 217.5z" />
    <glyph glyph-name="seven" unicode="7" horiz-adv-x="1519" 
d="M-143 1255c0 74 18.668 137.663 56.001 190.996s84.666 97 141.999 131s120.166 59.167 188.499 75.5s133.166 24.5 194.499 24.5c57.333 0 109 -3.66699 155 -11s88.333 -16.833 127 -28.5s75.167 -24.667 109.5 -39l102.5 -44.5c18 32.667 35.167 51.834 51.5 57.501
s40.166 8.5 71.499 8.5c27.333 0 52.833 -7.5 76.5 -22.5s35.5 -43.167 35.5 -84.5l-12 -24l72 -8c24.667 -2.66699 50.667 -4 78 -4c28.667 0 51.167 -6.83301 67.5 -20.5s28.166 -29.834 35.499 -48.501s12 -37.167 14 -55.5s3 -32.166 3 -41.499
c0 -16.667 -9.16699 -29 -27.5 -37s-49.166 -12 -92.499 -12c-35.333 0 -64.333 0.333008 -87 1s-42.167 2 -58.5 4s-31.333 5 -45 9l-49.5 14c-19.333 -45.333 -35.5 -86.666 -48.5 -123.999s-24.167 -72.666 -33.5 -105.999s-17.833 -66.5 -25.5 -99.5
s-16.167 -67.833 -25.5 -104.5l72.5 13.5c26.333 5 52.166 10.5 77.499 16.5s49.333 12.333 72 19s41.334 13.667 56.001 21c1.33301 1.33301 4.33301 2 9 2c8 0 16.333 -4.83301 25 -14.5s16.5 -21.667 23.5 -36s12.5 -29 16.5 -44s6 -27.833 6 -38.5
c0 -18 -14.333 -35.167 -43 -51.5s-63.834 -31.333 -105.501 -45s-85.667 -25.334 -132 -35.001s-87.166 -17.167 -122.499 -22.5c-12 -74 -20.5 -141.667 -25.5 -203s-7.5 -116 -7.5 -164c1.33301 2.66699 2.33301 -6.83301 3 -28.5s1 -46.834 1 -75.501
c0 -44 -2.33301 -79.5 -7 -106.5s-13.5 -48.167 -26.5 -63.5s-30.5 -25.666 -52.5 -30.999s-50.667 -8 -86 -8c-28.667 0 -52.167 7.16699 -70.5 21.5s-32.666 32.833 -42.999 55.5s-17.5 48.334 -21.5 77.001s-6 58 -6 88c0 65.333 5 133.5 15 204.5s23.333 143.5 40 217.5
c-26 5.33301 -59.167 11.333 -99.5 18s-80.166 15.5 -119.499 26.5s-75.166 25.667 -107.499 44s-53.166 41.166 -62.499 68.499c-4 12 -6 24.333 -6 37c0 23.333 7.16699 43.833 21.5 61.5s35.166 26.5 62.499 26.5c13.333 0 30 -2 50 -6l74 -15
c29.333 -6 64.166 -12.167 104.499 -18.5s88.5 -12.166 144.5 -17.499l46 147.5c14 45 27.833 87.333 41.5 127l41 113.5c13.667 36 28.167 71 43.5 105c-13.333 5.33301 -31 13.5 -53 24.5s-46.333 22.333 -73 34s-54.334 21.667 -83.001 30s-56.667 12.5 -84 12.5
c-34 0 -69.5 -1.33301 -106.5 -4s-75.5 -7.66699 -115.5 -15c-42 -6.66699 -85.167 -25.334 -129.5 -56.001s-85.666 -63 -123.999 -97s-70.166 -64.667 -95.499 -92s-40 -41 -44 -41c-13.333 0 -24.5 4 -33.5 12s-16.167 17.833 -21.5 29.5s-9 24.334 -11 38.001
s-3 25.834 -3 36.501z" />
    <glyph glyph-name="eight" unicode="8" horiz-adv-x="1497" 
d="M123 379c0 128.667 27.6641 241.001 82.9971 337.001s148.333 170.667 279 224c-13.333 16.667 -29.5 38.167 -48.5 64.5s-36.833 54.333 -53.5 84s-30.667 59.5 -42 89.5s-17 56.333 -17 79c0 80.667 14 145.334 42 194.001s65.167 86 111.5 112s98.5 43.333 156.5 52
s117.667 13 179 13c64 0 118.167 -9.83301 162.5 -29.5s80.5 -45.5 108.5 -77.5s48.167 -68.5 60.5 -109.5s18.5 -83.5 18.5 -127.5c0 -65.333 -11.5 -128 -34.5 -188s-54.5 -107.333 -94.5 -142c45.333 -28.667 89.166 -59.334 131.499 -92.001
s79.833 -68.834 112.5 -108.501s58.834 -84 78.501 -133s29.5 -104.167 29.5 -165.5c0 -88.667 -21.5 -166.167 -64.5 -232.5s-98.167 -121.666 -165.5 -165.999s-142.666 -77.5 -225.999 -99.5s-165.333 -33 -246 -33c-60 0 -123.167 8.83301 -189.5 26.5
s-127.166 45 -182.499 82s-100.666 84.167 -135.999 141.5s-53 125.666 -53 204.999zM425.997 383.001c0 -30 3.83203 -61.3311 11.499 -93.998s22 -62.334 43 -89.001s50.333 -48.5 88 -65.5s85.834 -25.5 144.501 -25.5c48 0 93.333 3.33301 136 10
s80.167 19.167 112.5 37.5s57.666 44.333 75.999 78s27.5 77.167 27.5 130.5c0 109.333 -43 192.333 -129 249c-40.667 27.333 -86.667 55.666 -138 84.999s-102.333 62 -153 98c-61.333 -9.33301 -113.166 -46.833 -155.499 -112.5s-63.5 -166.167 -63.5 -301.5z
M585.996 1339c0 -32.667 8.49805 -62.332 25.498 -88.999s39.833 -52.167 68.5 -76.5s61.834 -48.166 99.501 -71.499l117.5 -70c32.667 20.667 55.834 51.5 69.501 92.5s20.5 83.167 20.5 126.5c0 31.333 -3.33301 60.666 -10 87.999s-18.667 52 -36 74
s-40.333 39.167 -69 51.5s-64.667 18.5 -108 18.5c-23.333 0 -45.5 -2.5 -66.5 -7.5s-39.833 -12.833 -56.5 -23.5s-30 -25.334 -40 -44.001s-15 -41.667 -15 -69z" />
    <glyph glyph-name="nine" unicode="9" horiz-adv-x="1300" 
d="M0 860c0 143.333 22.1641 266.502 66.4971 369.502s107.166 187.333 188.499 253s179.666 114.167 294.999 145.5s244 47 386 47c20.667 0 51 -1 91 -3s80.167 -7.83301 120.5 -17.5s75.5 -23.334 105.5 -41.001s45 -42.834 45 -75.501c0 -22 -4.66699 -44.167 -14 -66.5
s-23.666 -33.5 -42.999 -33.5c-5.33301 0 -9.33301 0.666992 -12 2c-24.667 8 -48.334 19.5 -71.001 34.5s-46.167 29.333 -70.5 43s-50.5 25.667 -78.5 36s-60 15.5 -96 15.5c-86 0 -163 -15.667 -231 -47s-126 -73.666 -174 -126.999s-85 -115.833 -111 -187.5
s-39 -147.834 -39 -228.501c0 -34 3.5 -69.833 10.5 -107.5s18.667 -71.834 35 -102.501s38.166 -56.167 65.499 -76.5s61.333 -30.5 102 -30.5c64 0 117 15.667 159 47s77 71.166 105 119.499s50.833 101.5 68.5 159.5s33.167 113.667 46.5 167
c10.667 39.333 32.5 73.333 65.5 102s74.833 43 125.5 43c22 0 33 -8 33 -24c6.66699 -46.667 11.667 -95.834 15 -147.501s5 -106.167 5 -163.5c0 -80.667 -5.83301 -163 -17.5 -247s-30.167 -166 -55.5 -246s-57.666 -155.167 -96.999 -225.5
s-87.333 -131.666 -144 -183.999s-122 -94 -196 -125s-158 -46.5 -252 -46.5c-19.333 0 -32.666 8.66699 -39.999 26s-11 34 -11 50c0 16.667 14 30.5 42 41.5s62.833 24 104.5 39s86.334 34.333 134.001 58s91.334 56.334 131.001 98.001s71.834 94.334 96.501 158.001
s33.334 142.5 26.001 236.5l-4 64c-76.667 -84.667 -153.167 -141 -229.5 -169s-154.833 -42 -235.5 -42c-57.333 0 -112.833 9.83301 -166.5 29.5s-101 47.167 -142 82.5s-74.167 78.333 -99.5 129s-38 106.667 -38 168z" />
    <glyph glyph-name="colon" unicode=":" horiz-adv-x="446" 
d="M143 94c0 39.333 7.83301 71.334 23.5 96.001s47.5 37 95.5 37c28.667 0 51.5 -9.83301 68.5 -29.5s27.5 -52.167 31.5 -97.5c0 -28.667 -7.16699 -55.834 -21.5 -81.501s-43.833 -38.5 -88.5 -38.5c-39.333 0 -67.333 10.5 -84 31.5s-25 48.5 -25 82.5zM143 696.001
c0 39.333 7.83301 71.334 23.5 96.001s47.5 37 95.5 37c28.667 0 51.5 -9.83301 68.5 -29.5s27.5 -52.167 31.5 -97.5c0 -28.667 -7.16699 -55.834 -21.5 -81.501s-43.833 -38.5 -88.5 -38.5c-39.333 0 -67.333 10.5 -84 31.5s-25 48.5 -25 82.5z" />
    <glyph glyph-name="semicolon" unicode=";" horiz-adv-x="503" 
d="M61 -319c0 8 10.334 17.5 31.001 28.5s43 26 67 45s46.167 42.833 66.5 71.5s30.5 64 30.5 106c0 26 -5.83301 48.333 -17.5 67s-24.667 34.5 -39 47.5s-27.333 23.833 -39 32.5s-17.5 17 -17.5 25v9c-4 4 -6 10 -6 18s4.16699 17.833 12.5 29.5s19 23 32 34s27 21 42 30
s29.167 15.5 42.5 19.5c12 0 27.667 -6.5 47 -19.5s38.166 -30.167 56.499 -51.5s34 -45 47 -71s19.5 -51.667 19.5 -77c0 -53.333 -10.5 -103 -31.5 -149s-48.667 -86 -83 -120s-72 -60.833 -113 -80.5s-81.833 -29.5 -122.5 -29.5c-9.33301 0 -15.833 4.16699 -19.5 12.5
s-5.5 15.833 -5.5 22.5zM168.001 696c0 39.333 7.83105 71.334 23.498 96.001s47.5 37 95.5 37c28.667 0 51.5 -9.83301 68.5 -29.5s27.5 -52.167 31.5 -97.5c0 -28.667 -7.16699 -55.834 -21.5 -81.501s-44.166 -38.5 -89.499 -38.5c-39.333 0 -67.166 10.5 -83.499 31.5
s-24.5 48.5 -24.5 82.5z" />
    <glyph glyph-name="less" unicode="&#x3c;" horiz-adv-x="1054" 
d="M78 647c0 20.667 13.999 41.5049 41.999 62.5049s63.667 45.167 107 72.5l266.5 165l344.5 212c16.667 0 34.5 -3 53.5 -9s35.833 -17.333 50.5 -34c10.667 -9.33301 20.167 -21.5 28.5 -36.5s12.5 -30.833 12.5 -47.5v-4c0 -5.33301 -4.83301 -13.833 -14.5 -25.5
s-31.834 -30.834 -66.501 -57.501s-86.5 -63.5 -155.5 -110.5l-283.5 -187.5l218 -140l147.5 -98c39 -26.667 69.333 -48.334 91 -65.001s38 -29.667 49 -39s17.833 -16.5 20.5 -21.5s4 -9.5 4 -13.5c0 -16.667 -4 -32.334 -12 -47.001s-18.333 -27 -31 -37
c-13.333 -16.667 -29.666 -29.334 -48.999 -38.001s-37 -13 -53 -13l-29 15c-65.333 32.667 -125.666 65.667 -180.999 99s-106.5 65.666 -153.5 96.999l-131 88c-40.333 27.333 -78.833 51.333 -115.5 72c-56 31.333 -96.667 57.833 -122 79.5s-38 42.167 -38 61.5z" />
    <glyph glyph-name="equal" unicode="=" horiz-adv-x="1042" 
d="M53 397c0 22 5.16699 40.168 15.5 54.501s23.333 25.666 39 33.999s33 14.166 52 17.499s38.167 5 57.5 5h617c50.667 0 85.167 -13.333 103.5 -40s27.5 -56.334 27.5 -89.001c0 -35.333 -9.66699 -63.666 -29 -84.999s-53.333 -32 -102 -32h-617
c-57.333 0 -99 12.333 -125 37s-39 57.334 -39 98.001zM53 827.001c0 22 5.16699 40.168 15.5 54.501s23.333 25.666 39 33.999s33 14.166 52 17.499s38.167 5 57.5 5h617c50.667 0 85.167 -13.333 103.5 -40s27.5 -56.334 27.5 -89.001
c0 -35.333 -9.66699 -63.666 -29 -84.999s-53.333 -32 -102 -32h-617c-57.333 0 -99 12.333 -125 37s-39 57.334 -39 98.001z" />
    <glyph glyph-name="greater" unicode="&#x3e;" horiz-adv-x="1054" 
d="M76 270c1.33301 4 3 8.49707 5 13.4971s8.5 12.167 19.5 21.5s27.333 22.333 49 39s52 38.334 91 65.001l147.5 98l218 140l-283.5 187.5c-69 47 -120.833 83.833 -155.5 110.5s-56.834 45.834 -66.501 57.501s-14.5 20.167 -14.5 25.5v4
c0 16.667 4.16699 32.5 12.5 47.5s17.833 27.167 28.5 36.5c15.333 16.667 32.5 28 51.5 34s36.5 9 52.5 9l344.5 -212l266.5 -165c44 -27.333 79.833 -51.5 107.5 -72.5s41.5 -41.833 41.5 -62.5c0 -19.333 -12.667 -39.833 -38 -61.5s-66 -48.167 -122 -79.5
c-36.667 -20.667 -75.167 -44.667 -115.5 -72l-131 -88c-47 -31.333 -98.167 -63.666 -153.5 -96.999s-115.666 -66.333 -180.999 -99l-29 -15c-16.667 0 -34.5 4.5 -53.5 13.5s-35.167 21.5 -48.5 37.5c-12 9.33301 -22.167 21.5 -30.5 36.5s-12.5 30.833 -12.5 47.5z" />
    <glyph glyph-name="question" unicode="?" horiz-adv-x="1263" 
d="M-35 1231c0 69.333 17.832 132.002 53.499 188.002s81.167 103.833 136.5 143.5s116 70.167 182 91.5s129 32 189 32c80.667 0 162.667 -11 246 -33s158.833 -55.167 226.5 -99.5s123 -99.666 166 -165.999s64.5 -143.833 64.5 -232.5c0 -78 -20.5 -144.667 -61.5 -200
s-92.167 -103 -153.5 -143s-127.5 -74.333 -198.5 -103l-199 -80c-61.667 -24.667 -113 -49.334 -154 -74.001s-61.5 -53.334 -61.5 -86.001c0 -12 10.667 -21.5 32 -28.5s56.666 -10.5 105.999 -10.5c8 0 14.333 -7.83301 19 -23.5s7 -33.167 7 -52.5
c0 -18 -2 -33.333 -6 -46s-11.333 -19 -22 -19c-54.667 0 -98.167 4.33301 -130.5 13s-56.666 19.834 -72.999 33.501s-26.833 29.167 -31.5 46.5s-7 34 -7 50c0 75.333 15 136.166 45 182.499s67.833 85.5 113.5 117.5s94.834 61.333 147.501 88s101.834 57.5 147.501 92.5
s83.5 78.333 113.5 130s45 119.167 45 202.5c0 53.333 -9.16699 100.166 -27.5 140.499s-43.5 73.833 -75.5 100.5s-69.5 46.834 -112.5 60.501s-88.5 20.5 -136.5 20.5c-58.667 0 -113.334 -8.5 -164.001 -25.5s-94.334 -42 -131.001 -75s-65.667 -73 -87 -120
s-32 -99.833 -32 -158.5c0 -20.667 2.5 -42.667 7.5 -66s12.833 -44.5 23.5 -63.5s25.334 -34.667 44.001 -47s41.667 -18.5 69 -18.5l84 19c22 0 37.333 -7.5 46 -22.5s13 -30.167 13 -45.5c0 -19.333 -4.5 -36.833 -13.5 -52.5s-20.333 -28.834 -34 -39.501
s-29 -19.167 -46 -25.5s-33.5 -9.5 -49.5 -9.5c-48 0 -91.833 13.333 -131.5 40s-73.5 60.5 -101.5 101.5s-49.5 85.667 -64.5 134s-22.5 94.5 -22.5 138.5zM325.999 94.002c0 39.333 7.83105 71.334 23.498 96.001s47.167 37 94.5 37c28.667 0 51.667 -9.83301 69 -29.5
s28 -52.167 32 -97.5c0 -28.667 -7.16699 -55.834 -21.5 -81.501s-44.166 -38.5 -89.499 -38.5c-39.333 0 -67.166 10.5 -83.499 31.5s-24.5 48.5 -24.5 82.5z" />
    <glyph glyph-name="at" unicode="@" horiz-adv-x="1667" 
d="M68 377c0 122.667 21.1621 241.333 63.4951 356s101.333 216 177 304s166 158.667 271 212s219.833 80 344.5 80c109.333 0 206.166 -15.333 290.499 -46s155.666 -74.667 213.999 -132s102.5 -127 132.5 -209s45 -174 45 -276c0 -106.667 -14.333 -202.667 -43 -288
s-68 -157.333 -118 -216s-108.167 -103.667 -174.5 -135s-136.166 -47 -209.499 -47c-26 0 -47.167 10.833 -63.5 32.5s-26.5 42.167 -30.5 61.5c-23.333 -23.333 -52.166 -43.5 -86.499 -60.5s-71.833 -25.5 -112.5 -25.5c-46.667 0 -87 9.83301 -121 29.5
s-62.333 44.834 -85 75.501s-39.334 65.167 -50.001 103.5s-16 76.5 -16 114.5c9.33301 86 27.333 166 54 240s62.834 138.167 108.501 192.5s101.334 97.666 167.001 129.999s141.5 49.166 227.5 50.499c12 0 22.833 2 32.5 6s19.5 8.33301 29.5 13s21.5 9.16699 34.5 13.5
s28.5 6.5 46.5 6.5c10.667 0 23.167 -0.333008 37.5 -1s28 -3.16699 41 -7.5s24.333 -10.5 34 -18.5s14.5 -20.333 14.5 -37l-47.5 -331l-54.5 -392c0 -2.66699 0.666992 -4 2 -4c36.667 0 72 12.333 106 37s63.667 58.167 89 100.5s45.833 92.166 61.5 149.499
s23.5 119.333 23.5 186c0 69.333 -9.5 135.833 -28.5 199.5s-48 119.667 -87 168s-87.833 86.833 -146.5 115.5s-128.334 43 -209.001 43c-72.667 0 -139.667 -13.167 -201 -39.5s-116.166 -62.166 -164.499 -107.499s-91 -97.666 -128 -156.999s-67.667 -121.333 -92 -186
s-42.666 -130.5 -54.999 -197.5s-18.5 -131.167 -18.5 -192.5c0 -142 32.333 -265.333 97 -370s169.334 -185.667 314.001 -243c-2.66699 -23.333 -9 -41 -19 -53s-22.167 -21.167 -36.5 -27.5s-28.666 -9.83301 -42.999 -10.5s-27.166 -1 -38.499 -1
c-94 0 -177.167 24.333 -249.5 73s-132.833 111.167 -181.5 187.5s-85.5 161.333 -110.5 255s-37.5 185.5 -37.5 275.5zM790.995 366.999c0 -28.667 1.66895 -57.3311 5.00195 -85.998s9.66602 -54.334 18.999 -77.001s22.666 -41.167 39.999 -55.5
s39.666 -21.5 66.999 -21.5c15.333 0 26 4.16699 32 12.5s11.667 19.833 17 34.5l26 246l14.5 142c5.66699 56.667 13.167 136.334 22.5 239.001v2c0 10.667 -7.5 16.667 -22.5 18s-27.833 2 -38.5 2c-34 0 -61.667 -10.167 -83 -30.5s-38.166 -46.833 -50.499 -79.5
s-21.5 -68.834 -27.5 -108.501s-11 -78.834 -15 -117.501c-4 -33.333 -6 -73.333 -6 -120z" />
    <glyph glyph-name="A" unicode="A" horiz-adv-x="1531" 
d="M104 446c0 100 14.8408 196.832 44.5078 290.499s70.334 181.334 122.001 263.001s113.334 156.334 185.001 224.001s149.5 126.167 233.5 175.5s172.833 87.166 266.5 113.499s188.834 39.5 285.501 39.5c19.333 0 44.666 -0.666992 75.999 -2s65.166 -4 101.499 -8
s73.166 -10.167 110.499 -18.5s71 -19.333 101 -33s54.667 -30.667 74 -51s29 -44.833 29 -73.5c0 -13.333 -1.83301 -28.333 -5.5 -45s-8.5 -31.5 -14.5 -44.5s-13.833 -23.833 -23.5 -32.5s-20.5 -13 -32.5 -13c-8 0 -14.333 0.666992 -19 2
c-32.667 12 -64.667 27.667 -96 47l-97 57.5c-33.333 19 -68.833 35.333 -106.5 49s-80.5 20.5 -128.5 20.5c-116 0 -220.333 -21.167 -313 -63.5s-171.5 -99.666 -236.5 -171.999s-114.833 -157.333 -149.5 -255s-52 -201.167 -52 -310.5
c0 -46.667 4.33301 -95.167 13 -145.5s24.334 -96.666 47.001 -138.999s52.5 -77.166 89.5 -104.499s82.5 -41 136.5 -41c38 0 74.167 9.16699 108.5 27.5s65.166 41.833 92.499 70.5s50.166 60.167 68.499 94.5s29.833 66.5 34.5 96.5l13 83
c6 38.667 13.833 79.834 23.5 123.501s19.5 85 29.5 124s19.333 66.167 28 81.5c6.66699 23.333 18.167 45.166 34.5 65.499s36.166 38 59.499 53s48.666 26.833 75.999 35.5s54.666 13 81.999 13c12 0 22.5 -3 31.5 -9s12.833 -13.667 11.5 -23l-35 -406v-65
c0 -19.333 0.666992 -39.5 2 -60.5s3.66602 -45.5 6.99902 -73.5s8.5 -60.833 15.5 -98.5s15.833 -81.834 26.5 -132.501v-43c0 -20.667 -7.83301 -40.167 -23.5 -58.5s-35.167 -34.333 -58.5 -48s-48.333 -24.5 -75 -32.5s-50.667 -12 -72 -12
c-27.333 0 -48.833 6.83301 -64.5 20.5s-28 30 -37 49s-15.833 40.167 -20.5 63.5s-11.334 43.666 -20.001 60.999c-38 -35.333 -75.833 -68.333 -113.5 -99s-76.834 -57.334 -117.501 -80.001s-84.334 -40.5 -131.001 -53.5s-98 -19.5 -154 -19.5
c-78 0 -146 13.667 -204 41s-106 65 -144 113s-66.667 103.667 -86 167s-29 130.333 -29 201z" />
    <glyph glyph-name="B" unicode="B" horiz-adv-x="1939" 
d="M104 582c0 151.333 25.0029 293.834 75.0029 427.501s120.667 250.667 212 351s202 179.666 332 237.999s274.667 87.5 434 87.5c100 0 198 -13 294 -39s182.333 -65.333 259 -118s138.5 -119.334 185.5 -200.001s70.5 -175.667 70.5 -285c0 -52 -7.5 -99 -22.5 -141
s-35.167 -80.833 -60.5 -116.5s-54 -68.834 -86 -99.501l-99 -91l-17 -14c34 -42 56.167 -82.667 66.5 -122s15.5 -80 15.5 -122c0 -53.333 -8.83301 -101.833 -26.5 -145.5s-42.834 -81.167 -75.501 -112.5s-71.5 -55.5 -116.5 -72.5s-94.833 -25.5 -149.5 -25.5
c-23.333 0 -47 2.33301 -71 7s-45.167 12.834 -63.5 24.501s-33.333 26.667 -45 45s-17.5 41.166 -17.5 68.499v17c0 7.33301 1 14.833 3 22.5s4.66699 14.334 8 20.001s8.66602 8.5 15.999 8.5c22 -22 41.833 -34.667 59.5 -38s37.167 -5 58.5 -5c48 0 85 17 111 51
s39 79 39 135c0 28.667 -4.5 54.334 -13.5 77.001s-20.667 43.5 -35 62.5s-30.333 36.667 -48 53l-53.5 51.5c40.667 35.333 77.834 69.666 111.501 102.999s62.834 68.5 87.501 105.5s43.834 77.333 57.501 121s20.5 93.5 20.5 149.5c0 78 -13.333 146.667 -40 206
s-63.834 109.5 -111.501 150.5s-104.334 71.667 -170.001 92s-137.5 30.5 -215.5 30.5c-120 0 -229.833 -26 -329.5 -78s-185 -120.333 -256 -205s-126.333 -180.834 -166 -288.501s-59.5 -217.5 -59.5 -329.5c0 -56 6.5 -117.5 19.5 -184.5s34.5 -129.167 64.5 -186.5
s70 -105 120 -143s112 -57 186 -57c57.333 0 105 16.667 143 50s68.333 74.5 91 123.5s38.667 101.167 48 156.5s14 105 14 149c0 110.667 -9.83301 213.334 -29.5 308.001s-46.5 191.334 -80.5 290.001v18c0 24.667 9.16699 47.667 27.5 69s40.166 39.166 65.499 53.499
s51.333 25.5 78 33.5s48 12 64 12c34 0 63 -17 87 -51s43.833 -76.667 59.5 -128s27.667 -107.333 36 -168s14.5 -117.667 18.5 -171s6.33301 -99.5 7 -138.5s1 -61.833 1 -68.5c0 -98 -19.667 -187.333 -59 -268s-90.833 -149.667 -154.5 -207
s-135.834 -101.666 -216.501 -132.999s-162 -47 -244 -47c-66.667 0 -131 11.5 -193 34.5s-117 59.833 -165 110.5s-86 116 -114 196s-42 176.667 -42 290z" />
    <glyph glyph-name="C" unicode="C" horiz-adv-x="1419" 
d="M104 709c0 140.667 30.5 270.668 91.5 390.001s141.667 222.333 242 309s214.666 154.667 342.999 204s259.5 74 393.5 74c106.667 0 206.667 -18.833 300 -56.5s176.666 -102.834 249.999 -195.501c9.33301 -22 14.333 -39.333 15 -52c0 -26 -9.33301 -51.167 -28 -75.5
s-43 -36.5 -73 -36.5c-72.667 84.667 -147.167 146.834 -223.5 186.501s-166.833 59.5 -271.5 59.5c-105.333 0 -198.666 -20.5 -279.999 -61.5s-149.166 -95.667 -203.499 -164s-95.5 -147.166 -123.5 -236.499s-42 -182.666 -42 -279.999c0 -69.333 6 -140.5 18 -213.5
s33.833 -140 65.5 -201s74.667 -110.833 129 -149.5s123.833 -58 208.5 -58c42 0 82.333 7.16699 121 21.5s72.667 34 102 59s52.833 55.333 70.5 91s26.5 74.5 26.5 116.5v39c0 9.33301 2.66699 15.833 8 19.5s19 5.5 41 5.5c18 0 32.333 -3.83301 43 -11.5
s19.167 -17.334 25.5 -29.001s10.5 -25 12.5 -40s3 -29.833 3 -44.5c0 -69.333 -16.667 -130.333 -50 -183s-76.333 -96.834 -129 -132.501s-111.5 -62.334 -176.5 -80.001s-129.5 -26.5 -193.5 -26.5c-106.667 0 -204 20.5 -292 61.5s-163.333 96.333 -226 166
s-111.167 150 -145.5 241s-51.5 185.5 -51.5 283.5z" />
    <glyph glyph-name="D" unicode="D" horiz-adv-x="2220" 
d="M104 596c0 146 30.8281 280.498 92.4951 403.498s143.334 229.167 245.001 318.5s218 159 349 209s266.833 75 407.5 75c116 0 231 -18.167 345 -54.5s216.5 -90 307.5 -161s164.333 -158.333 220 -262s83.5 -223.167 83.5 -358.5c0 -102.667 -18.333 -200.667 -55 -294
s-88.167 -175.5 -154.5 -246.5s-144.833 -127.333 -235.5 -169s-190 -62.5 -298 -62.5c-27.333 0 -57.666 1.33301 -90.999 4s-64.333 9.5 -93 20.5s-53 28 -73 51s-30 55.833 -30 98.5c0 22 6.5 44.5 19.5 67.5s40.167 34.5 81.5 34.5
c10.667 -26 21.167 -47.833 31.5 -65.5s22.333 -32.334 36 -44.001s30 -20.167 49 -25.5s42.167 -8 69.5 -8c78 0 141.5 20.5 190.5 61.5s87.5 92.5 115.5 154.5s46.833 129.5 56.5 202.5s14.5 141.167 14.5 204.5c0 224 -58.333 398 -175 522s-293.334 186 -530.001 186
c-120 0 -230.167 -23.5 -330.5 -70.5s-186.333 -109.833 -258 -188.5s-127.667 -170.167 -168 -274.5s-60.5 -213.833 -60.5 -328.5c0 -60 5.16699 -119.667 15.5 -179s29.166 -112.333 56.499 -159s64.833 -84.334 112.5 -113.001s109.834 -43 186.501 -43
c50.667 0 94.334 12.333 131.001 37s67.334 57.5 92.001 98.5s42.834 88.167 54.501 141.5s17.5 109.333 17.5 168c0 46.667 -3.83301 93.5 -11.5 140.5s-17.5 92.833 -29.5 137.5c0 2.66699 -2.33301 10.834 -7 24.501s-9.5 30.5 -14.5 50.5s-9.83301 40.5 -14.5 61.5
s-7 39.833 -7 56.5c0 26 8.5 53.333 25.5 82s38.833 55.334 65.5 80.001s56.334 44.834 89.001 60.501s64.667 23.5 96 23.5c35.333 0 63 -14.333 83 -43s34.5 -64.5 43.5 -107.5s14.167 -89.5 15.5 -139.5s2 -96 2 -138c0 -95.333 -12 -193.666 -36 -294.999
s-61.667 -194 -113 -278s-116.5 -153 -195.5 -207s-174.5 -81 -286.5 -81c-86 0 -162.167 18.167 -228.5 54.5s-122 83.5 -167 141.5s-79.167 124.167 -102.5 198.5s-35 149.833 -35 226.5z" />
    <glyph glyph-name="E" unicode="E" horiz-adv-x="1269" 
d="M43 647c0 57.333 8.83398 110.333 26.501 159s40.167 92 67.5 130s56.333 71.667 87 101s59.334 54.333 86.001 75s48.167 36.834 64.5 48.501s23.833 18.834 22.5 21.501c-12 32.667 -20.333 62 -25 88s-7 52 -7 78c0 57.333 10.833 103.333 32.5 138
s49.5 61.834 83.5 81.501s71.833 32.667 113.5 39s82.5 9.5 122.5 9.5c45.333 0 96.166 -8.16699 152.499 -24.5s109.5 -39.833 159.5 -70.5s92 -68.334 126 -113.001s51 -95.667 51 -153c0 -16.667 -2 -30.667 -6 -42s-10.667 -17 -20 -17c-31.333 0 -56.666 14 -75.999 42
s-39.166 59 -59.499 93s-44.833 65 -73.5 93s-67.667 42 -117 42c-42 0 -80.833 -15.333 -116.5 -46s-53.5 -72 -53.5 -124c0 -28.667 6.16699 -55.834 18.5 -81.501s25.5 -50.5 39.5 -74.5l40 -67c12 -20.667 18.333 -40.334 19 -59.001c0 -13.333 -9.66699 -26 -29 -38
s-43.333 -25.167 -72 -39.5s-59.667 -31 -93 -50s-64.333 -43.167 -93 -72.5s-52.5 -64.833 -71.5 -106.5s-28.5 -92.5 -28.5 -152.5c0 -66.667 12.5 -127 37.5 -181s58.667 -99.833 101 -137.5s91.166 -66.667 146.499 -87s112.333 -30.5 171 -30.5
c64 0 120.667 11.833 170 35.5s93.5 49.5 132.5 77.5s72.833 54 101.5 78s54 36 76 36c10.667 0 20.5 -3 29.5 -9s16.833 -13.833 23.5 -23.5s12 -19 16 -28s6 -16.833 6 -23.5c0 -40.667 -10.833 -75.667 -32.5 -105s-49.667 -54 -84 -74s-73 -36.167 -116 -48.5
s-85.667 -21.5 -128 -27.5s-81.833 -10 -118.5 -12s-67.334 -3 -92.001 -3c-88.667 0 -180.834 14.333 -276.501 43s-183 71 -262 127s-144.167 124.5 -195.5 205.5s-77 174.167 -77 279.5z" />
    <glyph glyph-name="F" unicode="F" horiz-adv-x="1409" 
d="M-14 1313c0 74 18.6621 137.5 55.9951 190.5s84.666 96.667 141.999 131s120.166 59.666 188.499 75.999s133.166 24.5 194.499 24.5c100 0 195 -14 285 -42s179 -59.167 267 -93.5s177.167 -66.166 267.5 -95.499s184.5 -44.666 282.5 -45.999
c40.667 0 78.167 4.83301 112.5 14.5s65.166 20.334 92.499 32.001l74.5 32.5c22.333 10 41.833 15 58.5 15c18 0 35.5 -4.33301 52.5 -13s25.5 -27.334 25.5 -56.001c0 -42 -18.167 -75.333 -54.5 -100s-79.333 -43.167 -129 -55.5s-100.167 -20.333 -151.5 -24
s-91.333 -5.5 -120 -5.5c-46.667 0 -91 3.83301 -133 11.5s-83.833 16.334 -125.5 26.001s-84 18.167 -127 25.5s-89.167 11 -138.5 11c-13.333 -45.333 -22.166 -89.666 -26.499 -132.999s-6.5 -88.333 -6.5 -135c0 -36.667 0.666992 -71.167 2 -103.5
s7 -59.166 17 -80.499c19.333 0 40.833 -0.333008 64.5 -1s47.834 -2.16699 72.501 -4.5s47.167 -5.83301 67.5 -10.5s35.833 -11 46.5 -19c12 -8 22.167 -16.5 30.5 -25.5s12.5 -16.833 12.5 -23.5c0 -22 -17 -42.667 -51 -62l-213 -14
c6.66699 -23.333 12.167 -47.666 16.5 -72.999s7.83301 -49.833 10.5 -73.5s4.66699 -45.167 6 -64.5s2 -34.333 2 -45c0 -64 -10.167 -131.167 -30.5 -201.5s-49.666 -134.5 -87.999 -192.5s-84.833 -106.167 -139.5 -144.5s-116.667 -57.5 -186 -57.5
c-19.333 0 -37.5 2.33301 -54.5 7s-25.5 21.334 -25.5 50.001v17c32.667 23.333 61.667 45.166 87 65.499s46.833 42 64.5 65s31.334 48.833 41.001 77.5s14.5 63.667 14.5 105c0 23.333 -0.333008 43.5 -1 60.5s-3.16699 39.5 -7.5 67.5s-10.5 64.5 -18.5 109.5
s-19.667 106.5 -35 184.5h-372c-5.33301 0 -9.83301 4 -13.5 12s-6.5 17.5 -8.5 28.5s-3 22.5 -3 34.5v25c0 16.667 4.83301 31.5 14.5 44.5s21.667 23.833 36 32.5s30 15.167 47 19.5s32.833 6.5 47.5 6.5h228l8 6c0 52 3.33301 99.5 10 142.5s16.834 84.167 30.501 123.5
s29.834 77.833 48.501 115.5s39.334 76.167 62.001 115.5c-5.33301 5.33301 -29.166 12.5 -71.499 21.5s-99.5 13.5 -171.5 13.5c-34 0 -69.5 -1.33301 -106.5 -4s-75.167 -7.33398 -114.5 -14.001c-42 -6.66699 -85.333 -23.334 -130 -50.001
s-86.167 -54.334 -124.5 -83.001s-70.166 -54.334 -95.499 -77.001s-40 -34 -44 -34c-13.333 0 -24.5 4.16699 -33.5 12.5s-16.167 18.166 -21.5 29.499s-9 24 -11 38s-3 26.333 -3 37z" />
    <glyph glyph-name="G" unicode="G" horiz-adv-x="1433" 
d="M104 528c0 118.667 18.8359 233.331 56.5029 343.998s89.334 214.5 155.001 311.5s143.5 185.5 233.5 265.5s187.5 149 292.5 207s215.333 102.667 331 134s232.167 47 349.5 47h127c56 0 84 -28 84 -84c0 -9.33301 -5.83301 -22.166 -17.5 -38.499
s-25.834 -25.833 -42.501 -28.5h-127c-92.667 0 -185.5 -10.667 -278.5 -32s-181.833 -52.166 -266.5 -92.499s-163.834 -89.5 -237.501 -147.5s-137.334 -124.167 -191.001 -198.5s-96 -156.166 -127 -245.499s-46.5 -186 -46.5 -290c0 -44 4.16699 -90.5 12.5 -139.5
s22.666 -94 42.999 -135s48 -75.167 83 -102.5s79.167 -41 132.5 -41c57.333 0 107.5 10 150.5 30s79.833 46.333 110.5 79s55.834 70.5 75.501 113.5s35.334 87 47.001 132s19.5 90 23.5 135s6 86.833 6 125.5c0 66.667 3.16699 124.167 9.5 172.5
s17.666 87.833 33.999 118.5s38.5 53.167 66.5 67.5s63.667 21.5 107 21.5c8 0 19 -1 33 -3s21 -9.66699 21 -23v-727c0 -52 0.333008 -97.833 1 -137.5s1.66699 -76.5 3 -110.5s2.33301 -67.5 3 -100.5s1 -68.5 1 -106.5c0 -45.333 -8.16699 -99 -24.5 -161
s-38.833 -121 -67.5 -177s-62.5 -103.333 -101.5 -142s-81.833 -58 -128.5 -58c-26 0 -45 2.33301 -57 7s-18 22.667 -18 54v14c38 35.333 67.167 71.833 87.5 109.5s30.5 85.167 30.5 142.5v565l-104 -151.5c-35.333 -49 -73.833 -92.667 -115.5 -131s-88.5 -69 -140.5 -92
s-112 -34.5 -180 -34.5c-78 0 -145 15 -201 45s-101.333 69.5 -136 118.5s-60.334 105.667 -77.001 170s-25 131.166 -25 200.499z" />
    <glyph glyph-name="H" unicode="H" horiz-adv-x="1726" 
d="M20 1069c0 78 10.998 161.998 32.998 251.998s55.167 173.333 99.5 250s100 140.167 167 190.5s144.833 75.5 233.5 75.5c78 0 146 -17.667 204 -53s108.167 -81 150.5 -137s76.833 -118.167 103.5 -186.5s47.334 -136.166 62.001 -203.499
c4 -18 9.83301 -47.333 17.5 -88s15.167 -83.5 22.5 -128.5s13.833 -88 19.5 -129s8.5 -69.833 8.5 -86.5c8 -8 20.5 -13.667 37.5 -17s29.833 -5 38.5 -5c2.66699 121.333 8 228.5 16 321.5s17.833 176.333 29.5 250s25.334 140.834 41.001 201.501
s31.834 119.667 48.501 177c4 16.667 11.833 41.334 23.5 74.001s26.334 65.334 44.001 98.001s37.667 61.334 60 86.001s47.166 37 74.499 37c9.33301 0 21.666 -1 36.999 -3s23 -9.33301 23 -22c-31.333 -74 -56.666 -147.667 -75.999 -221s-34 -154.5 -44 -243.5
s-16.5 -189.833 -19.5 -302.5s-4.5 -244.667 -4.5 -396c0 -44 1.83301 -71.667 5.5 -83s7.5 -17 11.5 -17c10.667 1.33301 21.5 2.33301 32.5 3s21.833 1 32.5 1c19.333 0 35.833 -5.5 49.5 -16.5s20.5 -35.5 20.5 -73.5c0 -36.667 -3.83301 -60.834 -11.5 -72.501
s-22.167 -17.5 -43.5 -17.5c-10.667 -1.33301 -22.334 -2.66602 -35.001 -3.99902s-19 -3.66602 -19 -6.99902c4 -23.333 9.5 -53.333 16.5 -90s17.333 -75.167 31 -115.5s31.5 -80 53.5 -119s50 -71.167 84 -96.5c0 -26 -8.16699 -53.333 -24.5 -82s-36.833 -55 -61.5 -79
s-51.667 -43.833 -81 -59.5s-57.666 -23.5 -84.999 -23.5c-24.667 0 -47.5 15 -68.5 45s-39.833 68.5 -56.5 115.5s-30.667 98.5 -42 154.5s-20.833 109.667 -28.5 161s-13.5 97.5 -17.5 138.5s-6 68.833 -6 83.5c-5.33301 1.33301 -11.666 2.66602 -18.999 3.99902
c-6.66699 1.33301 -14 2.33301 -22 3s-17.667 1 -29 1l-24 -319c-2.66699 -42 -9.5 -90.333 -20.5 -145s-27.833 -106 -50.5 -154s-52.334 -88.667 -89.001 -122s-84 -50 -142 -50c-16.667 0 -35.834 0.333008 -57.501 1s-42.334 3.66699 -62.001 9s-36 13.833 -49 25.5
s-19.5 27.834 -19.5 48.501v16c61.333 105.333 110.833 223.5 148.5 354.5s56.5 270.833 56.5 419.5l-81 45c-33.333 18 -66 38.333 -98 61s-59.333 47.334 -82 74.001s-34 55 -34 85c0 22 6.5 43.833 19.5 65.5s34.5 32.5 64.5 32.5c16.667 0 33.834 -4.83301 51.501 -14.5
s34.667 -20.667 51 -33s32.333 -23.5 48 -33.5s30.167 -15.667 43.5 -17v81c0 35.333 -2 75.333 -6 120s-11.167 90.167 -21.5 136.5s-23.666 91.333 -39.999 135s-37 82.667 -62 117s-54.667 62 -89 83s-73.833 31.5 -118.5 31.5c-62.667 0 -115.667 -20.167 -159 -60.5
s-78.333 -89.5 -105 -147.5s-45.334 -118.667 -56.001 -182s-16 -118.333 -16 -165c0 -35.333 4.33301 -78.333 13 -129s23.334 -98.834 44.001 -144.501s47.334 -84.5 80.001 -116.5s73 -48 121 -48c19.333 0 38.166 4 56.499 12s33.5 12 45.5 12
c30 0 50.167 -9.5 60.5 -28.5s15.5 -37.5 15.5 -55.5c0 -31.333 -4.5 -55.833 -13.5 -73.5s-21.333 -31.334 -37 -41.001s-34.334 -15.5 -56.001 -17.5s-45.5 -3 -71.5 -3c-74 0 -136.167 20.167 -186.5 60.5s-91 90.166 -122 149.499s-53.333 123.166 -67 191.499
s-20.5 131.166 -20.5 188.499z" />
    <glyph glyph-name="I" unicode="I" horiz-adv-x="1005" 
d="M59 817c0 48 5.16602 105.496 15.499 172.496s26.166 136.667 47.499 209s48.333 144 81 215s70.834 134.833 114.501 191.5s93.167 102.334 148.5 137.001s116.333 52 183 52c40.667 0 76.167 -20.167 106.5 -60.5s56.333 -91.833 78 -154.5s39 -132 52 -208
s23.667 -149.5 32 -220.5s13.833 -134.833 16.5 -191.5s4 -97.667 4 -123c0 -98 -4.83301 -194.167 -14.5 -288.5s-27.5 -184.666 -53.5 -270.999s-62.167 -167.666 -108.5 -243.999s-106.166 -145.833 -179.499 -208.5c-8 -5.33301 -15.667 -10 -23 -14
c-6.66699 -2.66699 -13.167 -5.5 -19.5 -8.5s-12.166 -4.5 -17.499 -4.5c-15.333 0 -30.333 6.16699 -45 18.5s-22 29.5 -22 51.5c0 2.66699 0.333008 7.83398 1 15.501s4.33398 12.834 11.001 15.501c70.667 168 119.667 328 147 480s41 286 41 402c0 56 -2 104.667 -6 146
c-4 23.333 -7.66699 50.666 -11 81.999s-7.5 64 -12.5 98s-11.833 67.333 -20.5 100s-20.5 62 -35.5 88s-34.167 47.167 -57.5 63.5s-52.666 24.5 -87.999 24.5c-31.333 0 -59 -10.5 -83 -31.5s-44.833 -48.167 -62.5 -81.5s-32.667 -70.833 -45 -112.5
s-21.833 -82.667 -28.5 -123s-11.834 -78 -15.501 -113s-5.5 -63.167 -5.5 -84.5c0 -68 10.667 -128.5 32 -181.5s53 -108.167 95 -165.5c8 -10.667 20.667 -19.667 38 -27s34.833 -15.166 52.5 -23.499s33 -18.333 46 -30s19.5 -27.167 19.5 -46.5
c0 -34 -14.667 -56.833 -44 -68.5s-63 -17.5 -101 -17.5c-53.333 0 -96.833 20.167 -130.5 60.5s-60.334 89.166 -80.001 146.499s-33.334 116.833 -41.001 178.5s-11.5 113.5 -11.5 155.5z" />
    <glyph glyph-name="J" unicode="J" horiz-adv-x="1318" 
d="M104 49c0 86 16.8291 166.499 50.4961 241.499s76 144.333 127 208s108 121.5 171 173.5s123.833 96.667 182.5 134s111.834 68.333 159.501 93s81.834 41.667 102.501 51c2.66699 4 6.66699 7.66699 12 11c2.66699 1.33301 4.66699 2 6 2c-4 35.333 -10 78.5 -18 129.5
s-20.167 100.5 -36.5 148.5s-38.5 89 -66.5 123s-64 51 -108 51c-23.333 0 -42.5 -7.83301 -57.5 -23.5s-27.167 -33.667 -36.5 -54s-15.833 -40.833 -19.5 -61.5s-5.5 -35.667 -5.5 -45c0 -24.667 5.5 -48.667 16.5 -72s22.667 -45.166 35 -65.499l35 -57
c11 -17.667 16.5 -34.167 16.5 -49.5s-4.16699 -29.333 -12.5 -42s-19 -23.5 -32 -32.5s-27 -15.833 -42 -20.5s-28.5 -7 -40.5 -7c-20.667 0 -38.5 8.5 -53.5 25.5s-27.333 37.5 -37 61.5s-16.5 48.167 -20.5 72.5s-6 44.166 -6 59.499c0 66.667 8.5 128.667 25.5 186
s40.5 111.333 70.5 162s66.5 98.834 109.5 144.501s89.833 91.167 140.5 136.5c20.667 19.333 41.5 34.333 62.5 45s41.833 16 62.5 16c49.333 0 91.333 -12.667 126 -38s64 -58.833 88 -100.5s43.833 -90.167 59.5 -145.5s28 -112.666 37 -171.999s15.5 -119 19.5 -179
s7.33301 -116.667 10 -170c1.33301 -22 2.33301 -44.167 3 -66.5s1 -45.833 1 -70.5c0 -84.667 -5.5 -175.5 -16.5 -272.5s-28.333 -193.667 -52 -290s-54.667 -188.833 -93 -277.5s-84.833 -167.167 -139.5 -235.5s-118.5 -122.5 -191.5 -162.5s-155.833 -60 -248.5 -60
c-64 0 -120.667 14 -170 42s-90.666 65.167 -123.999 111.5s-58.666 99.166 -75.999 158.499s-26 120.333 -26 183zM323.996 -35.001c0 -28.667 5.99707 -59.668 17.9971 -93.001s28.333 -64.333 49 -93s44.667 -52.167 72 -70.5s56.666 -27.5 87.999 -27.5
c72.667 0 133.5 27.5 182.5 82.5s88.833 125.167 119.5 210.5s52.834 179 66.501 281s20.5 199.333 20.5 292c0 46.667 -1.66699 93.167 -5 139.5s-7.66602 89.833 -12.999 130.5c-40.667 0 -83.667 -14 -129 -42s-90.166 -65.5 -134.499 -112.5
s-86.666 -100.167 -126.999 -159.5s-75.833 -120.833 -106.5 -184.5s-55.167 -126.167 -73.5 -187.5s-27.5 -116.666 -27.5 -165.999z" />
    <glyph glyph-name="K" unicode="K" horiz-adv-x="2078" 
d="M104 1130c0 84.667 14.3301 168.005 42.9971 250.005s69.334 155.5 122.001 220.5s116.5 117.667 191.5 158s159.167 60.5 252.5 60.5c96.667 0 180.5 -25 251.5 -75s130.833 -113.5 179.5 -190.5s86.5 -161.333 113.5 -253s44.833 -179.834 53.5 -264.501
c32.667 38 65 84 97 138s63.667 111.167 95 171.5l93 180.5c30.667 60 62.667 115.333 96 166c16.667 26 38.167 45.333 64.5 58s54.5 19 84.5 19c24.667 0 46.167 -4.33301 64.5 -13s27.5 -24 27.5 -46c0 -44 -15.667 -89.167 -47 -135.5s-66.166 -92.333 -104.499 -138
s-73.166 -90 -104.499 -133s-47 -84.167 -47 -123.5v-25c0 -62.667 5.5 -124 16.5 -184s28.167 -121.833 51.5 -185.5s52.666 -131.334 87.999 -203.001s78.333 -151.167 129 -238.5c9.33301 -12 21.166 -22.5 35.499 -31.5l42 -27c13.667 -9 25.334 -17.833 35.001 -26.5
s14.5 -19.334 14.5 -32.001c0 -27.333 -8.5 -54.333 -25.5 -81s-37.833 -50.167 -62.5 -70.5s-50.667 -37 -78 -50s-50.666 -19.5 -69.999 -19.5c-44 0 -83.333 15.667 -118 47s-66 69.166 -94 113.499s-52.167 90.166 -72.5 137.499s-38.166 86.666 -53.499 117.999
l-133 414c-13.333 -116 -31.333 -229.333 -54 -340s-49.667 -209.667 -81 -297s-67.166 -157.666 -107.499 -210.999s-85.166 -80 -134.499 -80c-22 0 -45.167 5.5 -69.5 16.5s-47.166 25.667 -68.499 44s-39.166 39.166 -53.499 62.499s-21.5 47 -21.5 71
c0 31.333 5.16699 59.666 15.5 84.999s23 49.333 38 72l47 68.5c16.333 23 31.5 48.167 45.5 75.5c34 90 60.167 179.833 78.5 269.5s27.5 182.167 27.5 277.5c0 39.333 -2 83.333 -6 132s-11.5 98.334 -22.5 149.001s-25.333 99.5 -43 146.5s-40.834 89 -69.501 126
s-62.5 66.667 -101.5 89s-84.5 33.5 -136.5 33.5c-54.667 0 -104.834 -12.333 -150.501 -37s-84.834 -56.667 -117.501 -96s-57.834 -83.666 -75.501 -132.999s-26.5 -98 -26.5 -146c0 -52 6.83301 -108.333 20.5 -169s34.5 -116.5 62.5 -167.5s63.167 -93.667 105.5 -128
s92.166 -51.5 149.499 -51.5c19.333 0 36 2.5 50 7.5l39 14.5l35 14c11.333 4.66699 23 7 35 7c9.33301 0 15.833 -2 19.5 -6s5.5 -12.667 5.5 -26c0 -19.333 -5.5 -42.666 -16.5 -69.999s-25.667 -53.333 -44 -78s-39.833 -45.834 -64.5 -63.501s-50.667 -26.5 -78 -26.5
c-79.333 0 -148.333 22.5 -207 67.5s-106.667 100.667 -144 167s-65.333 138 -84 215s-28 146.833 -28 209.5z" />
    <glyph glyph-name="L" unicode="L" horiz-adv-x="1296" 
d="M27 18c0 23.333 9.16699 45.0039 27.5 65.0039s40.166 38.5 65.499 55.5s52 31.667 80 44s51.333 21.833 70 28.5v65c0 61.333 -8.16699 121.166 -24.5 179.499s-34.666 117.166 -54.999 176.499s-38.666 119.666 -54.999 180.999s-24.5 125.666 -24.5 192.999
c0 86 12.833 167.167 38.5 243.5s63.167 143.833 112.5 202.5s110.166 105 182.499 139s154.833 51 247.5 51c84.667 0 161.167 -17 229.5 -51s126.666 -79.667 174.999 -137s85.5 -123.833 111.5 -199.5s39 -154.5 39 -236.5c0 -66.667 -9.5 -133.167 -28.5 -199.5
s-47 -125.5 -84 -177.5s-82.333 -94.333 -136 -127s-115.5 -49 -185.5 -49c-48 0 -84.167 8.83301 -108.5 26.5s-36.5 47.834 -36.5 90.501c0 19.333 3 32.666 9 39.999s14.333 11 25 11c16.667 0 38.667 -4.5 66 -13.5s58.666 -13.5 93.999 -13.5c50.667 0 91 12 121 36
s52.833 54.833 68.5 92.5s26 79.334 31 125.001s7.5 90.167 7.5 133.5c0 60 -5.83301 120.167 -17.5 180.5s-31.834 114.333 -60.501 162s-67 86.834 -115 117.501s-108 46 -180 46c-44 0 -84 -8.5 -120 -25.5s-67 -39.833 -93 -68.5s-46.167 -62.5 -60.5 -101.5
s-21.5 -80.167 -21.5 -123.5c0 -18 2 -35.333 6 -52l12 -49c10.667 -46.667 22.334 -94.5 35.001 -143.5s24.334 -98.333 35.001 -148s19.834 -99.167 27.501 -148.5s11.5 -96.333 11.5 -141c0 -60 -7.16699 -115.333 -21.5 -166s-32.5 -96.334 -54.5 -137.001
c16.667 -2.66699 45.5 -6.83398 86.5 -12.501s87.333 -11.5 139 -17.5s106.5 -11.167 164.5 -15.5s113.667 -6.5 167 -6.5c19.333 0 36.166 1.5 50.499 4.5l41 8.5l40 8c13.667 2.66699 28.5 4 44.5 4c16.667 0 27.667 -4.5 33 -13.5s8 -24.167 8 -45.5
c0 -35.333 -10.167 -65 -30.5 -89s-45.5 -43.167 -75.5 -57.5s-62.833 -24.333 -98.5 -30s-68.5 -8.5 -98.5 -8.5c-46.667 0 -97.5 6.5 -152.5 19.5s-111.167 27.333 -168.5 43s-114.666 30 -171.999 43s-111.333 19.5 -162 19.5c-22 0 -46 -2.33301 -72 -7
s-50.5 -10.167 -73.5 -16.5s-42.833 -12.166 -59.5 -17.499s-27 -8 -31 -8c-8 0 -14.333 0.666992 -19 2s-7 6.66602 -7 15.999z" />
    <glyph glyph-name="M" unicode="M" horiz-adv-x="1515" 
d="M-10 -123c0 40.667 11.1709 71.6738 33.5039 93.0068s49.666 40.833 81.999 58.5s65.5 36.834 99.5 57.501s62.667 51.334 86 92.001c38 64 68 129.833 90 197.5s38.333 141.5 49 221.5s17.5 168.167 20.5 264.5s4.5 205.166 4.5 326.499
c0 27.333 -3.83301 58.666 -11.5 93.999s-16.334 71.5 -26.001 108.5s-18.167 71.5 -25.5 103.5s-11 58.333 -11 79c0 18 6.5 35.167 19.5 51.5s29 31 48 44s38.833 23.5 59.5 31.5s39 12 55 12c30 0 50.167 -4.33301 60.5 -13s18.833 -27.667 25.5 -57
c38 -106.667 69.667 -199.834 95 -279.501s46.166 -148.167 62.499 -205.5s29 -104.333 38 -141s15.5 -64.667 19.5 -84l72 192l50.5 133c18.333 48 37 92.5 56 133.5s37.667 75.167 56 102.5s35.166 41 50.499 41s30.5 -2.66699 45.5 -8s28.5 -12.5 40.5 -21.5
s21.833 -20 29.5 -33s10.834 -27.833 9.50098 -44.5l-31 -374c-4 -49.333 -6 -98 -6 -146c0 -122 13.667 -239.667 41 -353c38 -158 106.333 -309.333 205 -454c0 -15.333 -4.83301 -35.5 -14.5 -60.5s-22.334 -49.5 -38.001 -73.5s-33.334 -44.833 -53.001 -62.5
s-40.5 -26.5 -62.5 -26.5c-39.333 23.333 -74.5 57.166 -105.5 101.499s-57.333 94.833 -79 151.5s-40 117.5 -55 182.5s-27.667 130.167 -38 195.5s-18.166 128.833 -23.499 190.5s-10.333 116.834 -15 165.501l-12 -57l-13 -64.5l-19.5 -99.5l-22.5 -117.5l-23 -118.5
l-18 -102l-12 -69c-4 -10.667 -8.16699 -25.334 -12.5 -44.001s-10.5 -36.834 -18.5 -54.501s-18.167 -33 -30.5 -46s-28.166 -19.5 -47.499 -19.5c-13.333 0 -26.166 8.16699 -38.499 24.5s-22.833 34.166 -31.5 53.499c-16.667 147.333 -30.667 267 -42 359
s-21.5 165 -30.5 219s-16.167 93 -21.5 117s-10 41.333 -14 52c-2.66699 -40.667 -9.16699 -95.834 -19.5 -165.501s-24.666 -144.5 -42.999 -224.5s-41.166 -161.333 -68.499 -244s-59.833 -157 -97.5 -223s-80.334 -120.167 -128.001 -162.5
s-100.834 -63.5 -159.501 -63.5c-6.66699 0 -14.834 1.66699 -24.501 5s-19.334 7.66602 -29.001 12.999s-17.5 12.166 -23.5 20.499s-9 16.5 -9 24.5z" />
    <glyph glyph-name="N" unicode="N" horiz-adv-x="1161" 
d="M-205 -246c0 27.333 5.16406 46.8389 15.4971 58.5059s23.333 20.167 39 25.5s32 10.166 49 14.499s32.5 12.5 46.5 24.5c54.667 38 97.334 91.833 128.001 161.5s53.834 144.167 69.501 223.5s25.167 157.166 28.5 233.499s5 140.5 5 192.5
c0 106.667 -4.33301 212.5 -13 317.5s-31 211.5 -67 319.5l-57 178c0 23.333 5.16699 49 15.5 77s24 54.333 41 79s36.333 45.5 58 62.5s43.5 25.5 65.5 25.5c6.66699 0 16.834 -0.333008 30.501 -1s20.5 -4.33398 20.5 -11.001l508 -1090h15
c2.66699 68 5.33398 139.667 8.00098 215s6.33398 150.5 11.001 225.5s11.5 148 20.5 219s21.5 137.167 37.5 198.5c6.66699 27.333 14.5 54.666 23.5 81.999s20.333 52.333 34 75s31.5 40.834 53.5 54.501s49.333 20.5 82 20.5c10.667 0 23.167 -2.5 37.5 -7.5
s27.666 -12.167 39.999 -21.5s23 -21.833 32 -37.5s13.5 -34.5 13.5 -56.5c-75.333 -144.667 -134.833 -294.834 -178.5 -450.501s-65.5 -318.167 -65.5 -487.5c0 -84.667 7.5 -167.334 22.5 -248.001s38.833 -158.334 71.5 -233.001
c6.66699 -16.667 15.834 -32.5 27.501 -47.5l35 -44c11.667 -14.333 22 -28.666 31 -42.999s13.5 -28.5 13.5 -42.5c0 -16.667 -5.16699 -30.334 -15.5 -41.001s-22 -18.667 -35 -24s-26.333 -9 -40 -11s-23.834 -3 -30.501 -3c-46.667 0 -83 9.5 -109 28.5
s-50.333 43.5 -73 73.5c-100 131.333 -189.5 260.666 -268.5 387.999s-156.167 259.333 -231.5 396h-14c0 -143.333 -5.16699 -261.333 -15.5 -354s-23 -169.5 -38 -230.5s-31.333 -110.5 -49 -148.5l-49.5 -110c-10.667 -26 -26 -57.167 -46 -93.5
s-43 -71.166 -69 -104.499s-54.667 -61.666 -86 -84.999s-64 -35 -98 -35c-20.667 0 -36 2.66699 -46 8s-17.833 12.166 -23.5 20.499s-8.83398 18 -9.50098 29s-1 22.5 -1 34.5z" />
    <glyph glyph-name="O" unicode="O" horiz-adv-x="1789" 
d="M74 850c0 61.333 8.16309 125.5 24.4961 192.5s39.5 132.5 69.5 196.5s66.167 125 108.5 183s89.833 108.833 142.5 152.5s109.667 78.5 171 104.5s125.333 39 192 39c10.667 0 23.334 -0.333008 38.001 -1s28.834 -4 42.501 -10s24.834 -15.167 33.501 -27.5
s13 -30.166 13 -53.499c-84.667 -31.333 -157.334 -70.833 -218.001 -118.5s-110.5 -102.334 -149.5 -164.001s-67.667 -129.667 -86 -204s-27.5 -153.833 -27.5 -238.5c0 -83.333 11.333 -170.333 34 -261s57.5 -173.5 104.5 -248.5s106.667 -136.833 179 -185.5
s157.5 -73 255.5 -73c88.667 0 166.167 21.5 232.5 64.5s121.333 98 165 165s76.834 141.5 99.501 223.5s34 161.667 34 239c0 68 -9.16699 139.667 -27.5 215s-46.333 144.333 -84 207s-85.5 114.834 -143.5 156.501s-127.333 62.5 -208 62.5
c-90 0 -163.333 -27.167 -220 -81.5s-85 -128.166 -85 -221.499c0 -44 7.16699 -80.5 21.5 -109.5s32 -53.5 53 -73.5s44.167 -36.833 69.5 -50.5l70 -38c21.333 -11.667 39.166 -23.5 53.499 -35.5s21.5 -27.667 21.5 -47c0 -16.667 -6.83301 -30.667 -20.5 -42
s-30.167 -20.166 -49.5 -26.499s-38.833 -10.833 -58.5 -13.5s-36.5 -4 -50.5 -4c-45.333 0 -85.666 10.167 -120.999 30.5s-65.166 46.666 -89.499 78.999s-43 68.5 -56 108.5s-19.5 80 -19.5 120c0 80.667 14.667 153.667 44 219s68.5 121.333 117.5 168
s105.333 82.5 169 107.5s130.167 37.5 199.5 37.5c100 0 187.833 -21.833 263.5 -65.5s139.167 -100.334 190.5 -170.001s89.833 -147.5 115.5 -233.5s38.5 -171.333 38.5 -256c0 -120 -21.833 -233.833 -65.5 -341.5s-103.667 -202.5 -180 -284.5s-166.333 -147 -270 -195
s-215.834 -72 -336.501 -72c-120 0 -229.167 24 -327.5 72s-182.666 112.167 -252.999 192.5s-124.5 173.166 -162.5 278.499s-57 216 -57 332z" />
    <glyph glyph-name="P" unicode="P" horiz-adv-x="1945" 
d="M104 674c0 146 29.8281 282.502 89.4951 409.502s139.667 237.5 240 331.5s216 168 347 222s268.167 81 411.5 81c92.667 0 186.834 -12.167 282.501 -36.5s182.334 -62.166 260.001 -113.499s141.5 -116.333 191.5 -195s75 -171 75 -277
c0 -65.333 -13 -128.833 -39 -190.5s-61.5 -116.334 -106.5 -164.001s-97.5 -86.167 -157.5 -115.5s-124.333 -44 -193 -44c-9.33301 0 -25.666 4 -48.999 12s-41 23 -53 45c-5.33301 -4 -13.5 -24.167 -24.5 -60.5s-27.167 -80.333 -48.5 -132
s-48.666 -106.834 -81.999 -165.501s-75.166 -113.334 -125.499 -164.001s-110.666 -92.667 -180.999 -126s-152.833 -50 -247.5 -50c-104 0 -193.167 21.5 -267.5 64.5s-135.333 99.333 -183 169s-82.834 148.167 -105.501 235.5s-34 175.333 -34 264zM280.995 674.002
c0 -62.667 6.33203 -126.833 18.999 -192.5s34.5 -125.5 65.5 -179.5s72 -98 123 -132s114.167 -51 189.5 -51c57.333 0 108.833 10.833 154.5 32.5s84.5 51.334 116.5 89.001s56.667 82.834 74 135.501s26 109.667 26 171c0 53.333 -8 108.666 -24 165.999
s-39.667 110.5 -71 159.5s-69.833 90.667 -115.5 125s-99.167 55.5 -160.5 63.5v18c44 58.667 95.333 105.167 154 139.5s117.334 51.5 176.001 51.5c46.667 0 87.667 -9.33301 123 -28s66.666 -43.334 93.999 -74.001s50.833 -65.334 70.5 -104.001
s36.667 -78.834 51 -120.501s26 -82.667 35 -123s16.167 -77.5 21.5 -111.5h35c35.333 0 65.333 10.5 90 31.5s44.5 47.5 59.5 79.5s25.833 66.833 32.5 104.5s10 72.834 10 105.501c0 75.333 -16 143.333 -48 204s-74.333 112.5 -127 155.5s-112.667 76.167 -180 99.5
s-137.333 35 -210 35c-120 0 -228.167 -23.667 -324.5 -71s-178.666 -110.5 -246.999 -189.5s-120.833 -169.667 -157.5 -272s-55 -208.166 -55 -317.499z" />
    <glyph glyph-name="Q" unicode="Q" horiz-adv-x="1562" 
d="M53 856c0 105.333 19.1729 203.336 57.5059 294.003s91 169.167 158 235.5s146.167 118.166 237.5 155.499s191 56 299 56c96.667 0 187.667 -16 273 -48s160.166 -77 224.499 -135s115.166 -127.333 152.499 -208s56 -169.334 56 -266.001
c0 -88.667 -12.167 -175.334 -36.5 -260.001s-58 -165.167 -101 -241.5s-93.5 -147.666 -151.5 -213.999s-121.333 -124.833 -190 -175.5l64 -16c82 -10.667 156 -23.334 222 -38.001s129.333 -29.5 190 -44.5l181.5 -43c60.333 -13.667 125 -25.834 194 -36.501
s145 -19.5 228 -26.5s178.5 -10.5 286.5 -10.5c0 -31.333 -12.333 -60.333 -37 -87s-54.334 -49.167 -89 -67.5c-34.667 -18.333 -70.167 -32.666 -106.5 -42.999s-66.5 -15.5 -90.5 -15.5c-46.667 0 -113.334 8.5 -200.001 25.5s-182.167 37.167 -286.5 60.5l-320.5 74
c-109.333 26 -210.333 48.333 -303 67c-24.667 2.66699 -47.334 5.66699 -68.001 9c-18 2.66699 -35.5 4.66699 -52.5 6s-30.167 2 -39.5 2l-397 -31c-16.667 -1.33301 -34.5 -1.33301 -53.5 0s-36.333 4.83301 -52 10.5s-28.667 14.167 -39 25.5s-15.5 26.666 -15.5 45.999
c0 23.333 10.167 44.833 30.5 64.5s44.5 36.334 72.5 50.001s57.333 24.667 88 33s56.334 13.166 77.001 14.499l324 16c60 26 111.167 65.667 153.5 119s76.833 112.666 103.5 177.999s46.167 132.5 58.5 201.5s18.5 132.167 18.5 189.5
c0 75.333 -10.333 149.166 -31 221.499s-51.5 136.833 -92.5 193.5s-92.5 102.334 -154.5 137.001s-135.333 52 -220 52c-66.667 0 -128.334 -13.5 -185.001 -40.5s-105.5 -63.5 -146.5 -109.5s-72.833 -98.667 -95.5 -158s-34 -121.666 -34 -186.999
c0 -66.667 13.667 -129.5 41 -188.5s64.166 -110 110.499 -153s100.333 -76.667 162 -101s127.167 -36.5 196.5 -36.5c31.333 0 60.333 8.83301 87 26.5s51.667 36.667 75 57l64.5 57.5c19.667 18 38.5 27 56.5 27c19.333 0 37.666 -14.333 54.999 -43
c0 -54.667 -16 -101.167 -48 -139.5s-71.667 -69.5 -119 -93.5s-96.833 -41.333 -148.5 -52s-97.5 -16 -137.5 -16c-90 0 -169.833 16.333 -239.5 49s-128 77.334 -175 134.001s-82.5 122.5 -106.5 197.5s-36 154.833 -36 239.5z" />
    <glyph glyph-name="R" unicode="R" horiz-adv-x="1972" 
d="M104 766c0 124 28.6641 241.667 85.9971 353s132.5 209 225.5 293s199.167 150.667 318.5 200s241.333 74 366 74c95.333 0 190.5 -15.167 285.5 -45.5s180.667 -74.166 257 -131.499s138.5 -128 186.5 -212s72 -179 72 -285c0 -72.667 -14 -135.334 -42 -188.001
s-59.167 -96.334 -93.5 -131.001s-65.5 -60.834 -93.5 -78.501s-42 -28.5 -42 -32.5c2.66699 -49.333 11.834 -93.833 27.501 -133.5s36.5 -76.834 62.5 -111.501s55.833 -68.167 89.5 -100.5l107.5 -99.5c4 -1.33301 6 -4.66602 6 -9.99902
c0 -9.33301 -4.83301 -21.833 -14.5 -37.5s-23 -31.5 -40 -47.5s-37 -29.667 -60 -41s-47.5 -17 -73.5 -17c-75.333 0 -139 18.667 -191 56s-95.333 84 -130 140s-62.667 116.833 -84 182.5s-39.333 127.167 -54 184.5c-32.667 -74 -67.5 -144 -104.5 -210
s-78.667 -124 -125 -174s-99.166 -89.667 -158.499 -119s-129.333 -44 -210 -44c-68 0 -129.667 11 -185 33s-104.166 51.333 -146.499 88s-79 80 -110 130s-56 103.333 -75 160s-33.333 115.334 -43 176.001s-14.5 120.334 -14.5 179.001zM265.997 735
c0 -54.667 7.83105 -112.999 23.498 -174.999s39.334 -118.667 71.001 -170s71.334 -94 119.001 -128s102.834 -51 165.501 -51c53.333 0 99.833 9.5 139.5 28.5s72.834 45 99.501 78s46.834 71.333 60.501 115s20.5 89.834 20.5 138.501c0 65.333 -4.83301 125 -14.5 179
s-25.834 103.667 -48.501 149s-52.334 87.333 -89.001 126s-81.667 76 -135 112l-16 18c16.667 23.333 37.5 43.833 62.5 61.5s52.167 32.667 81.5 45s59.333 21.5 90 27.5s59.667 9 87 9c56 0 101.333 -20.667 136 -62s62.334 -93.833 83.001 -157.5s36.167 -132 46.5 -205
s18.833 -141.5 25.5 -205.5c1.33301 -6.66699 2 -16.334 2 -29.001h24c38 0 69.833 13.333 95.5 40s45.667 58.667 60 96s24.166 76.166 29.499 116.499s8 74.166 8 101.499c0 72.667 -13.667 139.334 -41 200.001s-64.166 113.167 -110.499 157.5
s-100.333 78.833 -162 103.5s-127.167 37 -196.5 37c-100 0 -193.333 -21.167 -280 -63.5s-162.334 -99 -227.001 -170s-115.834 -151.667 -153.501 -242s-56.5 -183.833 -56.5 -280.5z" />
    <glyph glyph-name="S" unicode="S" horiz-adv-x="1191" 
d="M45 1155c0 88.667 21.5029 166.17 64.5029 232.503s98.333 121.666 166 165.999s143.167 77.5 226.5 99.5s165.333 33 246 33c60 0 123 -10.667 189 -32s126.667 -51.833 182 -91.5s100.833 -87.5 136.5 -143.5s53.5 -118.667 53.5 -188c0 -44 -7.5 -90.167 -22.5 -138.5
s-36.5 -93 -64.5 -134s-61.833 -74.833 -101.5 -101.5s-83.5 -40 -131.5 -40c-16.667 0 -33.5 3.16699 -50.5 9.5s-32.333 14.833 -46 25.5s-24.834 23.834 -33.501 39.501s-13 33.167 -13 52.5c0 15.333 4.33301 30.5 13 45.5s24 22.5 46 22.5l84 -19
c27.333 0 50.166 6.16699 68.499 18.5s33 28 44 47s19 40.167 24 63.5s7.5 45.333 7.5 66c0 58.667 -10.333 111.5 -31 158.5s-49.334 87 -86.001 120s-80.334 58 -131.001 75s-106 25.5 -166 25.5c-48 0 -93.5 -6.83301 -136.5 -20.5s-80.5 -33.834 -112.5 -60.501
s-57.167 -60.167 -75.5 -100.5s-27.5 -87.166 -27.5 -140.499c0 -106.667 43 -190 129 -250c48 -31.333 103.333 -65 166 -101s122 -76.5 178 -121.5s103.333 -95.5 142 -151.5s58 -120.333 58 -193c0 -58.667 -10.5 -115 -31.5 -169s-50.333 -101.5 -88 -142.5
s-82 -73.667 -133 -98s-107.5 -36.5 -169.5 -36.5c-35.333 0 -70 4 -104 12s-64.667 20.5 -92 37.5s-49.166 38.833 -65.499 65.5s-24.5 59.334 -24.5 98.001c0 28.667 6.5 56.5 19.5 83.5s32.5 40.5 58.5 40.5c12 0 22.5 -9.83301 31.5 -29.5s21.667 -41.834 38 -66.501
s38.833 -46.834 67.5 -66.501s69 -29.5 121 -29.5c46.667 0 88 10.167 124 30.5s54 57.833 54 112.5c0 50.667 -19.833 95.167 -59.5 133.5s-89.167 75.5 -148.5 111.5l-192.5 111.5c-69 38.333 -133.167 81.666 -192.5 129.999s-108.833 104.666 -148.5 168.999
s-59.5 140.833 -59.5 229.5z" />
    <glyph glyph-name="T" unicode="T" horiz-adv-x="1589" 
d="M125 1348c0 80.667 16.6738 154.339 50.0068 221.006s77.666 124.334 132.999 173.001s119.5 86.5 192.5 113.5s149.167 40.5 228.5 40.5c88.667 0 175.334 -8.83301 260.001 -26.5s168.334 -39.5 251.001 -65.5s164.667 -54.667 246 -86s163.166 -60 245.499 -86
s166.166 -47.833 251.499 -65.5s172.666 -26.5 262 -26.5c20.667 0 41.167 2.66699 61.5 8s40.666 11.5 61 18.5c20.333 7 40.166 13.167 59.5 18.5c19.333 5.33301 37.666 8 55 8c22 0 41.833 -5.33301 59.5 -16s26.5 -28.334 26.5 -53.001
c0 -28.667 -16 -53.334 -48 -74.001s-70.833 -37.167 -116.5 -49.5s-93.834 -21.166 -144.5 -26.499c-50.667 -5.33301 -94.334 -8 -131 -8c-114.667 0 -229 10.167 -343 30.5s-228.333 45.833 -343 76.5c-4 2.66699 -8.5 -5.33301 -13.5 -24
s-9.16699 -39.834 -12.5 -63.501s-6 -47.167 -8 -70.5s-3 -38.333 -3 -45c0 -56 1 -113 3 -171s4.33301 -121.833 7 -191.5s6 -147.834 10 -234.501c0.666992 -18.667 2.5 -47.834 5.5 -87.501s5.33301 -77.667 7 -114s2.5 -71.5 2.5 -105.5c0 -35.333 -10.333 -75 -31 -119
c-22 -47.333 -52 -91.833 -90 -133.5s-81.667 -76.834 -131 -105.501s-100 -43 -152 -43c-4 0 -10.333 1 -19 3s-17.167 5.16699 -25.5 9.5s-15.5 9.83301 -21.5 16.5s-9 14.667 -9 24v15c27.333 23.333 50.166 43.833 68.499 61.5s33.666 35.334 45.999 53.001
s21.833 37.5 28.5 59.5s12 49.333 16 82c-2.66699 13.333 -5.33398 35 -8.00098 65s-5.33398 64.5 -8.00098 103.5s-5 79.333 -7 121s-4.16699 82 -6.5 121s-3.83301 73.5 -4.5 103.5s-1 51.667 -1 65c0 72.667 2.5 150 7.5 232s19.167 159 42.5 231
c10.667 32.667 29.667 66.5 57 101.5l70 91.5l-70 28l-116.5 34c-39.667 12 -82 23.333 -127 34s-93.833 19.5 -146.5 26.5s-111 10.5 -175 10.5c-45.333 0 -90.5 -4.5 -135.5 -13.5s-85.333 -24.667 -121 -47s-64.667 -52 -87 -89s-33.5 -84.167 -33.5 -141.5
c0 -40.667 5.83301 -78.5 17.5 -113.5s28 -65.167 49 -90.5s47.167 -45.5 78.5 -60.5s67 -22.5 107 -22.5c30 0 54.5 6.5 73.5 19.5s35 27.333 48 43l36 43c11 13 23.833 19.5 38.5 19.5c8 0 16.833 -4.66699 26.5 -14s19 -21.166 28 -35.499s16.5 -29.833 22.5 -46.5
s9 -32.334 9 -47.001c0 -24.667 -10.5 -46.834 -31.5 -66.501s-46.5 -36.334 -76.5 -50.001s-61 -24.334 -93 -32.001s-59 -11.5 -81 -11.5c-58.667 0 -111.334 13.333 -158.001 40s-86.334 61.5 -119.001 104.5s-57.5 90.833 -74.5 143.5s-25.5 105.667 -25.5 159z" />
    <glyph glyph-name="U" unicode="U" horiz-adv-x="2242" 
d="M104 1155c0 92.667 16.835 183.505 50.502 272.505s82.5 168.167 146.5 237.5s143.167 125.166 237.5 167.499s202.166 63.5 323.499 63.5c76.667 0 153.167 -13.5 229.5 -40.5s145.333 -65.5 207 -115.5s111.5 -109.5 149.5 -178.5s57 -145.833 57 -230.5v-1012
c0 -10.667 2.83301 -23.167 8.5 -37.5s13.167 -28 22.5 -41s20.166 -23.833 32.499 -32.5s24.833 -13 37.5 -13c23.333 4 46.833 14.167 70.5 30.5s45 35.333 64 57s34.667 45.167 47 70.5s18.5 48.333 18.5 69v1044c0 19.333 10 40.666 30 63.999s43.667 45.166 71 65.499
s56 37.333 86 51s56 20.5 78 20.5c4 0 10 -0.333008 18 -1s16.167 -2.66699 24.5 -6s15.5 -9.16602 21.5 -17.499s9 -19.833 9 -34.5v-1362l17 -103c0 -19.333 -8.66699 -39.5 -26 -60.5s-37.833 -40 -61.5 -57s-47.834 -31.333 -72.501 -43s-44.334 -17.5 -59.001 -17.5
c-24.667 0 -44.834 6.5 -60.501 19.5s-27.667 29.333 -36 49s-13.833 40.834 -16.5 63.501s-4 43.667 -4 63c-9.33301 0 -26.666 -9.33301 -51.999 -28s-55.5 -39.167 -90.5 -61.5s-72.333 -42.666 -112 -60.999s-78.5 -27.5 -116.5 -27.5
c-40.667 0 -78.5 10.833 -113.5 32.5s-65.167 50 -90.5 85s-45.5 73.167 -60.5 114.5s-22.5 82.666 -22.5 123.999v1077c0 48 -10.167 92.833 -30.5 134.5s-47.166 77.5 -80.499 107.5s-71.166 53.5 -113.499 70.5s-85.5 25.5 -129.5 25.5
c-69.333 0 -137.166 -18.833 -203.499 -56.5s-125.833 -85.834 -178.5 -144.501s-95 -124.5 -127 -197.5s-48 -145.5 -48 -217.5c0 -66.667 5.83301 -135 17.5 -205s32.834 -133.667 63.501 -191s72.667 -104 126 -140s122.333 -54 207 -54
c15.333 0 33.833 5.16699 55.5 15.5s42.667 23.333 63 39s37.666 33 51.999 52s21.5 37.5 21.5 55.5c0 20.667 -4.33301 37 -13 49s-18.167 22.5 -28.5 31.5s-20 17.833 -29 26.5s-13.5 20 -13.5 34c0 12 3.83301 23.5 11.5 34.5s17.667 20.333 30 28s25.333 13.5 39 17.5
s26.5 6 38.5 6c19.333 0 35.833 -4.83301 49.5 -14.5s25.167 -22.334 34.5 -38.001s16.166 -33 20.499 -52s6.5 -38.167 6.5 -57.5c0 -52 -10.333 -101.5 -31 -148.5s-49.334 -88.167 -86.001 -123.5s-80.334 -63.333 -131.001 -84s-106 -31 -166 -31
c-84.667 0 -157.667 19.167 -219 57.5s-112.166 91.666 -152.499 159.999s-70.166 149.166 -89.499 242.499s-29 196 -29 308z" />
    <glyph glyph-name="V" unicode="V" horiz-adv-x="1720" 
d="M104 1087c0 66.667 7.99902 136.67 23.999 210.003s40.667 140.666 74 201.999s76.666 111.833 129.999 151.5s117.333 59.5 192 59.5c60 0 113.667 -12 161 -36s89.333 -54.667 126 -92s68.334 -80.333 95.001 -129s49 -97.334 67 -146.001l327 -879l16.5 42l28 74
l31 86l27.5 79l80 261c26 88 39 175 39 261c0 35.333 -2.83301 73.5 -8.5 114.5s-16 79.167 -31 114.5s-36.5 64.666 -64.5 87.999s-63.667 35 -107 35c-62.667 0 -105.334 -19.167 -128.001 -57.5s-34 -89.5 -34 -153.5c0 -54.667 12 -100.334 36 -137.001
s59.667 -71.667 107 -105v-18c0 -22 -8.5 -40.167 -25.5 -54.5s-33.5 -21.5 -49.5 -21.5c-39.333 0 -70.833 11.667 -94.5 35s-41.5 52 -53.5 86s-19.833 70.5 -23.5 109.5s-5.5 74.167 -5.5 105.5c0 49.333 6.83301 101 20.5 155s35.167 104.167 64.5 150.5
s66.333 84.5 111 114.5s97.667 45 159 45c39.333 0 76.5 -8.5 111.5 -25.5s65.333 -44 91 -81s46 -84.833 61 -143.5s22.5 -130.334 22.5 -215.001c0 -101.333 -8.16699 -197 -24.5 -287s-38.166 -178 -65.499 -264s-58 -172 -92 -258l-104 -268
c-8 -23.333 -18.167 -49 -30.5 -77s-25.333 -56 -39 -84l-40 -79c-13 -24.667 -25.167 -45 -36.5 -61l-32 -19h-19l-637 1364c-16.667 35.333 -38.167 58.166 -64.5 68.499s-58.833 15.5 -97.5 15.5c-24.667 0 -47.834 -9.5 -69.501 -28.5s-40.334 -42.5 -56.001 -70.5
s-28 -56.667 -37 -86s-13.5 -54.333 -13.5 -75c0 -177.333 73 -320 219 -428c6.66699 -2.66699 13 -5.33398 19 -8.00098c5.33301 -2.66699 11 -5 17 -7s11.333 -3 16 -3c31.333 0 52 9.83301 62 29.5s17.167 41.834 21.5 66.501s9.5 46.834 15.5 66.501
s20.667 29.5 44 29.5c32.667 0 54.834 -13.333 66.501 -40s17.5 -52 17.5 -76c0 -35.333 -5.16699 -70.5 -15.5 -105.5s-25.666 -66.167 -45.999 -93.5s-45.833 -49.166 -76.5 -65.499s-66.667 -24.5 -108 -24.5c-45.333 0 -85.666 9.83301 -120.999 29.5s-67 46 -95 79
s-51.5 69.833 -70.5 110.5s-35 82.834 -48 126.501s-22.333 86 -28 127s-8.5 77.833 -8.5 110.5z" />
    <glyph glyph-name="W" unicode="W" horiz-adv-x="2023" 
d="M16 1018c0 72.667 9.33789 147.838 28.0049 225.505s47.334 148.834 86.001 213.501s88.5 117.834 149.5 159.501s133.833 62.5 218.5 62.5c39.333 0 76.5 -9.16699 111.5 -27.5s67.167 -41.5 96.5 -69.5s56.166 -59 80.499 -93s46.166 -66.667 65.499 -98h18
c2.66699 0 7.16699 8.83301 13.5 26.5s15.333 40.167 27 67.5s25.334 56.333 41.001 87s34.334 59.667 56.001 87s46.167 49.833 73.5 67.5s57.333 26.5 90 26.5c30 0 56.333 -8.16699 79 -24.5s42.5 -36.833 59.5 -61.5s31.333 -52 43 -82s20.834 -58.667 27.501 -86
l256 -1044l52 100l64.5 193.5c22.333 65 42.666 130.5 60.999 196.5s33.666 131.833 45.999 197.5s18.5 131.167 18.5 196.5c0 27.333 -1.33301 56 -4 86s-8.83398 57.333 -18.501 82s-24 45.167 -43 61.5s-44.167 24.5 -75.5 24.5c-23.333 0 -45 -5.33301 -65 -16
s-37.167 -24.667 -51.5 -42s-25.5 -36.5 -33.5 -57.5s-12 -41.833 -12 -62.5c0 -27.333 4 -51.166 12 -71.499s18.5 -39.333 31.5 -57s28.5 -35.167 46.5 -52.5s35.667 -35.333 53 -54v-17c0 -16.667 -6.83301 -29.334 -20.5 -38.001s-31.167 -13 -52.5 -13
c-30 0 -56 8.83301 -78 26.5s-40.5 39.5 -55.5 65.5s-26.333 54 -34 84s-11.5 58 -11.5 84c0 49.333 8.66699 99.166 26 149.499s41.666 96.666 72.999 138.999s68.5 76.833 111.5 103.5s91.167 40 144.5 40c35.333 0 69.333 -7.83301 102 -23.5
s61.334 -38.834 86.001 -69.501s44.5 -69.167 59.5 -115.5s22.5 -100.166 22.5 -161.499c0 -40.667 -1 -76.834 -3 -108.501s-5.33301 -61.834 -10 -90.501s-11.5 -57 -20.5 -85s-20.5 -59.667 -34.5 -95l-41.5 -105.5l-65.5 -163l-83 -199l-90 -212l-88 -201.5
c-28.667 -64 -55.334 -120 -80.001 -168c-6.66699 -15.333 -14.5 -24.333 -23.5 -27s-17.5 -4 -25.5 -4c-18 0 -34.5 11 -49.5 33s-29 49.667 -42 83s-24.333 70.166 -34 110.499l-27.5 116l-23.5 97.5c-7 28 -13.167 46.667 -18.5 56l-221 -446
c-6.66699 -15.333 -14.167 -24.333 -22.5 -27s-17.166 -4 -26.499 -4c-8 0 -16.5 1.33301 -25.5 4s-16.833 11.667 -23.5 27l-449 1171c-8 23.333 -19.833 49.666 -35.5 78.999s-33.5 56.666 -53.5 81.999s-41.5 46.833 -64.5 64.5s-46.833 26.5 -71.5 26.5
c-39.333 0 -72 -10.667 -98 -32s-46.833 -47.666 -62.5 -78.999s-26.667 -65.666 -33 -102.999s-9.5 -72 -9.5 -104c0 -31.333 4.83301 -68.166 14.5 -110.499s24.667 -82.833 45 -121.5s46.666 -71.334 78.999 -98.001s70.166 -40 113.499 -40c12 0 23.5 4.33301 34.5 13
s21.667 18.167 32 28.5s20.666 19.666 30.999 27.999s20.166 12.5 29.499 12.5c24.667 0 42.167 -7.5 52.5 -22.5s15.5 -34.833 15.5 -59.5c0 -32.667 -7.16699 -62.334 -21.5 -89.001s-32.5 -49.667 -54.5 -69s-46.667 -34.333 -74 -45s-53.333 -16 -78 -16
c-66.667 0 -121.834 15 -165.501 45s-78.167 68.167 -103.5 114.5s-43.166 97.833 -53.499 154.5s-15.5 111 -15.5 163zM909.005 1264l252.003 -824.003c16.667 8 31.167 22 43.5 42s22.166 42 29.499 66s12.666 47.833 15.999 71.5s5 43.834 5 60.501
c0 9.33301 -3.33301 33.166 -10 71.499s-15.5 83.5 -26.5 135.5s-23.667 106.333 -38 163s-29.333 108.834 -45 156.501s-31.334 87.167 -47.001 118.5s-30.5 47 -44.5 47c-8 0 -19.5 -0.666992 -34.5 -2s-30 -5.66602 -45 -12.999s-28 -18.166 -39 -32.499
s-16.5 -34.5 -16.5 -60.5z" />
    <glyph glyph-name="X" unicode="X" horiz-adv-x="1648" 
d="M104 25c0 27.333 10.001 47 30.001 59s43.333 22.5 70 31.5s53.667 19.333 81 31s48.333 30.5 63 56.5l373 622v17c0 18 -8.16699 45.333 -24.5 82s-37.166 77.5 -62.499 122.5s-53.333 91.333 -84 139s-61 91 -91 130s-58 70.833 -84 95.5s-46 37 -60 37
c-16.667 0 -32 -5.83301 -46 -17.5s-26.167 -26 -36.5 -43s-19.166 -34.667 -26.499 -53s-13.333 -33.833 -18 -46.5h-14c-27.333 0 -45.833 7.16699 -55.5 21.5s-14.5 29.833 -14.5 46.5c0 45.333 10.333 92.833 31 142.5s47.334 96 80.001 139s70.167 78.5 112.5 106.5
s86.166 42 131.499 42c30 0 61.667 -17.833 95 -53.5s69.166 -82.167 107.499 -139.5s79 -121.5 122 -192.5s89.167 -141.833 138.5 -212.5l276 522c9.33301 19.333 18.166 33.666 26.499 42.999s17.333 16.833 27 22.5s20.167 8.83398 31.5 9.50098s25.333 1 42 1
c27.333 0 53 -7.5 77 -22.5s36 -43.167 36 -84.5l-398 -692l428 -657l103 14c22 0 37.333 -5.83301 46 -17.5s13 -22.167 13 -31.5c0 -35.333 -9.16699 -71.166 -27.5 -107.499s-43.166 -68.833 -74.499 -97.5s-67.5 -51.834 -108.5 -69.501s-83.5 -26.5 -127.5 -26.5
c-12 0 -24.833 6.16699 -38.5 18.5s-34.834 41 -63.501 86l-122 198.5l-218 354l-19 -37c-9.33301 -18 -24.833 -50 -46.5 -96l-68.5 -146l-69 -144.5l-47 -94.5c-28.667 -54.667 -63.834 -100.334 -105.501 -137.001s-90.5 -55 -146.5 -55c-12 0 -31.333 0.333008 -58 1
s-54 3.66699 -82 9s-52.333 13.833 -73 25.5s-31 27.834 -31 48.501z" />
    <glyph glyph-name="Y" unicode="Y" horiz-adv-x="1456" 
d="M2 1196c0 57.333 6.83105 121.173 20.498 191.506s36.834 136.166 69.501 197.499s77.334 113.166 134.001 155.499s128 63.5 214 63.5c56 0 104.167 -10.833 144.5 -32.5s76.5 -51.334 108.5 -89.001s61 -81.334 87 -131.001s52 -102.5 78 -158.5
c8 -18 20 -46.833 36 -86.5l52.5 -136l61 -161.5l63.5 -160l55.5 -132.5c16.333 -38.333 29.166 -64.166 38.499 -77.499c28.667 57.333 55.334 119.166 80.001 185.499s45.834 134.666 63.501 204.999s31.667 141 42 212s15.5 139.833 15.5 206.5
c0 26 -1.33301 53.333 -4 82s-9.16699 55 -19.5 79s-24.666 43.833 -42.999 59.5s-43.833 23.5 -76.5 23.5c-31.333 0 -58.333 -6.83301 -81 -20.5s-41.167 -31.167 -55.5 -52.5s-24.5 -44.333 -30.5 -69s-9 -47 -9 -67c0 -27.333 3.33301 -51.666 10 -72.999
s14.5 -40.166 23.5 -56.499s16.833 -31.666 23.5 -45.999s10 -28.833 10 -43.5c0 -24.667 -5.16699 -42.167 -15.5 -52.5s-27.5 -15.5 -51.5 -15.5c-27.333 0 -50 7.83301 -68 23.5s-32.333 35.167 -43 58.5s-18.5 48.333 -23.5 75s-7.5 50 -7.5 70
c0 60 9.66699 121.833 29 185.5s47 121.5 83 173.5s80 95 132 129s110.667 51 176 51c56 0 101.333 -11.333 136 -34s62 -52 82 -88s33.667 -76.5 41 -121.5s11 -90.167 11 -135.5c0 -54.667 -9.16699 -125.667 -27.5 -213s-43.833 -183.833 -76.5 -289.5
s-72.167 -217 -118.5 -334s-97.833 -232.5 -154.5 -346.5s-117.834 -222.5 -183.501 -325.5s-133.667 -193.667 -204 -272s-142.333 -140.833 -216 -187.5s-148.167 -70 -223.5 -70c-62.667 0 -108 11.667 -136 35s-42 71.333 -42 144c0 18 3 38.167 9 60.5
s15.167 43.333 27.5 63s27.5 36 45.5 49s38.333 19.5 61 19.5c16.667 0 29.5 -6.16699 38.5 -18.5s17.5 -26 25.5 -41s17.833 -28.667 29.5 -41s28.5 -18.5 50.5 -18.5c24.667 0 53 8.83301 85 26.5s65 41 99 70s67.5 61.167 100.5 96.5s62 70.833 87 106.5
s45.333 69.5 61 101.5s23.5 58 23.5 78c-8 23.333 -22.167 59.333 -42.5 108l-69.5 165l-84 193.5l-86 194.5l-74 167c-22 49.333 -39 86 -51 110c-4 12 -11.833 30.167 -23.5 54.5s-24.334 49 -38.001 74l-40 72.5c-13 23.333 -21.5 40.333 -25.5 51
c-15.333 24.667 -32.5 42.167 -51.5 52.5s-43.5 15.5 -73.5 15.5s-54.833 -10.667 -74.5 -32s-35.667 -46.333 -48 -75s-21.333 -58.334 -27 -89.001s-8.5 -55.334 -8.5 -74.001c0 -20.667 2.5 -45.334 7.5 -74.001s12.5 -56.667 22.5 -84s22.833 -52 38.5 -74
s34.5 -37 56.5 -45c8 -6.66699 15.833 -10.334 23.5 -11.001s14.167 -1 19.5 -1c12 0 22.167 2 30.5 6s14.5 6 18.5 6c8 0 12.833 -5.5 14.5 -16.5s2.5 -31.5 2.5 -61.5c0 -42 -9.33301 -79 -28 -111s-51.667 -48 -99 -48c-52 0 -94 15.667 -126 47
s-56.667 69.833 -74 115.5s-29 94.5 -35 146.5s-9 97.667 -9 137z" />
    <glyph glyph-name="Z" unicode="Z" horiz-adv-x="1525" 
d="M104 1087c0 106.667 19.167 206.835 57.5 300.502s91.666 175 159.999 244s149.333 123.167 243 162.5s196.167 59 307.5 59c96.667 0 185 -18.667 265 -56s148.333 -88.166 205 -152.499s100.834 -139.5 132.501 -225.5s47.5 -177.333 47.5 -274
c0 -118.667 -19.833 -226.834 -59.5 -324.501s-96.5 -190.834 -170.5 -279.501v-19c0 -12 7.5 -26.5 22.5 -43.5s31.5 -37.833 49.5 -62.5s34.5 -52.667 49.5 -84s22.5 -67 22.5 -107c0 -84.667 -13 -162.5 -39 -233.5s-61.5 -137.167 -106.5 -198.5s-97.667 -118 -158 -170
s-124.5 -100.333 -192.5 -145c-4 -4 -13.167 -10.5 -27.5 -19.5s-30.333 -17.667 -48 -26s-35.834 -15.5 -54.501 -21.5s-34 -9 -46 -9c-19.333 0 -32.666 8.5 -39.999 25.5s-11 33.833 -11 50.5c0 10.667 10.167 23.167 30.5 37.5l77.5 52.5
c31.333 20.667 65.166 44.167 101.499 70.5s70.166 58 101.499 95s57.333 79.333 78 127s31 102.5 31 164.5c0 57.333 -12.667 105.666 -38 144.999s-53 73 -83 101s-57.667 52 -83 72s-38 38 -38 54v17c8 31.333 17.833 57.833 29.5 79.5s25 42.5 40 62.5l49 62.5
c17.667 21.667 36.167 48.167 55.5 79.5c34 56 56.5 119.833 67.5 191.5s16.5 137.5 16.5 197.5c0 62.667 -9.83301 126.167 -29.5 190.5s-48.667 122.166 -87 173.499s-85.833 93.333 -142.5 126s-122 49 -196 49c-58.667 0 -112.167 -13.333 -160.5 -40
s-90 -61.834 -125 -105.501s-62 -93.167 -81 -148.5s-28.5 -111.666 -28.5 -168.999c0 -53.333 7.16699 -106.5 21.5 -159.5s35.833 -100.667 64.5 -143s65.167 -76.833 109.5 -103.5s96.5 -40 156.5 -40c23.333 0 42.833 4.66699 58.5 14s30.334 19.833 44.001 31.5
s27.667 22.334 42 32.001s31.833 14.5 52.5 14.5c28.667 0 48.167 -5.16699 58.5 -15.5s15.5 -29.833 15.5 -58.5c0 -45.333 -10 -84.666 -30 -117.999s-45.333 -60.5 -76 -81.5s-65.167 -37 -103.5 -48s-75.166 -16.5 -110.499 -16.5c-80.667 0 -152 19.167 -214 57.5
s-113.833 87.166 -155.5 146.499s-73.5 125.5 -95.5 198.5s-33 144.167 -33 213.5z" />
    <glyph glyph-name="bracketleft" unicode="[" horiz-adv-x="622" 
d="M111 1571l-0.00390625 2.00098c0 19.333 4.33301 34 13 44s19.834 17.833 33.501 23.5s27.667 9.16699 42 10.5s27.833 2 40.5 2c32.667 -4 62.334 -8.83301 89.001 -14.5s54.667 -12.167 84 -19.5l97 -24.5l125 -31.5l110 -29
c2.66699 -1.33301 5.5 -9.16602 8.5 -23.499s5.5 -30.333 7.5 -48s3.66699 -34.334 5 -50.001s2 -26.5 2 -32.5c0 -12 -3.83301 -23.5 -11.5 -34.5s-21.5 -16.5 -41.5 -16.5c-13.333 2.66699 -27.333 5 -42 7s-29.334 5.33301 -44.001 10l-244 57
c-2.66699 -152.667 -8.5 -360.167 -17.5 -622.5s-20.833 -567.5 -35.5 -915.5l92 -22.5c34 -8.33301 81.667 -20.833 143 -37.5l111 -28c2.66699 -2.66699 5.33398 -10.834 8.00098 -24.501s5 -29.5 7 -47.5s3.66699 -34.833 5 -50.5s2 -26.167 2 -31.5
c0 -12 -3.66699 -23.5 -11 -34.5s-21.333 -16.5 -42 -16.5c-13.333 2.66699 -27.166 5 -41.499 7s-29.166 5 -44.499 9l-403 99c-13.333 23.333 -21.833 51.333 -25.5 84s-5.5 62.667 -5.5 90c0 207.333 -2.66699 454 -8 740s-8 609.333 -8 970z" />
    <glyph glyph-name="backslash" unicode="\" horiz-adv-x="634" 
d="M37 1477l2 4.00195c5.33301 5.33301 8.66602 11.333 9.99902 18c1.33301 2.66699 7.5 5.66699 18.5 9s23.333 6.16602 37 8.49902s27.334 4.16602 41.001 5.49902s23.834 2 30.501 2h8c10.667 -2.66699 19 -9.66699 25 -21l393 -1566c-4 -10.667 -11.333 -19.667 -22 -27
c-4 -2.66699 -13 -4 -27 -4c-12 0 -28.333 1 -49 3s-34.334 4.33301 -41.001 7c-13.333 4 -24.333 12.333 -33 25c-13.333 68 -32 148.833 -56 242.5l-78 296l-86 314l-80 295l-61.5 240c-17 69 -27.5 118.5 -31.5 148.5z" />
    <glyph glyph-name="bracketright" unicode="]" horiz-adv-x="622" 
d="M-199 1380c0 5.33301 0.664062 16 1.99707 32s3.16602 32.833 5.49902 50.5s4.83301 33.667 7.5 48s5.33398 22.166 8.00098 23.499l110 29l125.5 31.5l97.5 24.5c29.333 7.33301 57.333 13.833 84 19.5s56.334 10.5 89.001 14.5c12 0 25.167 -0.666992 39.5 -2
s28.333 -4.83301 42 -10.5s25 -13.5 34 -23.5s13.5 -24.667 13.5 -44v-2c0 -360.667 -2.83301 -684 -8.5 -970s-8.5 -532.667 -8.5 -740c0 -27.333 -1.66699 -57.5 -5 -90.5s-11.666 -60.833 -24.999 -83.5l-404 -99c-15.333 -4 -30 -7 -44 -9s-28 -4.33301 -42 -7
c-20.667 0 -34.667 5.5 -42 16.5s-11 22.5 -11 34.5c0 5.33301 0.666992 15.833 2 31.5s3 32.5 5 50.5s4.33301 33.833 7 47.5s5.33398 21.834 8.00098 24.501l111 28c61.333 16.667 109.166 29.167 143.499 37.5l92.5 22.5l-35 915.5
c-10 262.333 -16.333 469.833 -19 622.5l-243 -57c-15.333 -4 -30.166 -7.16699 -44.499 -9.5s-28.166 -4.83301 -41.499 -7.5c-20.667 0 -34.834 5.5 -42.501 16.5s-11.5 22.5 -11.5 34.5z" />
    <glyph glyph-name="asciicircum" unicode="^" horiz-adv-x="698" 
d="M41 764l62.0029 102.001l72 119l66.5 110.5c20.333 34.333 36.166 59.5 47.499 75.5l30.5 47.5c8.33301 12.333 17.166 18.5 26.499 18.5c13.333 0 34.666 -23.333 63.999 -70c9.33301 -16.667 24.166 -40.834 44.499 -72.501l65.5 -104l71 -114l62 -100.5
c0 -18 -6.66699 -33 -20 -45c-9.33301 -12 -21.666 -18 -36.999 -18c-2.66699 0 -5 -1 -7 -3s-5 -3 -9 -3s-14 8.5 -30 25.5s-34.833 39.833 -56.5 68.5l-70.5 97l-75 110l-74.5 -111.5c-25 -37.667 -48.833 -71.5 -71.5 -101.5s-41.834 -54.333 -57.501 -73
s-25.5 -28 -29.5 -28s-7.16699 1 -9.5 3s-4.83301 3 -7.5 3c-15.333 0 -27.666 6.33301 -36.999 19c-13.333 12 -20 27 -20 45z" />
    <glyph glyph-name="underscore" unicode="_" horiz-adv-x="1161" 
d="M8 8c0 22 5.16699 40.168 15.5 54.501s23.333 25.666 39 33.999s33 14.166 52 17.499s38.167 5 57.5 5h856c50.667 0 85.167 -13.333 103.5 -40s27.5 -56.334 27.5 -89.001c0 -35.333 -9.5 -63.666 -28.5 -84.999s-53.167 -32 -102.5 -32h-856
c-57.333 0 -99 12.333 -125 37s-39 57.334 -39 98.001z" />
    <glyph glyph-name="grave" unicode="`" horiz-adv-x="665" 
d="M223 1386c0 12 3.5 21.499 10.5 28.499s15.167 12.167 24.5 15.5c5.33301 2.66699 13.666 4 24.999 4c10.667 0 21.334 -3 32.001 -9l179 -272c1.33301 -4 2.33301 -7.66699 3 -11s1 -7.33301 1 -12c0 -15.333 -4.5 -27.666 -13.5 -36.999s-18.833 -16 -29.5 -20
c-10.667 -2.66699 -19 -4 -25 -4c-10.667 0 -19.667 3.33301 -27 10l-176 285c-2.66699 10.667 -4 18 -4 22z" />
    <glyph glyph-name="a" unicode="a" 
d="M43 307c0 86 9.50098 165.831 28.501 239.498s48.667 137.834 89 192.501s91.333 98.167 153 130.5s135.5 49.166 221.5 50.499c12 0 22.833 2 32.5 6s19.167 8.33301 28.5 13s20.166 9 32.499 13s27.5 6 45.5 6c10.667 0 23.5 -0.333008 38.5 -1s29.667 -3 44 -7
s26.333 -10 36 -18s14.5 -20.333 14.5 -37c-2.66699 -104 -6 -214.333 -10 -331s-9.66699 -246 -17 -388c0 -5.33301 1.33301 -8 4 -8c8 0 22.333 6.83301 43 20.5s43 29.334 67 47.001l69.5 51c22.333 16.333 39.833 27.166 52.5 32.499l45 -67
c-24.667 -19.333 -52.667 -44.666 -84 -75.999s-65.166 -61.666 -101.499 -90.999s-74.333 -55 -114 -77s-79.167 -33 -118.5 -33c-26 0 -48.167 11 -66.5 33s-30.833 42.667 -37.5 62c-20.667 -23.333 -47.334 -43.5 -80.001 -60.5s-69.667 -25.5 -111 -25.5
c-50.667 0 -94.667 11.167 -132 33.5s-69 50 -95 83s-45.5 68.167 -58.5 105.5s-19.5 71 -19.5 101zM326.001 482.998c0 -32.667 1.33301 -69.833 4 -111.5s9.83398 -80.834 21.501 -117.501s28 -67.667 49 -93s49.833 -38 86.5 -38c15.333 0 25.666 4 30.999 12
s10 19.667 14 35v246v142c0 56.667 -0.666992 136.334 -2 239.001c0 10.667 -8.16699 17 -24.5 19s-29.833 3 -40.5 3c-34 0 -60.667 -10.167 -80 -30.5s-33.333 -47 -42 -80s-13.667 -69.333 -15 -109s-2 -78.5 -2 -116.5z" />
    <glyph glyph-name="b" unicode="b" horiz-adv-x="1038" 
d="M102 1415l0.00390625 144.002c0 20.667 6.5 37 19.5 49s28.5 21.5 46.5 28.5s36.167 11.5 54.5 13.5s32.833 3 43.5 3c15.333 0 30.833 -2.5 46.5 -7.5s30 -11.5 43 -19.5s23.833 -17.5 32.5 -28.5s13 -23.167 13 -36.5v10c0 6.66699 -0.666992 10 -2 10l-2 -13
c-1.33301 -8.66699 -2.33301 -26.334 -3 -53.001s-1.66699 -64.334 -3 -113.001s-3.33301 -112 -6 -190c-2.66699 -57.333 -4 -114.666 -4 -171.999v-172c19.333 27.333 47.666 51.666 84.999 72.999s80.666 32 129.999 32c102.667 0 184.667 -34.5 246 -103.5
s92 -173.833 92 -314.5c0 -10.667 -1 -31 -3 -61l-6 -92.5c-2 -31.667 -4.5 -59.667 -7.5 -84s-5.16699 -36.5 -6.5 -36.5c8 0 23 7.5 45 22.5l70 50l72 54c23.333 17.667 41 29.167 53 34.5l45 -67c-42 -42 -91.667 -86.667 -149 -134s-117.833 -90.5 -181.5 -129.5
s-129 -71.167 -196 -96.5s-131.167 -38 -192.5 -38c-54.667 0 -104.834 13.333 -150.501 40s-84.834 61.167 -117.501 103.5s-58 89.5 -76 141.5s-27 103.333 -27 154v725v83c0 18.667 -0.333008 33 -1 43s-1 19.5 -1 28.5s-0.333008 22.667 -1 41s-1 44.5 -1 78.5z
M383.004 487.002c0 -22 1 -54.666 3 -97.999s7.83301 -86.5 17.5 -129.5s25.334 -81 47.001 -114s51.834 -49.5 90.501 -49.5c30 0 52.833 10.667 68.5 32s27.167 46.666 34.5 75.999s11.666 60 12.999 92s2 58.333 2 79c0 16.667 -0.333008 39.5 -1 68.5s-2 60.333 -4 94
s-6 68.167 -12 103.5s-14.167 67 -24.5 95s-23.333 51.333 -39 70s-35.167 28 -58.5 28c-19.333 0 -36.833 -6.16699 -52.5 -18.5s-29.5 -27.5 -41.5 -45.5s-21.5 -36.167 -28.5 -54.5s-10.5 -32.833 -10.5 -43.5v-7c0 -3.33301 -0.333008 -10.833 -1 -22.5
s-1.33398 -29.5 -2.00098 -53.5s-1 -58 -1 -102z" />
    <glyph glyph-name="c" unicode="c" horiz-adv-x="782" 
d="M59 430v21.0039c0 49.333 7.83301 104 23.5 164s42 116.167 79 168.5s85.833 96.666 146.5 132.999s137 54.5 229 54.5c19.333 0 39.5 -2.83301 60.5 -8.5s40.667 -15.334 59 -29.001s33.333 -32 45 -55s17.5 -52.167 17.5 -87.5
c-1.33301 -31.333 -9.5 -55.666 -24.5 -72.999s-28.167 -26 -39.5 -26c-13.333 0 -21.666 5.16699 -24.999 15.5s-5 29.166 -5 56.499c0 22 -8.66699 42.167 -26 60.5s-47.666 27.5 -90.999 27.5c-30 0 -56.333 -14.667 -79 -44s-41.5 -65.833 -56.5 -109.5
s-26.5 -90.834 -34.5 -141.501s-12 -97 -12 -139c0 -100 17 -180 51 -240s92.667 -90 176 -90c27.333 0 54.666 7.5 81.999 22.5s55.333 34.167 84 57.5s57.667 48.666 87 75.999s59 52.333 89 75l45 -67c-24.667 -20.667 -53 -46.667 -85 -78s-66.333 -62 -103 -92
c-15.333 -15.333 -35 -30.833 -59 -46.5s-50.667 -30 -80 -43s-60.333 -23.5 -93 -31.5s-65.334 -12 -98.001 -12c-75.333 0 -136.833 13 -184.5 39s-84.5 61.167 -110.5 105.5s-43.833 95.5 -53.5 153.5s-14.5 119 -14.5 183z" />
    <glyph glyph-name="d" unicode="d" 
d="M43 365c0 86 9.50195 165.829 28.502 239.496s48.333 137.5 88 191.5s90.167 96.667 151.5 128s134.333 47.666 219 48.999l2 -12v73c0 16.667 -0.333008 33.167 -1 49.5s-1 36.833 -1 61.5v110v66c0 16.667 0.333008 30.334 1 41.001s1 20.5 1 29.5s0.5 20.667 1.5 35
s1.83301 32.833 2.5 55.5s1 52.334 1 89.001c0 20.667 6.33301 36.334 19 47.001s27.667 18.834 45 24.501s35.166 8.83398 53.499 9.50098s32.833 1 43.5 1c15.333 0 31.166 -1.83301 47.499 -5.5s31.666 -8.83398 45.999 -15.501s26.333 -14.834 36 -24.501
s14.5 -21.167 14.5 -34.5c-4 -66.667 -9 -163 -15 -289c-5.33301 -106.667 -11.666 -249.667 -18.999 -429l-28 -679c0 -5.33301 1.33301 -8 4 -8c8 0 22.333 6.83301 43 20.5s43 29.334 67 47.001l69.5 51c22.333 16.333 39.833 27.166 52.5 32.499l45 -67
c-24.667 -19.333 -52.667 -44.666 -84 -75.999s-65.166 -61.666 -101.499 -90.999s-74.333 -55 -114 -77s-79.167 -33 -118.5 -33c-26 0 -48.167 11 -66.5 33s-30.833 42.667 -37.5 62c-20.667 -23.333 -47.334 -43.5 -80.001 -60.5s-69.667 -25.5 -111 -25.5
c-50.667 0 -94.667 14 -132 42s-69 62 -95 102s-45.5 82 -58.5 126s-19.5 81 -19.5 111zM326.002 540.996c0 -32.667 1.33301 -72.999 4 -120.999s9.83398 -94.167 21.501 -138.5s28 -81.833 49 -112.5s49.833 -46 86.5 -46c15.333 0 25.666 4 30.999 12s10 19.667 14 35
v303v142c0 56.667 -0.666992 136.334 -2 239.001c0 10.667 -8.16699 17.167 -24.5 19.5s-29.833 3.5 -40.5 3.5c-34 0 -60.667 -10.333 -80 -31s-33.333 -47.334 -42 -80.001s-13.667 -68.834 -15 -108.501s-2 -78.5 -2 -116.5z" />
    <glyph glyph-name="e" unicode="e" horiz-adv-x="851" 
d="M66 430l0.00390625 21.0059c0 57.333 8.16699 116.666 24.5 177.999s42.833 117.166 79.5 167.499s85.5 92 146.5 125s136.5 49.5 226.5 49.5c38 0 72.333 -10 103 -30s56.667 -45.667 78 -77s37.833 -65.666 49.5 -102.999s17.5 -74.666 17.5 -111.999
c0 -19.333 -3.5 -40.833 -10.5 -64.5s-16.333 -45.834 -28 -66.501s-24.334 -37.834 -38.001 -51.501s-27.167 -20.5 -40.5 -20.5c-23.333 0 -46.666 4.83301 -69.999 14.5s-45.833 21 -67.5 34s-41.667 26.333 -60 40s-35.166 25.167 -50.499 34.5
c-8 5.33301 -12 14.333 -12 27c0 13.333 3.66699 26.5 11 39.5s16.666 19.5 27.999 19.5c4 0 6.66699 -0.666992 8 -2c38 -32.667 70.667 -49 98 -49c23.333 0 39.5 11 48.5 33s13.5 48.667 13.5 80c0 15.333 -2.16699 31 -6.5 47s-10.833 31.167 -19.5 45.5
s-20.5 26.666 -35.5 36.999s-33.5 16.166 -55.5 17.499c-28.667 -4 -54 -21 -76 -51s-40.167 -66.833 -54.5 -110.5s-24.833 -90.834 -31.5 -141.501s-10 -98.334 -10 -143.001c0 -100 17 -180 51 -240s92.667 -90 176 -90c27.333 0 58.5 11.333 93.5 34
s71.167 49.667 108.5 81l111.5 98c37 34 70.5 62.667 100.5 86l45 -68c-12 -9.33301 -29 -24.166 -51 -44.499l-70 -66.5l-74 -70c-24.667 -22.667 -46.334 -41.334 -65.001 -56.001c-15.333 -15.333 -34.833 -30.833 -58.5 -46.5s-50.334 -30 -80.001 -43
s-60.834 -23.5 -93.501 -31.5s-65.334 -12 -98.001 -12c-75.333 0 -136.833 13 -184.5 39s-84.5 61.167 -110.5 105.5s-43.667 95.5 -53 153.5s-14 119 -14 183z" />
    <glyph glyph-name="f" unicode="f" horiz-adv-x="485" 
d="M-78 1116c0 15.333 5.16406 29.8311 15.4971 43.498s26.5 20.5 48.5 20.5l84 -23l4 -2c0 50.667 15 106.334 45 167.001s69.5 117.334 118.5 170.001s106 96.667 171 132s132.167 53 201.5 53s124 -17.667 164 -53s60 -83 60 -143c0 -16.667 -1.5 -34.167 -4.5 -52.5
s-8.5 -35.333 -16.5 -51s-18.833 -29 -32.5 -40s-30.834 -16.5 -51.501 -16.5c-32.667 0 -54.334 8.66699 -65.001 26c-10 15.333 -15 34 -15 56c0 17.333 3.33301 35.666 10 54.999s10.334 36.333 11.001 51c0 10.667 -2.5 19.5 -7.5 26.5s-14.833 10.5 -29.5 10.5
c-58.667 0 -106.167 -14 -142.5 -42s-64.666 -62.5 -84.999 -103.5s-34 -85 -41 -132s-10.5 -89.5 -10.5 -127.5v-30c0 -8.66699 0.666992 -17.334 2 -26.001l109 -28c15.333 -9.33301 22.666 -26.333 21.999 -51c0 -12 -3.66699 -23.667 -11 -35s-21.333 -17 -42 -17
c-12 2.66699 -24.5 5.16699 -37.5 7.5l-42.5 7.5c0 -44 -0.333008 -96.667 -1 -158s-1 -127.833 -1 -199.5s-0.333008 -146.834 -1 -225.501s-1 -156 -1 -232c0 -8 1.33301 -12.333 4 -13c8 0 22.333 6.83301 43 20.5s43 29.5 67 47.5l68.5 51.5
c21.667 16.333 38.834 27.166 51.501 32.499l45 -68c-24.667 -19.333 -54.834 -44.666 -90.501 -75.999s-73.167 -61.666 -112.5 -90.999s-80.166 -54.833 -122.499 -76.5s-82.833 -32.5 -121.5 -32.5c-26 0 -46.167 6.5 -60.5 19.5s-24.5 29.333 -30.5 49
s-9.66699 40.834 -11 63.501s-2 43.334 -2 62.001v281c0 80.667 -0.333008 154.834 -1 222.501s-1.66699 132.167 -3 193.5s-2.66602 126.666 -3.99902 195.999c-19.333 5.33301 -39.166 10.5 -59.499 15.5s-42.166 10.833 -65.499 17.5c-15.333 8 -23 23.667 -23 47z" />
    <glyph glyph-name="g" unicode="g" 
d="M43 328c0 86 9.50391 165.502 28.5039 238.502s48.667 136.833 89 191.5s91.333 98 153 130s135.5 48.667 221.5 50c28.667 0 51.167 2 67.5 6s30.666 8.83301 42.999 14.5s24.5 10.5 36.5 14.5s27.667 6 47 6s37.166 -3.5 53.499 -10.5s24.5 -25.5 24.5 -55.5
c0 -12 -0.666992 -40.167 -2 -84.5l-5 -160c-2 -62.333 -4 -131 -6 -206s-4.66699 -150.5 -8 -226.5c0 -2.66699 0.666992 -4.33398 2 -5.00098c8 0 22.333 7.16699 43 21.5l67 48.5l69.5 52.5c22.333 17 39.833 28.167 52.5 33.5l45 -68
c-18 -13.333 -37.167 -29.833 -57.5 -49.5l-66.5 -62.5c-24 -22 -48.667 -43.167 -74 -63.5s-51.666 -38.833 -78.999 -55.5v-37c0 -57.333 -8.5 -115.333 -25.5 -174s-43.167 -111.834 -78.5 -159.501s-80.333 -86.834 -135 -117.501s-119 -46 -193 -46
c-60 0 -111.167 18.333 -153.5 55s-63.5 90 -63.5 160c0 16.667 2.83301 34 8.5 52s13.5 35 23.5 51s22.167 29.333 36.5 40s31.166 16 50.499 16c13.333 0 20.333 -6.66699 21 -20c-1.33301 -10.667 -2.83301 -21.834 -4.5 -33.501s-2.5 -23.834 -2.5 -36.501
c0 -24.667 2.5 -49.167 7.5 -73.5s13.333 -46.5 25 -66.5s26.667 -36.5 45 -49.5s41.166 -19.5 68.499 -19.5c20.667 0 38.834 4.83301 54.501 14.5s28.5 26.5 38.5 50.5s17.833 55.333 23.5 94s8.5 88.334 8.5 149.001c0 24.667 -0.333008 44.334 -1 59.001
s-2.33398 38.667 -5.00098 72c-20.667 -23.333 -47.334 -43.166 -80.001 -59.499s-69 -24.5 -109 -24.5c-50.667 0 -94.667 12.167 -132 36.5s-69 54 -95 89s-45.5 72.667 -58.5 113s-19.5 75.5 -19.5 105.5zM326.004 502.002c0 -32.667 1.33301 -70.8311 4 -114.498
s9.83398 -85 21.501 -124s28 -72.167 49 -99.5s49.833 -41 86.5 -41c15.333 0 25.666 4 30.999 12s10 19.667 14 35v264v143c0 56.667 -0.666992 136 -2 238c0 10.667 -8.16699 17.167 -24.5 19.5s-29.833 3.5 -40.5 3.5c-34 0 -60.667 -10.333 -80 -31
s-33.333 -47.334 -42 -80.001s-13.667 -68.834 -15 -108.501s-2 -78.5 -2 -116.5z" />
    <glyph glyph-name="h" unicode="h" 
d="M98 817l-0.00390625 102.993c0 27.333 0.333008 52.833 1 76.5s1.33398 49.167 2.00098 76.5s1.33398 61.833 2.00098 103.5s1.83398 94.334 3.50098 158.001s3.16699 143.167 4.5 238.5c0 20.667 7.5 36.334 22.5 47.001s32.333 18.834 52 24.501
s39.667 8.83398 60 9.50098s36.166 1 47.499 1c28.667 0 54.167 -6.16699 76.5 -18.5s33.5 -27.5 33.5 -45.5c0 -1.33301 -0.666992 -5.66602 -2 -12.999s-3 -21.666 -5 -42.999l-8 -87c-3.33301 -36.667 -6.66602 -85.167 -9.99902 -145.5s-6.83301 -133.5 -10.5 -219.5
s-7.5 -188.333 -11.5 -307l17 29c12 23.333 24.5 44.5 37.5 63.5s28.667 35.667 47 50s40.5 25.666 66.5 33.999s59.667 12.5 101 12.5c28.667 0 53.834 -5.83301 75.501 -17.5s40 -27.167 55 -46.5s26.667 -41.166 35 -65.499s12.5 -50.166 12.5 -77.499
c0 -28.667 -1 -71 -3 -127l-6 -173c-2 -59.333 -4.16699 -115.333 -6.5 -168s-4.16602 -89.334 -5.49902 -110.001c0 -8 1.33301 -12 4 -12c8 0 22.333 6.83301 43 20.5s43 29.334 67 47.001l68.5 51c21.667 16.333 38.834 27.166 51.501 32.499l45 -67
c-24.667 -19.333 -52.667 -44.666 -84 -75.999s-65.166 -61.666 -101.499 -90.999s-74.333 -55 -114 -77s-79.167 -33 -118.5 -33c-40.667 0 -70.667 15.167 -90 45.5s-29 62.5 -29 96.5c0 2.66699 0.666992 8 2 16s3.16602 28.5 5.49902 61.5s4.5 82.833 6.5 149.5
s3 160.334 3 281.001c0 34 -4.16699 62.167 -12.5 84.5s-17.833 32.833 -28.5 31.5c-35.333 -2.66699 -63.333 -23.334 -84 -62.001s-36.834 -91.5 -48.501 -158.5s-19.834 -145.167 -24.501 -234.5s-9 -185.333 -13 -288c0 -5.33301 -5.83301 -9.33301 -17.5 -12
s-25 -4.83398 -40 -6.50098s-29.5 -2.5 -43.5 -2.5h-28c-5.33301 0 -13.5 0.5 -24.5 1.5s-22 2.5 -33 4.5s-20.667 5.33301 -29 10s-12.5 11 -12.5 19v443h-2c0 32.667 -0.333008 76.167 -1 130.5s-1 131.5 -1 231.5z" />
    <glyph glyph-name="i" unicode="i" horiz-adv-x="475" 
d="M78 719l-0.000976562 185.999c0 19.333 13.333 33.5 40 42.5s56.334 13.5 89.001 13.5c35.333 0 67.333 -4.5 96 -13.5s44.334 -23.167 47.001 -42.5l-26 -735c0 -4 0.666992 -6 2 -6c8 0 22.5 7.16699 43.5 21.5l68.5 48l71 52c22.667 17 40 28.167 52 33.5l45 -67
c-24.667 -19.333 -52.667 -44.666 -84 -75.999s-65 -61.666 -101 -90.999s-73.833 -55 -113.5 -77s-79.5 -33 -119.5 -33c-26 0 -46.167 6.5 -60.5 19.5s-24.5 29.5 -30.5 49.5s-9.66699 41.167 -11 63.5s-2 43.166 -2 62.499v117c0 34 -0.333008 66 -1 96l-2 92
c-0.666992 31.333 -1.33398 66.833 -2.00098 106.5s-1 85.5 -1 137.5zM89.999 1227c0 46.667 9.99902 85.332 29.999 115.999s58.667 46 116 46c35.333 0 63.833 -11.667 85.5 -35s33.834 -63 36.501 -119c0.666992 -4.66699 1 -9 1 -13
c0 -13.333 -1.66699 -26.666 -5 -39.999c-4 -18 -11.167 -34.167 -21.5 -48.5s-24.333 -26 -42 -35s-40.167 -13.5 -67.5 -13.5c-48 0 -82.167 13.167 -102.5 39.5s-30.5 60.5 -30.5 102.5z" />
    <glyph glyph-name="j" unicode="j" horiz-adv-x="462" 
d="M-250 -342c0 13.333 7.66406 19.998 22.9971 19.998c76.667 0 136.334 9.33301 179.001 28s74.667 45.334 96 80.001s34.333 77 39 127s7 106.333 7 169c-2.66699 15.333 -4 30.333 -4 45v43c0 66.667 -0.333008 122.667 -1 168l-2 141.5
c-0.666992 49 -1.33398 107 -2.00098 174s-1 154.167 -1 261.5c0 19.333 13.333 33.5 40 42.5s56.334 13.5 89.001 13.5c35.333 0 67.333 -4.5 96 -13.5s43.667 -23.167 45 -42.5c-1.33301 -45.333 -2.66602 -97.833 -3.99902 -157.5s-3 -122.667 -5 -189l-6 -201
c-2 -67.667 -4.33301 -131.5 -7 -191.5c0 -5.33301 1.33301 -8 4 -8c8 0 22.333 6.83301 43 20.5s42.834 29.334 66.501 47.001l69.5 51c22.667 16.333 40 27.166 52 32.499l45 -67l-72.5 -53l-91 -68c-30.333 -23.333 -57 -45.166 -80 -65.499s-36.5 -36.833 -40.5 -49.5
c-9.33301 -60 -26.333 -117.667 -51 -173s-56.167 -103.833 -94.5 -145.5s-83.5 -75 -135.5 -100s-110.667 -37.5 -176 -37.5c-15.333 0 -30.166 3.33301 -44.499 10s-26.833 15.167 -37.5 25.5s-19.834 21.333 -27.501 33s-11.5 21.5 -11.5 29.5zM95.9971 1237
c0 46.667 10 85.332 30 115.999s58.667 46 116 46c35.333 0 63.833 -11.667 85.5 -35s34.167 -63 37.5 -119c0.666992 -4.66699 0.666992 -9 0 -13c0 -13.333 -1.66699 -26.666 -5 -39.999c-4 -18 -11 -34.167 -21 -48.5s-24 -25.833 -42 -34.5s-40.667 -13 -68 -13
c-48 0 -82.167 13 -102.5 39s-30.5 60 -30.5 102z" />
    <glyph glyph-name="k" unicode="k" horiz-adv-x="921" 
d="M76 817l-0.000976562 102.994c0 27.333 0.333008 52.833 1 76.5s1.33398 48.834 2.00098 75.501s1.33398 61.167 2.00098 103.5s1.66699 94.833 3 157.5s2.66602 142 3.99902 238c0 20.667 7.5 36.334 22.5 47.001s32.5 18.834 52.5 24.501s40.167 8.83398 60.5 9.50098
s35.833 1 46.5 1c13.333 0 26.666 -2.5 39.999 -7.5s25.333 -11.167 36 -18.5s19.5 -15.5 26.5 -24.5s10.5 -17.5 10.5 -25.5c0 -1.33301 -0.333008 -5.16602 -1 -11.499s-1.66699 -19.333 -3 -39s-3.33301 -47.5 -6 -83.5s-5.83398 -84.833 -9.50098 -146.5
s-7.5 -137.5 -11.5 -227.5s-9.33301 -198.667 -16 -326l8 9l8 8c12 20.667 27.333 43.834 46 69.501s40 50.5 64 74.5s50 44.167 78 60.5s58.333 24.5 91 24.5s61.667 -9.5 87 -28.5s38 -46.167 38 -81.5c0 -22 -2.5 -47.667 -7.5 -77s-13.5 -59 -25.5 -89
s-28.667 -59.333 -50 -88s-48.333 -54 -81 -76c0 -9.33301 3.66699 -25.333 11 -48s16.833 -48 28.5 -76s25 -57.333 40 -88s29.667 -58.334 44 -83.001s28.333 -45.167 42 -61.5s25.5 -24.5 35.5 -24.5l-2 -2c8 0 23.167 7.16699 45.5 21.5l71.5 48l73 51
c23.333 16.333 41 27.166 53 32.499l45 -67c-24.667 -19.333 -52.667 -44.666 -84 -75.999s-65 -61.666 -101 -90.999s-73.833 -55 -113.5 -77s-79.167 -33 -118.5 -33c-26 0 -51 9 -75 27s-46.333 41 -67 69s-40.167 58.667 -58.5 92s-35 66 -50 98l-41 88
c-12.333 26.667 -23.166 47 -32.499 61l-55 -424c0 -5.33301 -4.5 -9.5 -13.5 -12.5s-19.333 -5.16699 -31 -6.5s-23.167 -2 -34.5 -2h-26c-5.33301 0 -13.166 0.333008 -23.499 1s-21 2 -32 4s-20.5 5.5 -28.5 10.5s-12 11.5 -12 19.5l-4 455
c0 32.667 -0.333008 76.167 -1 130.5s-1 131.5 -1 231.5zM380.999 536.994c19.333 10.667 38.499 22.502 57.499 35.502s36 27.667 51 44s27.333 34.666 37 54.999s14.5 42.833 14.5 67.5c0 10.667 -0.666992 20.167 -2 28.5s-7.66602 12.5 -18.999 12.5
c-20.667 0 -39.5 -9.5 -56.5 -28.5s-31.667 -41.167 -44 -66.5s-21.833 -50.333 -28.5 -75s-10 -42.334 -10 -53.001v-20z" />
    <glyph glyph-name="l" unicode="l" horiz-adv-x="468" 
d="M98 623l-0.00390625 193.995v103c0 27.333 0.333008 52.833 1 76.5s1.33398 48.834 2.00098 75.501s1.33398 61.167 2.00098 103.5s1.83398 94.833 3.50098 157.5s3.16699 142 4.5 238c0 20.667 7.5 36.334 22.5 47.001s32.333 18.834 52 24.501
s39.667 8.83398 60 9.50098s36.166 1 47.499 1c28.667 0 55.334 -6.66699 80.001 -20c23.333 -12 35 -30.667 35 -56c0 -26 -2.16699 -72.5 -6.5 -139.5s-7.16602 -116.167 -8.49902 -147.5c-5.33301 -104 -11.333 -243.333 -18 -418l-25 -659
c0 -5.33301 -1.33301 -13.833 -4 -25.5s-4 -20.834 -4 -27.501c0 -4 0.666992 -6 2 -6c8 0 22.667 7.5 44 22.5s44.333 32.333 69 52l71.5 56c23 17.667 40.833 29.167 53.5 34.5l45 -67c-24.667 -19.333 -52.667 -44.666 -84 -75.999s-65.166 -61.666 -101.499 -90.999
s-74.333 -55 -114 -77s-79.167 -33 -118.5 -33c-26 0 -46.167 6.5 -60.5 19.5s-24.5 29.5 -30.5 49.5s-9.83301 41.167 -11.5 63.5s-2.5 43.166 -2.5 62.499v111c0 27.333 -0.333008 51.333 -1 72l-2 64c-0.666992 21.333 -1.33398 48.333 -2.00098 81s-1 74.334 -1 125.001
z" />
    <glyph glyph-name="m" unicode="m" horiz-adv-x="1171" 
d="M63 905c0 24.667 12.3301 42.834 36.9971 54.501s52.667 17.5 84 17.5c16.667 0 33.5 -1.66699 50.5 -5s32.333 -8.16602 46 -14.499s24.334 -13.833 32.001 -22.5s11.5 -18.667 11.5 -30c0 -19.333 -0.333008 -38.833 -1 -58.5s-1 -40.5 -1 -62.5l16 29
c12 23.333 24.167 44.5 36.5 63.5s25.666 35.667 39.999 50s30.833 25.666 49.5 33.999s40 12.5 64 12.5c27.333 0 50.666 -5.83301 69.999 -17.5s34.333 -26.667 45 -45s18.834 -39.833 24.501 -64.5s8.5 -50 8.5 -76l26 43l39 62.5c12.667 19.667 26.167 36.667 40.5 51
s30.333 25.666 48 33.999s38.834 12.5 63.501 12.5c28.667 0 53.834 -5.83301 75.501 -17.5s40.167 -27 55.5 -46s27 -40.833 35 -65.5s12 -50.667 12 -78c0 -26 -0.666992 -63.5 -2 -112.5s-3 -101.167 -5 -156.5l-6 -160c-2 -51.333 -3.66699 -92.666 -5 -123.999
c0 -5.33301 -1.5 -13.166 -4.5 -23.499s-4.5 -18.833 -4.5 -25.5c0 -4 1 -6 3 -6c8 0 22.5 7.5 43.5 22.5l68.5 50l72 54c23.333 17.667 41 29.167 53 34.5l45 -67c-24.667 -19.333 -52.667 -44.666 -84 -75.999s-65 -61.666 -101 -90.999s-73.833 -55 -113.5 -77
s-79.5 -33 -119.5 -33c-24.667 0 -44.834 5.5 -60.501 16.5s-28.167 25.333 -37.5 43s-16.166 36.834 -20.499 57.501s-6.5 40.667 -6.5 60c0 83.333 0.833008 155.666 2.5 216.999s3.5 113.833 5.5 157.5l5 107.5c1.33301 28 2 50 2 66c0 20.667 -1 34.167 -3 40.5
s-5.33301 9.5 -10 9.5c-30 0 -53.5 -16.5 -70.5 -49.5s-29.5 -76 -37.5 -129s-13 -113 -15 -180s-3 -135.5 -3 -205.5v-161l-3 -27c0 -5.33301 -5.66699 -9.33301 -17 -12s-24.5 -4.83398 -39.5 -6.50098s-29.5 -2.5 -43.5 -2.5h-29c-5.33301 0 -13.5 0.5 -24.5 1.5
s-21.833 2.5 -32.5 4.5s-20.167 5.33301 -28.5 10s-12.5 11 -12.5 19c0 110.667 0.333008 199.5 1 266.5s1.33398 123.333 2.00098 169s1 86.5 1 122.5v130c0 20.667 -1 34.167 -3 40.5s-5 9.5 -9 9.5c-30 0 -53.5 -16.5 -70.5 -49.5s-29.667 -76 -38 -129
s-13.5 -113 -15.5 -180s-3 -135.5 -3 -205.5v-161l-2 -27c0 -5.33301 -5.83301 -9.33301 -17.5 -12s-25 -4.83398 -40 -6.50098s-29.167 -2.5 -42.5 -2.5h-29c-5.33301 0 -13.5 0.5 -24.5 1.5s-22 2.5 -33 4.5s-20.5 5.33301 -28.5 10s-12 11 -12 19v615h-2
c0 27.333 -0.5 63.166 -1.5 107.499s-1.5 101.166 -1.5 170.499z" />
    <glyph glyph-name="n" unicode="n" horiz-adv-x="901" 
d="M92 905c0 24.667 13.6699 42.834 41.0029 54.501s56.666 17.5 87.999 17.5c34 0 64.667 -6.33301 92 -19c26 -12 39 -28.667 39 -50c0 -19.333 -0.333008 -39.666 -1 -60.999c-0.666992 -20 -1 -41 -1 -63l17 29c12 23.333 24.5 44.5 37.5 63.5s28.667 35.667 47 50
s40.5 25.666 66.5 33.999s59.333 12.5 100 12.5c28.667 0 54 -5.83301 76 -17.5s40.5 -27 55.5 -46s26.667 -40.833 35 -65.5s12.5 -50.667 12.5 -78c0 -30 -1 -71.667 -3 -125s-4.83301 -109 -8.5 -167s-6.5 -114.333 -8.5 -169s-3 -98.334 -3 -131.001
c0 -6.66699 1.33301 -10 4 -10c8 0 22.333 7.16699 43 21.5l67 48l69.5 52c22.333 17 39.833 28.167 52.5 33.5l45 -67c-24.667 -19.333 -52.667 -44.666 -84 -75.999s-65.166 -61.666 -101.499 -90.999s-74.333 -55 -114 -77s-79.167 -33 -118.5 -33
c-24.667 0 -44.834 5.83301 -60.501 17.5s-28.334 26.334 -38.001 44.001s-15.834 37.5 -18.501 59.5s-2.66699 43.333 0 64l10 471c0 5.33301 0.333008 10.333 1 15c0 27.333 -3.33301 50.666 -10 69.999c-7.33301 22.667 -16.333 34 -27 34
c-24.667 0 -45.167 -11 -61.5 -33s-30 -51.167 -41 -87.5s-20 -79 -27 -128s-12.5 -100.5 -16.5 -154.5s-7.66699 -109.333 -11 -166s-7 -111 -11 -163l-2 -26c0 -5.33301 -5.83301 -9.5 -17.5 -12.5s-25 -5.16699 -40 -6.5s-29.5 -2 -43.5 -2h-28
c-5.33301 0 -13.5 0.333008 -24.5 1s-22 2.16699 -33 4.5s-21 5.83301 -30 10.5s-13.5 11 -13.5 19v621c0 27.333 -0.333008 63.166 -1 107.499s-1 101.166 -1 170.499z" />
    <glyph glyph-name="o" unicode="o" horiz-adv-x="958" 
d="M55 416c0 50.667 6.83594 108.001 20.5029 172.001s38.667 124.667 75 182s86.166 105.5 149.499 144.5s145 58.5 245 58.5c40.667 0 81.167 -8.5 121.5 -25.5s76.5 -43 108.5 -78s58 -78.833 78 -131.5s30 -113.667 30 -183c0 -13.333 -0.666992 -31.333 -2 -54
s-3.5 -46.334 -6.5 -71.001l-9.5 -76c-3.33301 -26 -7 -49 -11 -69c0 -2.66699 0.666992 -4 2 -4c8 0 23 7.5 45 22.5l72 50l73.5 54c23 17.667 40.833 29.167 53.5 34.5l45 -67c-42 -42 -91.833 -86.667 -149.5 -134s-118.167 -90.5 -181.5 -129.5
s-128.5 -71.167 -195.5 -96.5s-131.167 -38 -192.5 -38c-54.667 0 -104.834 13.333 -150.501 40s-84.834 61.167 -117.501 103.5s-58 89.5 -76 141.5s-27 103.333 -27 154zM332.003 487.001c0 -22 0.999023 -54.666 2.99902 -97.999s7.83301 -86.5 17.5 -129.5
s25.334 -81 47.001 -114s51.5 -49.5 89.5 -49.5c30 0 53 10.667 69 32s27.667 46.666 35 75.999s11.666 60 12.999 92s2 58.333 2 79c0 16.667 -0.333008 39.5 -1 68.5s-2 60.333 -4 94s-6 68.167 -12 103.5s-14.167 67 -24.5 95s-23.333 51.333 -39 70s-35.167 28 -58.5 28
c-31.333 0 -56.166 -9.33301 -74.499 -28s-32 -42 -41 -70s-14.833 -57.667 -17.5 -89s-4 -60 -4 -86v-74z" />
    <glyph glyph-name="p" unicode="p" horiz-adv-x="929" 
d="M57 -330c0 36.667 0.665039 101.501 1.99805 194.501s3.5 204.667 6.5 335l9.5 432c3.33301 157.667 7.66602 319.834 12.999 486.501c1.33301 34 16.666 62 45.999 84s60.333 33 93 33c27.333 0 50.333 -8.83301 69 -26.5s28 -46.5 28 -86.5v-133
c0 -52 0.666992 -102.333 2 -151c12 24.667 27.833 46.167 47.5 64.5s41.167 33.666 64.5 45.999s47.333 21.5 72 27.5s47.334 9 68.001 9c50.667 0 95 -16.333 133 -49s70 -72.167 96 -118.5s45.5 -95.5 58.5 -147.5s19.5 -96.333 19.5 -133
c0 -10.667 -0.666992 -30.167 -2 -58.5s-3.5 -57.5 -6.5 -87.5s-6.5 -56.167 -10.5 -78.5s-8.66699 -33.5 -14 -33.5c4 0 11.167 1 21.5 3s24.666 8 42.999 18s42.5 26.333 72.5 49s67.667 54.334 113 95.001l45 -67c-30 -30 -63.833 -61.5 -101.5 -94.5
s-77.667 -64.833 -120 -95.5s-86 -59.667 -131 -87s-90.833 -51 -137.5 -71c-38 -16.667 -78.667 -25 -122 -25c-38 0 -68.667 7.5 -92 22.5s-40.5 33.5 -51.5 55.5s-18.167 44.167 -21.5 66.5s-5 41.166 -5 56.499c0 9.33301 1 18.833 3 28.5s7.66699 14.5 17 14.5
c5.33301 0 10.166 -6.83301 14.499 -20.5s10.833 -29 19.5 -46s21.167 -32.333 37.5 -46s40.166 -20.5 71.499 -20.5c19.333 0 34.5 7.83301 45.5 23.5s19.167 38.834 24.5 69.501s8.66602 69.5 9.99902 116.5s2 101.167 2 162.5c0 32.667 -2 69.167 -6 109.5
s-12.167 78 -24.5 113s-29.666 64 -51.999 87s-52.166 34.5 -89.499 34.5c-15.333 0 -34.166 -9.16699 -56.499 -27.5s-40.166 -45.166 -53.499 -80.499v-1063c0 -20.667 -5.16699 -36.334 -15.5 -47.001s-23 -18.834 -38 -24.501s-30.667 -8.83398 -47 -9.50098
s-30.166 -1 -41.499 -1c-26 0 -47.167 3.5 -63.5 10.5s-29.166 15.5 -38.499 25.5s-16.166 20.167 -20.499 30.5s-6.5 18.833 -6.5 25.5z" />
    <glyph glyph-name="q" unicode="q" 
d="M43 328c0 86 9.50098 165.827 28.501 239.494s48.667 137.834 89 192.501s91.333 98 153 130s135.5 48.667 221.5 50c65.333 1.33301 117.5 9.5 156.5 24.5s67.167 22.5 84.5 22.5c10.667 0 18.5 -5.16699 23.5 -15.5s7.5 -29.166 7.5 -56.499
c0 -12 -0.666992 -41.167 -2 -87.5l-5 -166c-2 -64.333 -4 -133 -6 -206s-3 -141.5 -3 -205.5c0 -6.66699 0.666992 -10 2 -10c8 0 22.167 6.83301 42.5 20.5l66.5 47l69 52c22 17 39 28.167 51 33.5l45 -67c-18 -13.333 -37.5 -30.333 -58.5 -51l-66.5 -63
c-23.333 -21.333 -48 -42.5 -74 -63.5s-52.667 -39.833 -80 -56.5v-84v-67c0 -38 -0.333008 -79.667 -1 -125s-1.33398 -87.5 -2.00098 -126.5s-1.66699 -61.833 -3 -68.5c0 -5.33301 -3.33301 -11.166 -10 -17.499s-16.167 -12.166 -28.5 -17.499s-26 -9.66602 -41 -12.999
s-30.833 -5 -47.5 -5c-28.667 0 -54.167 6.16699 -76.5 18.5s-34.833 23.833 -37.5 34.5v453c-20.667 -23.333 -48 -44.166 -82 -62.499s-71 -27.5 -111 -27.5c-50.667 0 -94.667 12.167 -132 36.5s-69 54 -95 89s-45.5 72.667 -58.5 113s-19.5 75.5 -19.5 105.5z
M326.001 503.994c0 -32.667 1.33301 -71.165 4 -115.498s9.83398 -86 21.501 -125s28 -72.167 49 -99.5s49.833 -41 86.5 -41c15.333 0 25.666 4 30.999 12s10 19.667 14 35v266v143c0 56.667 -0.666992 136 -2 238c0 10.667 -8.16699 17.167 -24.5 19.5
s-29.833 3.5 -40.5 3.5c-34 0 -60.667 -10.333 -80 -31s-33.333 -47.334 -42 -80.001s-13.667 -68.834 -15 -108.501s-2 -78.5 -2 -116.5z" />
    <glyph glyph-name="r" unicode="r" horiz-adv-x="788" 
d="M68 905c0 24.667 12.167 42.833 36.5 54.5s52.166 17.5 83.499 17.5c16.667 0 33.5 -1.66699 50.5 -5s32.333 -8.16602 46 -14.499s24.334 -13.833 32.001 -22.5s11.5 -18.667 11.5 -30c0 -19.333 -0.333008 -38.833 -1 -58.5s-1 -40.5 -1 -62.5l16 29
c12 23.333 24.5 44.5 37.5 63.5s28.833 35.667 47.5 50s40.834 25.666 66.501 33.999s59.167 12.5 100.5 12.5c28.667 0 53.834 -5.83301 75.501 -17.5s40.167 -27 55.5 -46s27 -40.833 35 -65.5s12 -50.667 12 -78c0 -30 -3 -62.5 -9 -97.5s-16.833 -67.167 -32.5 -96.5
s-37.167 -53.5 -64.5 -72.5s-62.333 -28.5 -105 -28.5h-2l3 -11c2 -7.33301 6.5 -15.166 13.5 -23.499s16.333 -16 28 -23s27.5 -10.5 47.5 -10.5c40.667 0 77.167 12.667 109.5 38s59.833 55.5 82.5 90.5s41.167 70.5 55.5 106.5s25.5 65 33.5 87v-168
c-10.667 -22 -24.334 -46.667 -41.001 -74s-36.5 -53.166 -59.5 -77.499s-49.5 -44.833 -79.5 -61.5s-63.667 -25 -101 -25c-34 0 -63.667 11.667 -89 35s-46.166 50.333 -62.499 81s-28.5 61 -36.5 91s-12 52 -12 66c0 44 3 77.833 9 101.5s20.667 49.167 44 76.5
c0 1.33301 -1.33301 2 -4 2c-49.333 0 -86 -21.833 -110 -65.5s-41.333 -101 -52 -172s-17.834 -151.5 -21.501 -241.5s-8.83398 -181.667 -15.501 -275l-2 -26c0 -5.33301 -5.83301 -9.5 -17.5 -12.5s-25 -5.16699 -40 -6.5s-29.167 -2 -42.5 -2h-29
c-5.33301 0 -13.5 0.333008 -24.5 1s-22 2.16699 -33 4.5s-20.5 5.83301 -28.5 10.5s-12 11 -12 19l-2 621c0 27.333 -0.333008 63.166 -1 107.499s-1 101.166 -1 170.499z" />
    <glyph glyph-name="s" unicode="s" horiz-adv-x="616" 
d="M0 160c0 39.333 7.49805 70.001 22.498 92.001s28.5 33.667 40.5 35c2.66699 0 4.33398 -5 5.00098 -15c0 -13.333 1.66699 -31.666 5 -54.999s10.833 -46.5 22.5 -69.5s27.334 -43.167 47.001 -60.5s45.834 -26 78.501 -26c22 0 42.833 11.667 62.5 35
s29.5 51.333 29.5 84c0 18 -5.33301 39.333 -16 64l-160 235c-15.333 27.333 -25.666 50.666 -30.999 69.999s-8 36.333 -8 51c0 12 1.33301 23.833 4 35.5s7.66699 27.167 15 46.5c5.33301 8 11.333 25.667 18 53l20.5 87c7 30.667 12.833 60 17.5 88s7 47 7 57h56
c9.33301 -80.667 29.666 -149.334 60.999 -206.001s64 -109 98 -157s64.333 -94.5 91 -139.5s40 -96.167 40 -153.5v-39v-20c0 -9.33301 0.666992 -14 2 -14c6.66699 0 16.167 8.5 28.5 25.5s25.666 38.5 39.999 64.5l46.5 87l47.5 93l41 83l26.5 54l43 -86
c-34 -83.333 -70.5 -161.166 -109.5 -233.499s-82.833 -135.166 -131.5 -188.499s-102.667 -95.333 -162 -126s-125.666 -46 -198.999 -46c-30 0 -57 5.83301 -81 17.5s-44.833 26.667 -62.5 45s-31.334 39.166 -41.001 62.499s-14.5 46.666 -14.5 69.999z" />
    <glyph glyph-name="t" unicode="t" horiz-adv-x="512" 
d="M-31 1004c0 15.333 5.16992 29.666 15.5029 42.999s26.5 20 48.5 20l84 -23l4 111c0 20.667 7.5 36.5 22.5 47.5s32.333 19.167 52 24.5s39.5 8.33301 59.5 9s36 1 48 1c15.333 0 29.833 -2.66699 43.5 -8s25.5 -11.833 35.5 -19.5s18.5 -14.834 25.5 -21.501
s10.5 -11.334 10.5 -14.001c0 -4 -1.33301 -13.667 -4 -29c-2.66699 -13.333 -4.66699 -33.5 -6 -60.5s-3.66602 -64.167 -6.99902 -111.5l111 -29c15.333 -9.33301 23 -26.333 23 -51c0 -12 -3.83301 -23.5 -11.5 -34.5s-21.834 -16.5 -42.501 -16.5l-41.5 8l-44.5 8
c-1.33301 -38 -3 -79.5 -5 -124.5s-4 -94.833 -6 -149.5s-4.66699 -116.167 -8 -184.5l-11 -231.5c0 -2.66699 0.666992 -4 2 -4c8 0 22.5 7.16699 43.5 21.5l68.5 48l72 52c23.333 17 41 28.167 53 33.5l45 -67c-24.667 -19.333 -52.667 -44.666 -84 -75.999
s-65 -61.666 -101 -90.999s-73.833 -55 -113.5 -77s-79.5 -33 -119.5 -33c-26 0 -46 6.5 -60 19.5s-24.167 29.5 -30.5 49.5s-10.166 41.167 -11.499 63.5s-2 43.166 -2 62.499c0 49.333 -0.333008 88 -1 116s-1.33398 53.167 -2.00098 75.5l-2 69.5
c-0.666992 24 -1.33398 55.833 -2.00098 95.5s-1.33398 90.834 -2.00098 153.501s-1 144 -1 244c-12 2.66699 -26.333 5.33398 -43 8.00098s-32.834 6.66699 -48.501 12s-29 12.5 -40 21.5s-16.5 21.833 -16.5 38.5z" />
    <glyph glyph-name="u" unicode="u" horiz-adv-x="886" 
d="M76 176c0 16.667 0.336914 45.1641 1.00391 85.4971s1.33398 86 2.00098 137s1.66699 105.167 3 162.5s2.66602 111 3.99902 161s2.66602 93.667 3.99902 131s2 62.333 2 75c0 10.667 12 18.834 36 24.501s51.667 8.5 83 8.5c34 0 65.667 -2.83301 95 -8.5
s44 -13.167 44 -22.5v-2v-619c0 -34 2 -61.833 6 -83.5s11.667 -32.5 23 -32.5c40.667 0 72.667 21 96 63s40.5 97.167 51.5 165.5s17.5 147 19.5 236s3 179.167 3 270.5c0 10.667 5.83301 18.834 17.5 24.501s25 9.5 40 11.5s29.333 3.33301 43 4s23.167 1 28.5 1
s14.166 -0.333008 26.499 -1s25 -2.83398 38 -6.50098s24.333 -9.16699 34 -16.5s14.5 -18 14.5 -32c-8 -217.333 -14.5 -385 -19.5 -503s-7.5 -194.667 -7.5 -230c0 -5.33301 1.33301 -8 4 -8c8 0 22.333 6.5 43 19.5s42.834 28 66.501 45l69.5 50
c22.667 16.333 40 27.166 52 32.499l45 -67c-24.667 -19.333 -51.5 -44.666 -80.5 -75.999s-60.333 -61.666 -94 -90.999s-69.167 -55 -106.5 -77s-76 -33 -116 -33c-35.333 0 -63.333 13.667 -84 41s-34.334 74.666 -41.001 141.999
c-16.667 -30 -32.334 -56.667 -47.001 -80s-31.667 -43.166 -51 -59.499s-42.333 -28.666 -69 -36.999s-60.334 -12.5 -101.001 -12.5c-28.667 0 -54 5.83301 -76 17.5s-40.5 27 -55.5 46s-26.5 41.167 -34.5 66.5s-12 51 -12 77z" />
    <glyph glyph-name="v" unicode="v" horiz-adv-x="847" 
d="M47 797c0 30 2.66699 55.833 8 77.5s16.666 39.667 33.999 54s42.333 25 75 32s76.334 10.5 131.001 10.5c12 0 24.167 -3.16699 36.5 -9.5s18.5 -14.833 18.5 -25.5c-8 -48 -14.667 -96.5 -20 -145.5s-8 -98.833 -8 -149.5c0 -76.667 8.5 -151.5 25.5 -224.5
s49.167 -143.5 96.5 -211.5c1.33301 -1.33301 3.66602 -2 6.99902 -2c9.33301 0 21.833 14 37.5 42s31.334 63.167 47.001 105.5s29 88.666 40 138.999s16.5 97.5 16.5 141.5c0 39.333 -6.33301 73.333 -19 102c-9.33301 26 -14 53.333 -14 82
c0 16.667 4.5 32.167 13.5 46.5s20.667 27.333 35 39s30.666 20.5 48.999 26.5s37.166 9 56.499 9c5.33301 0 10 -2 14 -6s7.33301 -9 10 -15c4 -5.33301 7.66699 -12 11 -20c4 -16.667 6.66699 -34.167 8 -52.5s2 -40.5 2 -66.5c15.333 -4 34.5 -7.66699 57.5 -11
s42.5 -5 58.5 -5c5.33301 0 15.333 1 30 3s29.834 4.33301 45.501 7s30.667 5.66699 45 9s24.166 6.33301 29.499 9v-88c-5.33301 -1.33301 -15.5 -3.33301 -30.5 -6s-30.333 -5 -46 -7s-30.334 -4 -44.001 -6s-23.5 -3 -29.5 -3c-16.667 0 -35.834 1.33301 -57.501 4
s-43.167 7.33398 -64.5 14.001c-9.33301 -64 -26.666 -131.167 -51.999 -201.5s-56.166 -137.833 -92.499 -202.5s-76.666 -124.334 -120.999 -179.001s-89.833 -99 -136.5 -133h-35l-29.5 47l-27.5 43c-45.333 69.333 -81.5 127.833 -108.5 175.5
s-48.167 95.834 -63.5 144.501s-25.666 104.167 -30.999 166.5s-8 142.5 -8 240.5z" />
    <glyph glyph-name="w" unicode="w" horiz-adv-x="1230" 
d="M47 797c0 30 2.66602 55.832 7.99902 77.499s16.666 39.667 33.999 54s42.333 25 75 32s76.334 10.5 131.001 10.5c12 0 24.167 -3.16699 36.5 -9.5s18.5 -14.833 18.5 -25.5c-8 -48 -16.833 -96.5 -26.5 -145.5s-14.5 -98.833 -14.5 -149.5
c0 -38 0.333008 -75.833 1 -113.5s4.16699 -74.667 10.5 -111s16 -72.166 29 -107.499s30.833 -70 53.5 -104c1.33301 -1.33301 3.66602 -2 6.99902 -2c6.66699 0 15.167 8.16699 25.5 24.5s21.166 38.5 32.499 66.5s21.833 59.333 31.5 94s17.167 70.667 22.5 108
c-6.66699 38 -10.667 81.167 -12 129.5s-2 105.5 -2 171.5c0 30 2.66699 55.833 8 77.5s16.5 39.667 33.5 54s42 25 75 32s76.833 10.5 131.5 10.5c12 0 24.167 -3.16699 36.5 -9.5s18.5 -14.833 18.5 -25.5c-8 -48 -16.833 -96.5 -26.5 -145.5s-14.5 -98.833 -14.5 -149.5
c0 -38 0.333008 -75.833 1 -113.5s4.16699 -74.667 10.5 -111s15.833 -72.166 28.5 -107.499s30.667 -70 54 -104c1.33301 -1.33301 3.33301 -2 6 -2c9.33301 0 20 14 32 42s23 63.167 33 105.5s18.5 88.666 25.5 138.999s10.5 97.5 10.5 141.5
c0 39.333 -6.33301 73.333 -19 102c-9.33301 26 -14 53.333 -14 82c0 16.667 4.5 32.167 13.5 46.5s20.667 27.333 35 39s30.666 20.5 48.999 26.5s37.166 9 56.499 9c5.33301 0 10 -2 14 -6s7.33301 -9 10 -15c4 -5.33301 7.33301 -12 10 -20
c2.66699 -12 5.16699 -26 7.5 -42s4.83301 -41.667 7.5 -77c15.333 -4 36.833 -7.66699 64.5 -11s49.834 -5 66.501 -5c5.33301 0 14.5 1 27.5 3s26.333 4.33301 40 7l40 8c13 2.66699 22.167 5.33398 27.5 8.00098v-88c-5.33301 -1.33301 -14.5 -3.33301 -27.5 -6
s-26.667 -5 -41 -7s-27.666 -3.66699 -39.999 -5s-21.166 -2 -26.499 -2c-16.667 0 -38.334 1.33301 -65.001 4s-50.667 7.33398 -72 14.001c-5.33301 -65.333 -16.666 -133.166 -33.999 -203.499s-39.666 -137.833 -66.999 -202.5s-59.666 -124.334 -96.999 -179.001
s-79.333 -98.334 -126 -131.001h-35l-29.5 47l-27.5 43l-73 116c-21.333 33.333 -39.333 65.666 -54 96.999c-27.333 -64 -62.833 -122.333 -106.5 -175s-88.834 -95.334 -135.501 -128.001h-35l-29.5 47l-27.5 43c-45.333 69.333 -81.5 127.833 -108.5 175.5
s-48.167 95.834 -63.5 144.501s-25.666 104.167 -30.999 166.5s-8 142.5 -8 240.5z" />
    <glyph glyph-name="x" unicode="x" horiz-adv-x="876" 
d="M-47 43c0 4 4.00391 9.16504 12.0039 15.498s15 10.833 21 13.5c36.667 20.667 82 56.5 136 107.5s113.667 111.833 179 182.5l-98 148c-31.333 49.333 -59.333 96.166 -84 140.499s-44.167 84.5 -58.5 120.5s-21.5 65 -21.5 87c0 19.333 6.5 37.166 19.5 53.499
s29 30.333 48 42s39.833 20.834 62.5 27.501s44 10 64 10c24.667 0 47 -4 67 -12s34 -21 42 -39l6 -12c2.66699 -5.33301 6 -11.666 10 -18.999c13.333 -27.333 33.833 -66.166 61.5 -116.499l90.5 -165.5c35.333 50.667 68.333 102.834 99 156.501
s58.334 109.167 83.001 166.5c4 9.33301 12.333 14.333 25 15c8 0 20.167 -5.16699 36.5 -15.5s32 -23.333 47 -39s28.333 -32.334 40 -50.001s17.5 -34.167 17.5 -49.5c0 -10.667 -3.33301 -19.667 -10 -27c-50.667 -57.333 -95.167 -112.5 -133.5 -165.5
s-77.833 -104.167 -118.5 -153.5l64.5 -102.5c22.333 -34.333 43.833 -65.5 64.5 -93.5s39.5 -51.167 56.5 -69.5s29.5 -28.833 37.5 -31.5c8 0 21.667 7.16699 41 21.5l61.5 47l62.5 50c20 16.333 36 27.166 48 32.499l45 -67
c-24.667 -19.333 -53.334 -44.666 -86.001 -75.999s-67.834 -61.666 -105.501 -90.999s-76.5 -55 -116.5 -77s-80 -33 -120 -33c-8 0 -21.167 7.16699 -39.5 21.5s-39.5 33.833 -63.5 58.5s-49.333 52.667 -76 84l-81 99
c-50.667 -50.667 -107.334 -98.834 -170.001 -144.501s-119.334 -84.5 -170.001 -116.5l-6 -2c-6.66699 0 -15.167 2.83301 -25.5 8.5s-20.333 11.834 -30 18.501s-17.834 14.167 -24.501 22.5s-10 14.5 -10 18.5z" />
    <glyph glyph-name="y" unicode="y" horiz-adv-x="798" 
d="M61 631c0 96.667 5.16504 167.5 15.498 212.5s23.833 76.5 40.5 94.5c6.66699 6.66699 22.334 12.5 47.001 17.5s50.667 7.5 78 7.5c26 0 48.833 -2.83301 68.5 -8.5s28.834 -14.5 27.501 -26.5c-2.66699 -49.333 -5.33398 -105.333 -8.00098 -168l-8.5 -192.5
c-3 -65.667 -5.16699 -129.5 -6.5 -191.5s-2 -117.667 -2 -167c0 -26 3.16699 -52 9.5 -78s18.166 -39 35.499 -39c18 0 32.833 5.5 44.5 16.5s21.167 24.333 28.5 40s13.166 32.667 17.499 51s7.83301 35.833 10.5 52.5c6.66699 38 10.334 82 11.001 132l2 154.5
c0.666992 53 2.66699 105.167 6 156.5s10.833 97.5 22.5 138.5s29.5 73.833 53.5 98.5s57 37 99 37c4 0 10.833 -1 20.5 -3s19 -7.83301 28 -17.5s16.833 -24.834 23.5 -45.501s10 -49.334 10 -86.001c0 -74 -3.33301 -154.333 -10 -241s-10 -175.667 -10 -267
c0 -1.33301 0.666992 -2 2 -2c6.66699 0 20.667 6.16699 42 18.5l68.5 41l71.5 45c23.333 15 41 25.167 53 30.5l45 -67c-19.333 -15.333 -46 -34.166 -80 -56.499l-102 -69.5c-34 -24 -63.333 -47 -88 -69s-37 -39.667 -37 -53
c-1.33301 -91.333 -11.166 -173.5 -29.499 -246.5s-43.833 -135.167 -76.5 -186.5s-71.667 -90.666 -117 -117.999s-95.333 -41 -150 -41c-19.333 0 -39.166 2.66699 -59.499 8s-39 13.5 -56 24.5s-31 25.5 -42 43.5s-16.5 39 -16.5 63c0 20.667 7.5 38.5 22.5 53.5
s32.833 22.5 53.5 22.5c19.333 0 32 -6.16699 38 -18.5s11.167 -26 15.5 -41s10.166 -28.667 17.499 -41s23.333 -18.5 48 -18.5c45.333 0 80.5 16.833 105.5 50.5s43 76 54 127s17.5 107 19.5 168s3 117.833 3 170.5l-4 -18c-5.33301 -23.333 -12.166 -49 -20.499 -77
s-21.666 -53.833 -39.999 -77.5s-42.833 -43.834 -73.5 -60.501s-70.667 -25 -120 -25c-32.667 0 -61.334 18.167 -86.001 54.5s-45.5 87.333 -62.5 153s-30 143.834 -39 234.501s-13.5 190.667 -13.5 300z" />
    <glyph glyph-name="z" unicode="z" horiz-adv-x="976" 
d="M39 553c0 58.667 13.6709 113.675 41.0039 165.008s63.166 95.666 107.499 132.999s94.833 66.666 151.5 87.999s114.334 32 173.001 32c39.333 0 77.166 -7.16699 113.499 -21.5s68.166 -34.5 95.499 -60.5s49.166 -57.5 65.499 -94.5s24.5 -77.833 24.5 -122.5
c0 -24.667 -3 -50 -9 -76s-13.167 -51 -21.5 -75s-16.666 -45.167 -24.999 -63.5s-15.166 -32.833 -20.499 -43.5c8 -6.66699 19.667 -22.334 35 -47.001s32.333 -55 51 -91c8 0 21.667 5.5 41 16.5l62.5 37l65.5 41c21.333 13.667 38 23.167 50 28.5l45 -67
c-13.333 -10.667 -32.666 -25.334 -57.999 -44.001l-73.5 -56.5c-23.667 -19 -44.5 -37 -62.5 -54s-27 -30.5 -27 -40.5v-2c6.66699 -31.333 10 -59.333 10 -84c0 -69.333 -12.833 -134 -38.5 -194s-60.334 -112.333 -104.001 -157s-95 -79.5 -154 -104.5
s-120.5 -37.5 -184.5 -37.5c-34 0 -67.667 5.66699 -101 17s-63.333 28 -90 50s-47.834 48.333 -63.501 79s-23.5 66 -23.5 106c0 49.333 9.16699 96.666 27.5 141.999s42.166 85.833 71.499 121.5s61.833 64 97.5 85s70.5 31.5 104.5 31.5c12 -5.33301 18 -12 18 -20
c0 -5.33301 -10.833 -19 -32.5 -41s-45.834 -48.333 -72.501 -79s-51 -64.834 -73 -102.501s-33 -74.167 -33 -109.5c0 -24.667 4.16699 -49.5 12.5 -74.5s20.333 -48.5 36 -70.5s34.667 -39.833 57 -53.5s47.166 -20.5 74.499 -20.5h13c35.333 0 65.333 9.5 90 28.5
s44.5 43.167 59.5 72.5s26.167 61.166 33.5 95.499s11 66.5 11 96.5c0 36.667 -5.33301 72.167 -16 106.5s-24 65.833 -40 94.5s-32.167 53.834 -48.5 75.501l-40.5 53.5c-2.66699 2.66699 -5.33398 6.66699 -8.00098 12l32.5 41c15 19.333 30.333 41.5 46 66.5
s29.667 52.167 42 81.5s18.5 59 18.5 89c0 28.667 -5.16699 57.5 -15.5 86.5s-25 54.333 -44 76s-42.167 39.334 -69.5 53.001s-58.666 20.5 -93.999 20.5c-36.667 0 -72.5 -12.333 -107.5 -37s-66.5 -53.334 -94.5 -86.001s-51.167 -66.834 -69.5 -102.501
s-31.166 -64.834 -38.499 -87.501c-2.66699 0 -5.66699 3.33301 -9 10s-6 15.167 -8 25.5s-3.66699 21.333 -5 33s-2 21.5 -2 29.5z" />
    <glyph glyph-name="braceleft" unicode="{" horiz-adv-x="712" 
d="M154 848c0 220 12.832 410.837 38.499 572.504s57.834 285.5 96.501 371.5c15.333 32.667 32.166 64.667 50.499 96s39.666 59.666 63.999 84.999s51.166 45.5 80.499 60.5s61.333 22.5 96 22.5c36.667 0 73.334 -8.66699 110.001 -26
c56 -24.667 94.667 -54.167 116 -88.5s32 -67.833 32 -100.5c0 -22 -4.33301 -42.333 -13 -61c-6.66699 -18 -17.5 -32.833 -32.5 -44.5s-32.167 -17.5 -51.5 -17.5c-15.333 0 -31 4.33301 -47 13c-19.333 9.33301 -34.333 15.333 -45 18s-20 4 -28 4
c-22 0 -41.5 -5.5 -58.5 -16.5s-32.667 -25.333 -47 -43s-27.333 -36.667 -39 -57s-22.5 -40.833 -32.5 -61.5c-19.333 -66.667 -35 -129.167 -47 -187.5s-21.833 -116.166 -29.5 -173.499s-13.167 -115.666 -16.5 -174.999s-5 -123 -5 -191
c0 -87.333 2.33301 -175.333 7 -264s15 -175 31 -259s38.667 -164 68 -240s69 -144.667 119 -206c16.667 -18 30.334 -26.667 41.001 -26c27.333 18 49.666 32 66.999 42l40 23c9.33301 5.33301 16 8.66602 20 9.99902s7 2 9 2h2c27.333 -10.667 46 -29.334 56 -56.001
s15 -54.334 15 -83.001c0 -38 -6 -69.333 -18 -94c-19.333 -44 -39.166 -75.167 -59.499 -93.5s-44.166 -27.5 -71.499 -27.5s-62.333 9.66699 -105 29c-78 34 -143.167 91 -195.5 171s-94.5 175.167 -126.5 285.5s-55.167 233.166 -69.5 368.499
s-21.5 274.666 -21.5 417.999z" />
    <glyph glyph-name="bar" unicode="|" horiz-adv-x="468" 
d="M111 1571c0 20.667 4.99707 36.3311 14.9971 46.998s22.5 18.834 37.5 24.501s30.833 8.83398 47.5 9.50098s30.334 1 41.001 1c15.333 0 30.833 -1.83301 46.5 -5.5s29.834 -8.83398 42.501 -15.501s23.5 -14.834 32.5 -24.501s13.5 -21.167 13.5 -34.5
c0 -34 -1 -105.667 -3 -215s-5.33301 -245.5 -10 -408.5s-10.5 -346.667 -17.5 -551s-15.167 -417.833 -24.5 -640.5c-1.33301 -23.333 -3 -46.166 -5 -68.499s-6.83301 -42.666 -14.5 -60.999s-17.667 -33.333 -30 -45s-29.5 -17.5 -51.5 -17.5c-26 0 -46 6.5 -60 19.5
s-24.167 29.333 -30.5 49s-10.166 40.834 -11.499 63.501s-2 43.334 -2 62.001c0 109.333 -0.333008 234.666 -1 375.999s-2 291.166 -4 449.499s-3.66699 321.5 -5 489.5s-3.33301 333.333 -6 496z" />
    <glyph glyph-name="braceright" unicode="}" horiz-adv-x="712" 
d="M-92 1841c0 32.667 10.1641 65.165 30.4971 97.498s52.5 59.166 96.5 80.499l20 11c36.667 18 73.667 26.667 111 26c35.333 0 67.333 -7.5 96 -22.5s55.334 -35.167 80.001 -60.5s46.5 -53.666 65.5 -84.999s35.5 -63.333 49.5 -96c38 -86 70 -209.833 96 -371.5
s39 -352.5 39 -572.5c0 -143.333 -7.16699 -282.666 -21.5 -417.999s-37.5 -258.166 -69.5 -368.499s-74.333 -205.5 -127 -285.5s-118 -137 -196 -171c-42 -19.333 -76.667 -29 -104 -29s-51.333 9.16699 -72 27.5s-40.334 49.5 -59.001 93.5c-12 24.667 -18.333 56 -19 94
c0 28.667 5.16699 56.334 15.5 83.001s29.166 45.334 56.499 56.001c2.66699 1.33301 7.33398 2 14.001 2c10.667 0 20.834 -4 30.501 -12s19.334 -17.167 29.001 -27.5s19.667 -19.5 30 -27.5s20.833 -12 31.5 -12c2.66699 0 8 1.33301 16 4
c4 2.66699 8.5 5.33398 13.5 8.00098s9.5 7.33398 13.5 14.001c50.667 61.333 91 130 121 206s52.5 155.667 67.5 239s24.833 169.666 29.5 258.999s7 177.666 7 264.999c0 68 -1.66699 131.667 -5 191s-8.66602 117.666 -15.999 174.999s-17.166 115.166 -29.499 173.499
s-28.166 120.833 -47.499 187.5c-9.33301 20.667 -19.5 41.167 -30.5 61.5s-23.667 39.333 -38 57s-30.333 32 -48 43s-37.5 16.5 -59.5 16.5c-16.667 0 -34.334 -4 -53.001 -12l-21 -10c-16.667 -8 -32.334 -12.333 -47.001 -13c-19.333 0 -36.5 5.83301 -51.5 17.5
s-25.833 26.5 -32.5 44.5c-8 18.667 -12 39 -12 61z" />
    <glyph glyph-name="asciitilde" unicode="~" horiz-adv-x="894" 
d="M70 799c31.333 78 65.667 136.333 103 175s87 58 149 58c31.333 0 58.5 -4.66699 81.5 -14s48.167 -23.666 75.5 -42.999v2c26 -16.667 47.833 -29.667 65.5 -39s34.834 -14 51.501 -14c15.333 0 29 8.5 41 25.5s28.333 49.5 49 97.5c5.33301 15.333 19 22.666 41 21.999
c12 0 24.5 -2.66699 37.5 -8s25.333 -12.166 37 -20.499s21.334 -18 29.001 -29s11.5 -21.833 11.5 -32.5c-31.333 -78 -65.833 -136.5 -103.5 -175.5s-87.167 -58.5 -148.5 -58.5c-30 0 -58.333 6.16699 -85 18.5s-50.334 25.5 -71.001 39.5c-26 18 -48.5 31.667 -67.5 41
s-33.833 14 -44.5 14c-19.333 0 -35.5 -9.5 -48.5 -28.5s-29.833 -52.5 -50.5 -100.5c-5.33301 -13.333 -17 -20 -35 -20c-12 0 -24.833 2.66699 -38.5 8s-26.334 12.166 -38.001 20.499s-21.5 18 -29.5 29s-12 21.833 -12 32.5z" />
    <glyph glyph-name="uni00A0" unicode="&#xa0;" horiz-adv-x="307" 
 />
    <glyph glyph-name="exclamdown" unicode="&#xa1;" horiz-adv-x="468" 
d="M109 -281c0 23.333 0.669922 43.499 2.00293 60.499l5 64.5c2 26 4.33301 59.167 7 99.5s6 94.333 10 162l14.5 254c5.66699 101.667 11.167 226.834 16.5 375.501c1.33301 23.333 3 46.333 5 69s6.83301 43.167 14.5 61.5s17.5 33.333 29.5 45s29 17.5 51 17.5
c26 0 46.167 -6.5 60.5 -19.5s24.666 -29.5 30.999 -49.5s10.166 -41.167 11.499 -63.5s2 -43.166 2 -62.499c0 -72.667 0.333008 -133.167 1 -181.5s1.33398 -92 2.00098 -131l2 -114.5c0.666992 -37.333 1.66699 -81.333 3 -132s2.66602 -111.834 3.99902 -183.501
s2.66602 -161.5 3.99902 -269.5c0 -20.667 -5.16699 -36.334 -15.5 -47.001s-23 -18.667 -38 -24s-30.667 -8.33301 -47 -9s-29.833 -1 -40.5 -1c-13.333 0 -28.333 1.66699 -45 5s-31.5 8.33301 -44.5 15s-23.833 14.834 -32.5 24.501s-13 21.167 -13 34.5zM166.003 1192
c0 28.667 7.16699 56 21.5 82s43.833 39 88.5 39c39.333 0 67.333 -10.667 84 -32s25 -49 25 -83c0 -39.333 -7.83301 -71.333 -23.5 -96s-47.5 -37 -95.5 -37c-28.667 0 -51.5 9.83301 -68.5 29.5s-27.5 52.167 -31.5 97.5z" />
    <glyph glyph-name="cent" unicode="&#xa2;" horiz-adv-x="804" 
d="M76 711c0 40.667 5.50391 85.666 16.5039 134.999s28.667 97.166 53 143.499s56.666 89 96.999 128s90.5 68.5 150.5 88.5l6 185c0 5.33301 1.33301 9.33301 4 12l9 8c9.33301 6.66699 18.666 10 27.999 10c5.33301 0 12.333 -1.33301 21 -4c15.333 -4 26.333 -12 33 -24
l2 -4c1.33301 -2.66699 2.33301 -9.66699 3 -21l3 -49c1.33301 -22 2.66602 -52 3.99902 -90l47 2c19.333 1.33301 39.5 -0.666992 60.5 -6s40.667 -15.166 59 -29.499s33.333 -33.166 45 -56.499s17.5 -52.666 17.5 -87.999c-1.33301 -31.333 -9.5 -55.666 -24.5 -72.999
s-27.833 -26 -38.5 -26c-13.333 0 -21.833 5.16699 -25.5 15.5s-5.5 29.166 -5.5 56.499c0 22 -8.5 42.167 -25.5 60.5s-47.5 27.5 -91.5 27.5c-30 0 -56.167 -14.667 -78.5 -44s-41 -65.833 -56 -109.5s-26.667 -90.834 -35 -141.501s-12.5 -97 -12.5 -139
c0 -30 1 -57.667 3 -83s6.33301 -49.666 13 -72.999c15.333 -48 39.333 -89 72 -123s77.667 -51 135 -51c31.333 0 56.333 5.16699 75 15.5s34.167 21.333 46.5 33s22.833 22.5 31.5 32.5s20 15 34 15c10.667 0 20.834 -4.33301 30.501 -13s14.5 -21.334 14.5 -38.001
c-1.33301 -10.667 -9.5 -24.167 -24.5 -40.5s-34.833 -33.166 -59.5 -50.499s-53 -33.5 -85 -48.5s-66 -26.5 -102 -34.5l-4 -2v-14c1.33301 -10.667 2 -21.334 2 -32.001v-32v-38c0 -14.667 -1.33301 -32 -4 -52c-6.66699 -13.333 -15.334 -23.666 -26.001 -30.999
c-9.33301 -8 -21 -12 -35 -12c-4 0 -11.667 1.33301 -23 4c-12 4 -21.333 11 -28 21l-9 176c-74 6.66699 -137.5 32.167 -190.5 76.5s-89.167 102.166 -108.5 173.499c-10.667 39.333 -17.334 78.5 -20.001 117.5s-4 84.5 -4 136.5z" />
    <glyph glyph-name="sterling" unicode="&#xa3;" horiz-adv-x="1255" 
d="M8 500c0 9.33301 1.67578 20.168 5.00879 32.501s8.16602 24.333 14.499 36s13.5 21.167 21.5 28.5s17 11 27 11h123c-6.66699 20.667 -13.5 40.834 -20.5 60.501s-13.833 40.5 -20.5 62.5c-48 1.33301 -85 6.16602 -111 14.499s-39 23.5 -39 45.5
c0 9.33301 1.66699 20.166 5 32.499s8.16602 24.333 14.499 36s13.5 21.167 21.5 28.5s17 11 27 11h43c-5.33301 31.333 -8 67 -8 107c0 86 12.833 167.167 38.5 243.5s63.167 143.833 112.5 202.5s110.166 105 182.499 139s154.833 51 247.5 51
c84.667 0 161.167 -17 229.5 -51s126.666 -79.667 174.999 -137s85.5 -123.833 111.5 -199.5s39 -154.5 39 -236.5c0 -36.667 -9.16699 -64 -27.5 -82s-37.833 -27 -58.5 -27c-19.333 0 -36 7.16699 -50 21.5s-21 35.166 -21 62.499c0 60 -5.83301 120.167 -17.5 180.5
s-31.834 114.333 -60.501 162s-67 86.834 -115 117.501s-108 46 -180 46c-44 0 -84 -8.5 -120 -25.5s-67 -39.833 -93 -68.5s-46.167 -62.5 -60.5 -101.5s-21.5 -80.167 -21.5 -123.5c0 -18 2.33301 -35.167 7 -51.5s8.33398 -32.833 11.001 -49.5
c12 -57.333 26.333 -116.666 43 -177.999c49.333 0 97.166 0.333008 143.499 1s87.333 1.66699 123 3s63.667 2.33301 84 3s29.166 1 26.499 1c27.333 -12 41 -32.333 41 -61c0 -12 -2 -23.667 -6 -35c-8 -22 -24 -38.833 -48 -50.5s-50.667 -20.167 -80 -25.5
s-59 -8.33301 -89 -9s-55.333 -1 -76 -1c-15.333 0 -29.333 0.333008 -42 1s-25.334 1.66699 -38.001 3c8 -42 14.333 -81.667 19 -119c44 0 85.667 0.333008 125 1s73.666 1.33398 102.999 2.00098s52.166 1.33398 68.499 2.00098s23.833 1 22.5 1
c15.333 -5.33301 26 -13.333 32 -24s9 -23 9 -37c0 -12 -2 -23.667 -6 -35c-8 -19.333 -22 -34.333 -42 -45s-42.167 -19.167 -66.5 -25.5s-50.166 -10.5 -77.499 -12.5s-52 -3 -74 -3h-25c-9.33301 0 -31 0.666992 -65 2c-4 -48 -12.5 -92 -25.5 -132s-28.5 -77 -46.5 -111
c16.667 -2.66699 45.5 -6.83398 86.5 -12.501s87.333 -11.5 139 -17.5s106.5 -11.167 164.5 -15.5s113.667 -6.5 167 -6.5c19.333 0 36.166 1.5 50.499 4.5l41 8.5l40 8c13.667 2.66699 28.5 4 44.5 4c16.667 0 27.667 -4.5 33 -13.5s8 -24.167 8 -45.5
c0 -35.333 -10.167 -65 -30.5 -89s-45.5 -43.167 -75.5 -57.5s-62.833 -24.333 -98.5 -30s-68.5 -8.5 -98.5 -8.5c-46.667 0 -97.5 6.5 -152.5 19.5s-111.167 27.333 -168.5 43s-114.666 30 -171.999 43s-111.333 19.5 -162 19.5c-22 0 -46 -2.33301 -72 -7
s-50.5 -10.167 -73.5 -16.5s-42.833 -12.166 -59.5 -17.499s-27 -8 -31 -8c-8 0 -14.333 0.666992 -19 2s-7 6.66602 -7 15.999c0 23.333 9.16699 45 27.5 65s40.166 38.5 65.499 55.5s52 31.667 80 44s51.333 21.833 70 28.5v65c0 27.333 -1.66699 54.666 -5 81.999
s-8.33301 54.666 -15 81.999h-37c-65.333 0 -115.833 3.5 -151.5 10.5s-53.5 23.5 -53.5 49.5z" />
    <glyph glyph-name="currency" unicode="&#xa4;" horiz-adv-x="1419" 
d="M104 709c0 140.667 30.5078 270.674 91.5078 390.007s141.667 222.333 242 309s214.666 154.667 342.999 204s259.5 74 393.5 74c106.667 0 206.667 -18.833 300 -56.5s176.666 -102.834 249.999 -195.501c9.33301 -22 14.333 -39.333 15 -52
c0 -26 -9.33301 -51.167 -28 -75.5s-43 -36.5 -73 -36.5c-72.667 84.667 -147.167 146.834 -223.5 186.501s-166.833 59.5 -271.5 59.5c-79.333 0 -151.833 -12 -217.5 -36s-124 -56.833 -175 -98.5s-94.667 -90.834 -131 -147.501s-64.5 -117.667 -84.5 -183
c48 -1.33301 97.833 -2.33301 149.5 -3s102.167 -1 151.5 -1h136h103c9.33301 0 18.166 -3.83301 26.499 -11.5s15.666 -17.334 21.999 -29.001s11.166 -23.667 14.499 -36s5 -23.166 5 -32.499c0 -26 -17.833 -42.333 -53.5 -49s-86.167 -10 -151.5 -10h-219
c-26 0 -52.333 -0.833008 -79 -2.5s-57 -2.5 -91 -2.5h-51c-1.33301 -16.667 -2.33301 -33.334 -3 -50.001s-1 -33.334 -1 -50.001v-12c48 -1.33301 99.833 -2.33301 155.5 -3l163.5 -2c53.333 -0.666992 103.333 -1 150 -1h112c9.33301 0 18.166 -3.83301 26.499 -11.5
s15.666 -17.334 21.999 -29.001s11.166 -23.5 14.499 -35.5s5 -23 5 -33c0 -26 -17.833 -42.333 -53.5 -49s-86.167 -10 -151.5 -10h-219c-26 0 -52.333 -0.666992 -79 -2s-57 -2 -91 -2h-41c8 -56 21.667 -110 41 -162s45 -98.167 77 -138.5s71.833 -72.333 119.5 -96
s104.167 -35.5 169.5 -35.5c42 0 82.333 7.16699 121 21.5s72.667 34 102 59s52.833 55.333 70.5 91s26.5 74.5 26.5 116.5v39c0 9.33301 2.66699 15.833 8 19.5s19 5.5 41 5.5c18 0 32.333 -3.83301 43 -11.5s19.167 -17.334 25.5 -29.001s10.5 -25 12.5 -40
s3 -29.833 3 -44.5c0 -69.333 -16.667 -130.333 -50 -183s-76.333 -96.834 -129 -132.501s-111.5 -62.334 -176.5 -80.001s-129.5 -26.5 -193.5 -26.5c-106.667 0 -204 20.5 -292 61.5s-163.333 96.333 -226 166s-111.167 150 -145.5 241s-51.5 185.5 -51.5 283.5z" />
    <glyph glyph-name="yen" unicode="&#xa5;" horiz-adv-x="1249" 
d="M-446 1135c0 84.667 14.3311 167.834 42.998 249.501s69.167 155 121.5 220s116.166 117.667 191.499 158s159.333 60.5 252 60.5c96.667 0 180.5 -25 251.5 -75s130.833 -113.5 179.5 -190.5s86.667 -161.333 114 -253s45 -179.834 53 -264.501
c32.667 38 65 84.167 97 138.5s63.667 111.5 95 171.5l93.5 180c31 60 62.833 115.333 95.5 166c16.667 26 38.167 45.5 64.5 58.5s54.5 19.5 84.5 19.5c24.667 0 46.167 -4.5 64.5 -13.5s27.5 -24.5 27.5 -46.5c0 -44 -15.333 -95.667 -46 -155s-72.667 -125.5 -126 -198.5
s-116.5 -153.167 -189.5 -240.5l-236.5 -280c-1.33301 -6.66699 -2.33301 -12.5 -3 -17.5s-1.66699 -10.833 -3 -17.5h199c9.33301 0 18.166 -3.83301 26.499 -11.5s15.5 -17.167 21.5 -28.5s10.667 -23.166 14 -35.499s5 -23.5 5 -33.5c0 -26 -17.667 -42.333 -53 -49
s-85.666 -10 -150.999 -10h-80c-1.33301 -18 -2.33301 -37.167 -3 -57.5s-1 -42.166 -1 -65.499h221c9.33301 0 18.166 -3.66699 26.499 -11s15.5 -16.833 21.5 -28.5s10.667 -23.667 14 -36s5 -23.166 5 -32.499c0 -26 -17.667 -42.5 -53 -49.5
s-85.666 -10.5 -150.999 -10.5h-78l8 -127c2.66699 -50.667 3 -97.167 1 -139.5s-7.5 -78.833 -16.5 -109.5s-22 -54.5 -39 -71.5s-39.167 -25.5 -66.5 -25.5c-22 0 -45.167 5.5 -69.5 16.5s-47.166 25.667 -68.499 44s-39.166 39.166 -53.499 62.499s-21.5 47.333 -21.5 72
v134c0 46 0.666992 92.667 2 140c-22 0 -47.333 0.666992 -76 2s-56.5 4.66602 -83.5 9.99902s-51.833 13.833 -74.5 25.5s-38 27.834 -46 48.501c-4 10.667 -6 22.334 -6 35.001c0 13.333 3 25.5 9 36.5s16.667 19.167 32 24.5c-1.33301 0 4.33398 -0.333008 17.001 -1
s30.667 -1.33398 54 -2.00098s50.333 -1.33398 81 -2.00098s63 -1 97 -1v57c0 19.333 0.666992 38.666 2 57.999c-20.667 0 -45.5 0.666992 -74.5 2s-57.833 4.66602 -86.5 9.99902s-54.667 13.833 -78 25.5s-39 27.834 -47 48.501c-4 10.667 -6 22.334 -6 35.001
c0 28.667 13.667 49 41 61c-1.33301 0 4.33398 -0.333008 17.001 -1s31 -1.33398 55 -2.00098s51.667 -1.33398 83 -2.00098s64 -1 98 -1v145c0 39.333 -2 83.333 -6 132s-11.5 98.334 -22.5 149.001s-25.333 99.5 -43 146.5s-40.834 89 -69.501 126s-62.5 66.667 -101.5 89
s-84.167 33.5 -135.5 33.5c-49.333 0 -96.833 -10.167 -142.5 -30.5s-86.334 -47 -122.001 -80s-64 -70.167 -85 -111.5s-31.5 -83.333 -31.5 -126c0 -19.333 3.33301 -40.333 10 -63c8 -28.667 12 -52.667 12 -72c0 -32.667 -8.16699 -57.167 -24.5 -73.5
s-34.166 -24.5 -53.499 -24.5s-37 7.5 -53 22.5s-24 36.167 -24 63.5z" />
    <glyph glyph-name="brokenbar" unicode="&#xa6;" horiz-adv-x="468" 
d="M96 -354c2.66699 110.667 5.83691 199.334 9.50391 266.001s6.83398 121.5 9.50098 164.5s5.33398 79.5 8.00098 109.5s4 64.333 4 103c0 19.333 0.666992 40.166 2 62.499s5.16602 43.333 11.499 63s16.666 36 30.999 49s34.166 19.5 59.499 19.5
c22 0 39.167 -5.66699 51.5 -17s21.5 -26.333 27.5 -45s10.5 -39.167 13.5 -61.5s5.83301 -45.166 8.5 -68.499c9.33301 -84.667 16.666 -159.834 21.999 -225.501s9.5 -124 12.5 -175s4.83301 -96.333 5.5 -136s1 -76.5 1 -110.5c0 -13.333 -4.5 -25 -13.5 -35
s-20 -18.333 -33 -25s-27.333 -11.667 -43 -15s-30.834 -5 -45.501 -5c-10.667 0 -24.334 0.333008 -41.001 1s-32.5 3.66699 -47.5 9s-27.667 13.5 -38 24.5s-15.5 26.833 -15.5 47.5zM111.003 1571c0 20.667 4.99609 36.332 14.9961 46.999s22.5 18.834 37.5 24.501
s30.833 8.83398 47.5 9.50098s30.334 1 41.001 1c15.333 0 30.833 -1.83301 46.5 -5.5s29.834 -8.83398 42.501 -15.501s23.5 -14.834 32.5 -24.501s13.5 -21.167 13.5 -34.5c0 -34 -1 -70.833 -3 -110.5s-5.33301 -85.167 -10 -136.5s-10.5 -109.666 -17.5 -174.999
l-24.5 -225c-2.66699 -23.333 -5.5 -46.333 -8.5 -69s-7.5 -43.167 -13.5 -61.5s-15.167 -33.333 -27.5 -45s-29.5 -17.5 -51.5 -17.5c-26 0 -46 6.5 -60 19.5s-24.167 29.333 -30.5 49s-10.166 40.834 -11.499 63.501s-2 43.667 -2 63c0 46.667 -0.333008 79.5 -1 98.5
s-1.33398 34.333 -2.00098 46l-2 36.5c-0.666992 12.667 -1.66699 35.167 -3 67.5s-2.66602 79.166 -3.99902 140.499s-2.66602 146 -3.99902 254z" />
    <glyph glyph-name="section" unicode="&#xa7;" horiz-adv-x="1085" 
d="M88 713c0 23.333 1 47.168 3 71.501s5.66699 49.5 11 75.5c16.667 90 51.667 189 105 297c-8 31.333 -12 63.333 -12 96c0 22 2 44 6 66c10.667 52 29 100.167 55 144.5s57.833 82.833 95.5 115.5s79.667 58.167 126 76.5s95.5 27.5 147.5 27.5
c28.667 0 54.334 -2.66699 77.001 -8c31.333 -5.33301 61.833 -14.5 91.5 -27.5s55.667 -28.667 78 -47s40.333 -39.833 54 -64.5s20.5 -52.667 20.5 -84c0 -6.66699 -0.333008 -13.5 -1 -20.5s-1.66699 -13.833 -3 -20.5c-5.33301 -26 -16.166 -50.5 -32.499 -73.5
s-36.166 -34.5 -59.499 -34.5h-8c-12 2.66699 -20.5 14.5 -25.5 35.5s-13.333 44.833 -25 71.5s-29.5 53 -53.5 79s-61.667 43.667 -113 53c-20.667 4 -40.667 6 -60 6c-34 0 -64 -8.16699 -90 -24.5s-43 -45.5 -51 -87.5c-1.33301 -4 -2 -8.66699 -2 -14v-13
c0 -36.667 14.333 -73.167 43 -109.5s64.167 -74.333 106.5 -114l138 -128c49.667 -45.667 95.667 -97.167 138 -154.5s77.833 -121.5 106.5 -192.5s43 -151.5 43 -241.5c0 -26 -1 -52.667 -3 -80s-6.33301 -55.333 -13 -84c-18 -90 -53.667 -191 -107 -303l3 -37
c1.33301 -10.667 1.16602 -21.167 -0.500977 -31.5s-3.83398 -20.833 -6.50098 -31.5c-9.33301 -52 -27.333 -100.167 -54 -144.5s-58.334 -83 -95.001 -116s-78.334 -58.667 -125.001 -77s-95.667 -27.5 -147 -27.5c-28.667 0 -54.667 2.66699 -78 8
c-31.333 5.33301 -61.666 14.166 -90.999 26.499s-55.333 27.833 -78 46.5s-40.834 40.167 -54.501 64.5s-20.5 52.5 -20.5 84.5c0 6.66699 0.333008 13.667 1 21s1.66699 14.666 3 21.999c5.33301 26 15.833 50.5 31.5 73.5s34.5 34.5 56.5 34.5l10 -2
c12 -2.66699 20.5 -14.667 25.5 -36s13.333 -45.166 25 -71.499s29.834 -52.166 54.501 -77.499s62 -43 112 -53c20.667 -4 40.667 -6 60 -6c34 0 64 8.16699 90 24.5s43.667 45.833 53 88.5c1.33301 5.33301 2 13.666 2 24.999c0 35.333 -14 70.666 -42 105.999
s-62.833 72.5 -104.5 111.5l-135 126c-48.333 45 -93.333 94.833 -135 149.5s-76.5 115.834 -104.5 183.501s-42 143.167 -42 226.5zM360 776.002c0 -42 8.99902 -88.333 26.999 -139s53 -109.334 105 -176.001l77.5 -92c20.333 -23.333 39.333 -43.166 57 -59.499l50 -45
c15.667 -13.667 33.834 -30.834 54.501 -51.501v16c0 32.667 -1.33301 66.5 -4 101.5s-6.66699 67.5 -12 97.5s-11.5 56.333 -18.5 79s-14.5 38 -22.5 46c-26 61.333 -50.333 110.5 -73 147.5s-44.5 66.667 -65.5 89s-42.167 39.666 -63.5 51.999s-44.333 24.833 -69 37.5
c-5.33301 2.66699 -10.333 5.33398 -15 8.00098s-9.66699 5.33398 -15 8.00098l-2 -12l-7.5 -52.5c-2.33301 -17 -3.5 -35.167 -3.5 -54.5z" />
    <glyph glyph-name="dieresis" unicode="&#xa8;" horiz-adv-x="591" 
d="M90 1171c0 28.667 6.16699 52.666 18.5 71.999s36.166 29 71.499 29c20.667 0 37.834 -7.16699 51.501 -21.5s21.167 -38.5 22.5 -72.5c1.33301 -23.333 -3.5 -44.666 -14.5 -63.999s-33.5 -29 -67.5 -29c-30 0 -51.167 7.83301 -63.5 23.5s-18.5 36.5 -18.5 62.5z
M328 1171c0 28.667 5.66699 52.666 17 71.999s35 29 71 29c22 0 39.333 -7.16699 52 -21.5s20.667 -38.5 24 -72.5c0 -23.333 -5.5 -44.666 -16.5 -63.999s-33.5 -29 -67.5 -29c-30 0 -50.833 7.83301 -62.5 23.5s-17.5 36.5 -17.5 62.5z" />
    <glyph glyph-name="copyright" unicode="&#xa9;" horiz-adv-x="1789" 
d="M74 850c0 61.333 8.16309 125.502 24.4961 192.502s39.5 132.5 69.5 196.5s66.167 125 108.5 183s89.833 108.833 142.5 152.5s109.667 78.5 171 104.5s125.333 39 192 39c10.667 0 23.334 -0.333008 38.001 -1s28.834 -4 42.501 -10s24.834 -15.167 33.501 -27.5
s13 -30.166 13 -53.499c-84.667 -31.333 -160.334 -65.5 -227.001 -102.5s-123.667 -82.333 -171 -136s-83.166 -119.834 -107.499 -198.501s-36.5 -175.334 -36.5 -290.001c0 -83.333 14.667 -170.333 44 -261s71.166 -173.167 125.499 -247.5
s120.833 -135.833 199.5 -184.5s167 -73 265 -73c88.667 0 166.167 21.5 232.5 64.5s121.333 98 165 165s76.834 141.5 99.501 223.5s34 161.667 34 239c0 68 -11 139.667 -33 215s-53.833 144.333 -95.5 207s-93.167 114.834 -154.5 156.501s-132.333 62.5 -213 62.5
c-120 0 -205.667 -27.667 -257 -83s-77 -129.333 -77 -222c0 -23.333 -8.83301 -41.833 -26.5 -55.5s-37.5 -20.5 -59.5 -20.5c-20.667 0 -39 6.83301 -55 20.5s-24 35.5 -24 65.5c0 49.333 11.833 99.333 35.5 150s58.334 96.167 104.001 136.5s102.667 73 171 98
s147.5 37.5 237.5 37.5c100 0 189.667 -21.833 269 -65.5s146.5 -100.334 201.5 -170.001s97.167 -147.5 126.5 -233.5s44 -171.333 44 -256c0 -120 -21.833 -233.833 -65.5 -341.5s-103.667 -202.5 -180 -284.5s-166.333 -147 -270 -195s-215.834 -72 -336.501 -72
c-120 0 -229.167 24 -327.5 72s-182.666 112.167 -252.999 192.5s-124.5 173.166 -162.5 278.499s-57 216 -57 332zM669.996 801.002c0 40.667 6.49902 86.3311 19.499 136.998s34.833 98.5 65.5 143.5s71.834 82.5 123.501 112.5s115.834 45 192.501 45
c16.667 0 33.834 -2.33301 51.501 -7s34 -12.834 49 -24.501s27.667 -27 38 -46s15.5 -43.833 15.5 -74.5c0 -27.333 -6.5 -48 -19.5 -62s-24.5 -21 -34.5 -21c-10.667 0 -17.334 4.33301 -20.001 13s-4 24.667 -4 48c0 19.333 -7.5 36.5 -22.5 51.5
s-40.167 22.5 -75.5 22.5c-24.667 0 -47 -12.333 -67 -37s-36.5 -55.5 -49.5 -92.5s-22.833 -77 -29.5 -120s-10 -82.167 -10 -117.5c0 -30 2.66699 -61.333 8 -94s15.166 -62.667 29.499 -90s33.5 -49.833 57.5 -67.5s55 -26.5 93 -26.5c27.333 0 48.5 4.33301 63.5 13
s27.833 18.334 38.5 29.001l27 27c8 8 17.667 12 29 12c9.33301 0 18.166 -3.66699 26.499 -11s12.5 -18 12.5 -32c-1.33301 -9.33301 -8.5 -20.833 -21.5 -34.5s-29.667 -27.667 -50 -42s-44.166 -28 -71.499 -41s-56 -22.833 -86 -29.5s-57.333 -10 -82 -10
c-61.333 0 -111.5 12.667 -150.5 38s-69.167 58.333 -90.5 99s-36 86.334 -44 137.001s-12 101.334 -12 152.001z" />
    <glyph glyph-name="ordfeminine" unicode="&#xaa;" horiz-adv-x="2740" 
d="M100 860c0 30 1.00488 59.332 3.00488 87.999s4.66699 56.667 8 84c9.33301 84.667 27.666 172.834 54.999 264.501s65.166 176 113.499 253s108 140.5 179 190.5s155.167 75 252.5 75c92.667 0 176.5 -20.167 251.5 -60.5s138.833 -93 191.5 -158
s93.334 -138.5 122.001 -220.5s43 -165.333 43 -250c0 -62.667 -9.16699 -132.5 -27.5 -209.5s-46.333 -148.667 -84 -215s-85.5 -122 -143.5 -167s-127.333 -67.5 -208 -67.5c-27.333 0 -53.333 8.83301 -78 26.5s-46.167 38.834 -64.5 63.501s-33 50.667 -44 78
s-16.5 50.666 -16.5 69.999c0 13.333 1.83301 22 5.5 26s10.167 6 19.5 6c12 0 24 -2.33301 36 -7l35 -14c11.333 -4.66699 24.166 -9.5 38.499 -14.5s31.166 -7.5 50.499 -7.5c57.333 0 107.166 17.167 149.499 51.5s77.5 77 105.5 128s48.833 107 62.5 168
s20.5 117.167 20.5 168.5c0 48 -9 96.667 -27 146s-43.333 93.666 -76 132.999s-71.834 71.333 -117.501 96s-95.834 37 -150.501 37c-52 0 -97.5 -11.333 -136.5 -34s-72.833 -52.334 -101.5 -89.001s-51.834 -78.5 -69.501 -125.5s-32 -95.833 -43 -146.5
s-18.5 -100.167 -22.5 -148.5s-6 -92.5 -6 -132.5c0 -95.333 9.16699 -187.666 27.5 -276.999s44.5 -179.333 78.5 -270c13.333 -27.333 28.333 -52.5 45 -75.5l47.5 -68.5c15 -22.667 27.667 -46.667 38 -72s15.5 -53.666 15.5 -84.999
c0 -24.667 -7.16699 -48.5 -21.5 -71.5s-32.166 -43.667 -53.499 -62s-44.166 -33 -68.499 -44s-47.5 -16.5 -69.5 -16.5c-31.333 0 -62 14 -92 42s-58.667 65.5 -86 112.5s-52.333 102.167 -75 165.5s-42.167 130.5 -58.5 201.5s-29.333 143.833 -39 218.5
s-14.5 146.667 -14.5 216zM698.005 1141c0 39.333 7.83398 71.333 23.501 96s47.5 37 95.5 37c28.667 0 51.5 -10 68.5 -30s27.833 -52.333 32.5 -97c0 -28.667 -7.33301 -56 -22 -82s-44.334 -39 -89.001 -39c-39.333 0 -67.333 10.667 -84 32s-25 49 -25 83zM1470.01 1126
c0 84.667 14.334 167.998 43.001 249.998s69.334 155.5 122.001 220.5s116.5 117.667 191.5 158s159.167 60.5 252.5 60.5c96.667 0 180.5 -25 251.5 -75s130.833 -113.5 179.5 -190.5s86.5 -161.333 113.5 -253s45.5 -179.834 55.5 -264.501
c2.66699 -27.333 5 -55.333 7 -84s3 -58 3 -88c0 -105.333 -10.167 -214.166 -30.5 -326.499s-47.333 -215.333 -81 -309s-72.334 -170.5 -116 -230.5c-43.667 -60 -89.5 -90 -137.5 -90c-22 0 -45.167 5.5 -69.5 16.5s-47.166 25.667 -68.5 44
c-21.333 18.333 -39.166 39 -53.5 62c-14.333 23 -21.5 46.833 -21.5 71.5c0 31.333 5.16699 59.666 15.5 84.999s23 49.333 38 72l47 68.5c16.333 23 31.5 48.167 45.5 75.5c34 90 60.167 179.833 78.5 269.5s27.5 182.167 27.5 277.5c0 39.333 -2 83.333 -6 132
s-11.5 98.334 -22.5 149.001s-25.333 99.5 -43 146.5s-40.834 88.833 -69.5 125.5c-28.667 36.667 -62.5 66.334 -101.5 89.001s-84.167 34 -135.5 34c-54.667 0 -105 -12.333 -151 -37s-85.333 -56.667 -118 -96s-57.834 -83.666 -75.501 -132.999s-26.5 -98 -26.5 -146
c0 -52 6.83301 -108.333 20.5 -169s34.5 -116.5 62.5 -167.5s63.167 -93.667 105.5 -128s92.166 -51.5 149.499 -51.5c19.333 0 36 2.5 50 7.5l39 14.5l35 14c11.333 4.66699 23 7 35 7c9.33301 0 15.833 -2 19.5 -6s5.5 -12.667 5.5 -26
c0 -19.333 -5.5 -42.666 -16.5 -69.999s-25.667 -53.333 -44 -78s-39.833 -45.834 -64.5 -63.501s-50.667 -26.5 -78 -26.5c-79.333 0 -148.333 22.5 -207 67.5s-106.667 100.667 -144 167s-65.333 138 -84 215s-28 146.833 -28 209.5zM1855.01 1139
c0 39.333 7.99902 71.333 23.999 96s47.667 37 95 37c28.667 0 51.5 -10 68.5 -30s27.833 -52.333 32.5 -97c0 -28.667 -7.16699 -56 -21.5 -82s-44.166 -39 -89.499 -39c-39.333 0 -67.333 10.667 -84 32s-25 49 -25 83z" />
    <glyph glyph-name="guillemotleft" unicode="&#xab;" horiz-adv-x="915" 
d="M78 455c0 9.33301 6.16895 18.499 18.502 27.499s27.833 19.5 46.5 31.5l116 72l151 92c6.66699 0 14 -1.33301 22 -4s15.667 -7.66699 23 -15c12 -9.33301 18 -21.333 18 -36v-2c0 -2.66699 -2 -6.5 -6 -11.5s-13.5 -13.333 -28.5 -25s-37.833 -27.667 -68.5 -48
l-124 -81.5l131 -84c31.333 -20.667 54.166 -36.5 68.499 -47.5s23.166 -18.5 26.499 -22.5s5 -7.33301 5 -10c0 -15.333 -6 -27.666 -18 -36.999c-12 -15.333 -27 -23 -45 -23l-13 7c-57.333 28.667 -106 57 -146 85s-76 51.333 -108 70c-46 23.333 -69 44 -69 62z
M446.002 454.999c0 9.33301 6.16699 18.499 18.5 27.499s28.166 19.5 47.499 31.5l115.5 72l150.5 92c6.66699 0 14.167 -1.33301 22.5 -4s15.833 -7.66699 22.5 -15c12 -9.33301 18.333 -21.333 19 -36v-2c0 -2.66699 -2.16699 -6.5 -6.5 -11.5s-14 -13.333 -29 -25
s-37.833 -27.667 -68.5 -48l-124 -81.5l131.5 -84c31.667 -20.667 54.667 -36.5 69 -47.5s23.166 -18.5 26.499 -22.5s5 -7.33301 5 -10c0 -15.333 -6.33301 -27.666 -19 -36.999c-12 -15.333 -27 -23 -45 -23l-12 7c-57.333 28.667 -106.166 57 -146.499 85
s-76.166 51.333 -107.499 70c-46.667 23.333 -70 44 -70 62z" />
    <glyph glyph-name="logicalnot" unicode="&#xac;" horiz-adv-x="1789" 
d="M66 838c0 116 19.002 226.503 57.002 331.503s92.167 197.833 162.5 278.5s154.666 144.834 252.999 192.501s207.5 71.5 327.5 71.5s232 -23.833 336 -71.5s194.167 -112.5 270.5 -194.5s136.333 -177 180 -285s65.5 -222 65.5 -342c0 -83.333 -13 -168 -39 -254
s-64.5 -163.833 -115.5 -233.5s-114.333 -126.667 -190 -171s-163.5 -66.5 -263.5 -66.5c-69.333 0 -135.833 12.667 -199.5 38s-120 61.166 -169 107.499s-88.167 102.333 -117.5 168s-44 138.834 -44 219.501c0 39.333 6.33301 79.166 19 119.499
s31.334 76.5 56.001 108.5s54.834 58.333 90.501 79s75.834 31 120.501 31c13.333 0 30 -1.5 50 -4.5s39.667 -7.5 59 -13.5s35.666 -14.833 48.999 -26.5s20 -25.5 20 -41.5c0 -18 -7.16699 -33.5 -21.5 -46.5s-32 -25.333 -53 -37l-69.5 -38
c-25.333 -13.667 -48.5 -30.334 -69.5 -50.001s-38.667 -44.167 -53 -73.5s-21.5 -66 -21.5 -110c0 -92.667 28.333 -166.334 85 -221.001s130 -82 220 -82c80.667 0 150 20.833 208 62.5s105.667 94 143 157s65.333 132.333 84 208s28 146.834 28 213.501
c0 78 -11.333 158 -34 240s-55.834 156.333 -99.501 223s-98.667 121.5 -165 164.5s-143.833 64.5 -232.5 64.5c-98 0 -183.167 -24.167 -255.5 -72.5s-132.166 -110 -179.499 -185s-82.166 -157.667 -104.499 -248s-33.5 -177.833 -33.5 -262.5
c0 -56 2.66699 -122.167 8 -198.5s23.666 -155.833 54.999 -238.5s80.833 -163.834 148.5 -243.501s163.667 -151.334 288 -215.001s282.333 -115 474 -154s426.834 -58.5 705.501 -58.5c0 -23.333 -4.33301 -42 -13 -56s-19.834 -24.833 -33.501 -32.5
s-27.667 -12.834 -42 -15.501s-27.166 -4 -38.499 -4c-106.667 -20.667 -206.667 -33 -300 -37s-182.333 -6 -267 -6c-180 0 -338.333 20.167 -475 60.5s-254.834 93.833 -354.501 160.5s-182.334 144.5 -248.001 233.5s-117.834 182 -156.501 279
s-65.834 195.333 -81.501 295s-23.5 193.834 -23.5 282.501z" />
    <glyph glyph-name="uni00AD" unicode="&#xad;" horiz-adv-x="665" 
d="M55 778c0 15.333 5.16406 29.833 15.4971 43.5s26.5 20.5 48.5 20.5l84 -23c19.333 -5.33301 37.833 -10 55.5 -14l57 -13.5l71.5 -17.5c27.333 -6.66699 60.666 -15.334 99.999 -26.001l111 -29c2.66699 -1.33301 5.33398 -9.16602 8.00098 -23.499s5 -30.333 7 -48
l5.5 -50.5c1.66699 -16 2.5 -26.667 2.5 -32c0 -12 -3.83301 -23.5 -11.5 -34.5s-21.834 -16.5 -42.501 -16.5c-13.333 2.66699 -27.166 5 -41.499 7s-29.166 5 -44.499 9l-278 66c-19.333 4 -39.166 8.66699 -59.499 14s-42.166 11.666 -65.499 18.999
c-4 2.66699 -7.5 10.834 -10.5 24.501s-5.5 29 -7.5 46s-3.33301 33 -4 48s-1 25.167 -1 30.5z" />
    <glyph glyph-name="registered" unicode="&#xae;" horiz-adv-x="1214" 
d="M82 1190c0 72.667 16.334 141.002 49.001 205.002s76 119.833 130 167.5s115.5 85.834 184.5 114.501s138.833 43 209.5 43c56 0 111.333 -8.83301 166 -26.5s104.167 -43.5 148.5 -77.5s80.166 -75.667 107.499 -125s41 -105.333 41 -168
c0 -32.667 -5.5 -62.334 -16.5 -89.001s-24 -49.834 -39 -69.501s-30.667 -36.667 -47 -51l-40.5 -34.5l-4 4l-2 2c2.66699 -48 18 -89 46 -123s61 -68 99 -102c12 -2.66699 18.333 -11.334 19 -26.001c0 -6.66699 -3.5 -15.5 -10.5 -26.5s-16 -22 -27 -33
s-24.333 -20.667 -40 -29s-31.5 -12.5 -47.5 -12.5c-38 0 -71.833 8.5 -101.5 25.5s-54.667 38.833 -75 65.5s-37.333 56.5 -51 89.5s-24.5 65.167 -32.5 96.5c-18 -36.667 -37.333 -71.5 -58 -104.5s-43.834 -61.5 -69.501 -85.5s-55 -43.167 -88 -57.5
s-70.5 -21.5 -112.5 -21.5c-60 0 -111.5 13.667 -154.5 41s-78.167 62.833 -105.5 106.5s-47.166 92.167 -59.499 145.5s-18.5 105.333 -18.5 156zM211.001 1171c0 -28.667 4.16211 -58.6641 12.4951 -89.9971s20.333 -60.333 36 -87s35.334 -48.834 59.001 -66.501
s51.167 -26.5 82.5 -26.5c52 0 91.333 17.833 118 53.5s40 77.834 40 126.501c0 69.333 -11.167 126.666 -33.5 171.999s-62.166 87 -119.499 125l-13 19l2 20c20.667 27.333 49.834 48.833 87.501 64.5s73.5 23.5 107.5 23.5c35.333 0 64 -11.833 86 -35.5s39 -54 51 -91
s21.167 -77 27.5 -120s11.5 -82.833 15.5 -119.5c16.667 1.33301 30.334 8.5 41.001 21.5s19.167 28.667 25.5 47s10.5 37.333 12.5 57s3 36.5 3 50.5c0 36.667 -6.83301 70.667 -20.5 102s-32.5 58.666 -56.5 81.999s-52 41.5 -84 54.5s-65.667 19.5 -101 19.5
c-52 0 -101.167 -11.333 -147.5 -34s-86.666 -52.667 -120.999 -90s-61.333 -80.333 -81 -129s-29.5 -98.334 -29.5 -149.001z" />
    <glyph glyph-name="macron" unicode="&#xaf;" horiz-adv-x="829" 
d="M70 1380c0 22 5 38.1689 15 48.502s22.833 17.166 38.5 20.499s33.167 4.66602 52.5 3.99902s38.333 -1 57 -1l392 6c50.667 1.33301 85.167 -6.16699 103.5 -22.5s27.5 -40.833 27.5 -73.5c0 -35.333 -9.66699 -58.5 -29 -69.5s-53.333 -16.5 -102 -16.5l-392 -2
c-57.333 0 -98.833 7.5 -124.5 22.5s-38.5 42.833 -38.5 83.5z" />
    <glyph glyph-name="degree" unicode="&#xb0;" horiz-adv-x="595" 
d="M86 1212c0 30 5.83301 58 17.5 84s27.334 49 47.001 69s42.5 35.833 68.5 47.5s54 17.5 84 17.5c31.333 0 60.333 -5.83301 87 -17.5s49.834 -27.5 69.501 -47.5s35.334 -43 47.001 -69s17.5 -54 17.5 -84s-5.83301 -58.333 -17.5 -85s-27.334 -49.834 -47.001 -69.501
s-42.834 -35.334 -69.501 -47.001s-55.667 -17.5 -87 -17.5c-30 0 -58 5.83301 -84 17.5s-48.833 27.334 -68.5 47.001s-35.334 42.834 -47.001 69.501s-17.5 55 -17.5 85zM178 1192c0 -34 12.333 -63.333 37 -88s54 -37 88 -37c35.333 0 65 12.333 89 37s36 54 36 88
c0 35.333 -12 64.666 -36 87.999s-53.667 35 -89 35c-34 0 -63.333 -11.667 -88 -35s-37 -52.666 -37 -87.999z" />
    <glyph glyph-name="plusminus" unicode="&#xb1;" horiz-adv-x="1042" 
d="M70 135c0 22 5 40.168 15 54.501s22.833 25.666 38.5 33.999s33.167 14.166 52.5 17.499s38.333 5 57 5h617c50.667 0 85.167 -13.333 103.5 -40s27.5 -56.334 27.5 -89.001c0 -35.333 -9.5 -63.666 -28.5 -84.999s-53.167 -32 -102.5 -32h-617
c-57.333 0 -98.833 12.333 -124.5 37s-38.5 57.334 -38.5 98.001zM70 858.001c0 22 5.00195 39.8301 15.002 53.4971s22.833 24.5 38.5 32.5s33.167 13.5 52.5 16.5s38.333 4.5 57 4.5h183v194c0 50.667 13.667 84.834 41 102.501s57.333 26.5 90 26.5
c35.333 0 62.833 -9.83301 82.5 -29.5s29.5 -54.167 29.5 -103.5v-186h191c50.667 0 85.167 -13.333 103.5 -40s27.5 -56.334 27.5 -89.001c0 -35.333 -9.5 -63.333 -28.5 -84s-53.167 -31 -102.5 -31h-193v-186c0 -57.333 -12.5 -98.666 -37.5 -123.999
s-58.167 -38 -99.5 -38c-22 0 -39.833 5.16699 -53.5 15.5s-23.834 23.333 -30.501 39s-11.334 33.334 -14.001 53.001s-4 39.167 -4 58.5v180h-185c-57.333 0 -98.833 12.333 -124.5 37s-38.5 57.334 -38.5 98.001z" />
    <glyph glyph-name="uni00B2" unicode="&#xb2;" horiz-adv-x="1484" 
d="M33 981c6.66699 96.667 30.5 186.331 71.5 268.998s94.667 154 161 214s143.5 107.167 231.5 141.5s183 51.5 285 51.5c96.667 0 183.334 -16 260.001 -48s142.334 -77.167 197.001 -135.5s96.334 -127.666 125.001 -207.999s43 -169.166 43 -266.499
c0 -88.667 -23.5 -173.167 -70.5 -253.5s-105 -155.666 -174 -225.999s-143.167 -134.5 -222.5 -192.5l-217 -155c18 -9.33301 34.5 -16.5 49.5 -21.5s32.333 -8.5 52 -10.5s43.834 -3.33301 72.501 -4s65.667 -1 111 -1c131.333 0 274.666 6.33301 429.999 19
c-46.667 -62.667 -93.5 -109.167 -140.5 -139.5s-105.5 -45.5 -175.5 -45.5c-32.667 0 -72.834 1.33301 -120.501 4s-111.167 4 -190.5 4c-32.667 0 -61.334 -0.333008 -86.001 -1s-51.334 -2 -80.001 -4l-103.5 -7c-40.333 -2.66699 -92.5 -5.33398 -156.5 -8.00098
c-16.667 0 -34.5 0.666992 -53.5 2s-36.333 4.66602 -52 9.99902s-28.667 13.5 -39 24.5s-15.5 26.167 -15.5 45.5c0 23.333 10.667 42.166 32 56.499s47.666 27 78.999 38l99 34.5c34.667 12 66.334 28.333 95.001 49c52 27.333 109.5 64.5 172.5 111.5
s121.833 98.833 176.5 155.5s100 116.167 136 178.5s54 122.166 54 179.499c0 75.333 -5.83301 149 -17.5 221s-32.834 136.333 -63.501 193s-73 102.5 -127 137.5s-123.333 52.5 -208 52.5c-64 0 -123.333 -12.667 -178 -38s-102.5 -59.166 -143.5 -101.499
s-73.667 -91.833 -98 -148.5s-38.833 -115.667 -43.5 -177c-1.33301 -23.333 -9.16602 -40.166 -23.499 -50.499s-30.833 -15.5 -49.5 -15.5c-20.667 0 -40.167 5.83301 -58.5 17.5s-26.833 27.834 -25.5 48.501z" />
    <glyph glyph-name="uni00B3" unicode="&#xb3;" horiz-adv-x="1259" 
d="M25 217c0 6.66699 1.99609 14.5 5.99609 23.5s9.33301 18.333 16 28s14.5 17.5 23.5 23.5s18.833 9 29.5 9c22 0 41.833 -12 59.5 -36s39.5 -50 65.5 -78s58.833 -53.833 98.5 -77.5s90.834 -35.5 153.501 -35.5c60 0 111.833 4.66699 155.5 14s80.5 26.666 110.5 51.999
s52.167 59.5 66.5 102.5s21.5 98.167 21.5 165.5c0 58.667 -9.5 109.167 -28.5 151.5s-42.833 78.166 -71.5 107.499s-59.667 53.5 -93 72.5s-64.333 35.667 -93 50s-52.667 27.333 -72 39s-29 24.167 -29 37.5c0 19.333 11 39.166 33 59.499s46.333 45.166 73 74.499
s50.834 64.833 72.501 106.5s32.5 91.834 32.5 150.501c0 40.667 -9.16699 75.834 -27.5 105.501s-40.5 53.667 -66.5 72s-53.667 32 -83 41s-54.333 13.5 -75 13.5c-49.333 0 -88.166 -13 -116.499 -39s-52.833 -54.667 -73.5 -86s-40.5 -60 -59.5 -86
s-44.167 -39 -75.5 -39c-9.33301 0 -16.166 5.83301 -20.499 17.5s-6.5 25.5 -6.5 41.5c0 57.333 17.167 108.333 51.5 153s76.333 82.334 126 113.001s102.834 54.167 159.501 70.5s107.667 24.5 153 24.5c39.333 0 84.333 -2 135 -6s98.167 -14.667 142.5 -32
s81.5 -42.333 111.5 -75s45 -77.667 45 -135c0 -49.333 -5.5 -93.333 -16.5 -132s-23.667 -73.5 -38 -104.5s-28.333 -58 -42 -81s-23.834 -42.833 -30.501 -59.5c-1.33301 -2.66699 6.16699 -9.83398 22.5 -21.501l64.5 -48c26.667 -20.333 55.334 -45.166 86.001 -74.499
s59.667 -63.166 87 -101.499s49.833 -81.333 67.5 -129s26.5 -100.834 26.5 -159.501c0 -105.333 -20.167 -193.166 -60.5 -263.499s-93.833 -127 -160.5 -170s-142.334 -73.667 -227.001 -92s-171.334 -27.5 -260.001 -27.5c-35.333 0 -79.666 2.33301 -132.999 7
s-105 16.5 -155 35.5s-92.667 46.333 -128 82s-53 84.167 -53 145.5z" />
    <glyph glyph-name="acute" unicode="&#xb4;" horiz-adv-x="665" 
d="M223 1130c0 4 0.332031 7.83398 0.999023 11.501s1.66699 7.5 3 11.5l179 272c10.667 5.33301 21.334 8.33301 32.001 9c10.667 0 19 -1.33301 25 -4c9.33301 -2.66699 17.5 -7.5 24.5 -14.5s10.5 -16.833 10.5 -29.5c0 -4 -1.33301 -11.333 -4 -22l-177 -285
c-6.66699 -6.66699 -15.334 -10 -26.001 -10c-5.33301 0 -13.666 1.33301 -24.999 4c-10.667 4 -20.5 10.667 -29.5 20s-13.5 21.666 -13.5 36.999z" />
    <glyph glyph-name="uni00B5" unicode="&#xb5;" horiz-adv-x="2181" 
d="M66 1225c0 76.667 12.1592 149 36.4922 217s59 127.333 104 178s99 90.667 162 120s132.833 44 209.5 44c118.667 0 223 -27 313 -81s161 -125.333 213 -214c50.667 88.667 121.334 160 212.001 214s194.667 81 312 81c76.667 0 146.334 -14.667 209.001 -44
s116.5 -69.333 161.5 -120s79.833 -110.167 104.5 -178.5s37 -140.5 37 -216.5c0 -94 -15.667 -179.667 -47 -257s-75.666 -150.666 -132.999 -219.999v-15c0 -9.33301 5.83301 -20.833 17.5 -34.5s24.667 -30 39 -49s27.333 -40.833 39 -65.5s17.5 -52.667 17.5 -84
c0 -66.667 -10.333 -128.5 -31 -185.5s-48.667 -109.333 -84 -157s-77 -92 -125 -133s-98.667 -79.167 -152 -114.5c-4 -4 -11.5 -9.5 -22.5 -16.5s-23.667 -13.833 -38 -20.5s-28.666 -12.5 -42.999 -17.5s-26.166 -7.5 -35.499 -7.5
c-15.333 0 -25.666 6.83301 -30.999 20.5s-8 27.5 -8 41.5c0 8 8.16699 17.833 24.5 29.5s36.833 25.334 61.5 41.001s51 34.167 79 55.5s54.333 46.333 79 75s45.167 62 61.5 100s24.5 81 24.5 129c0 45.333 -9.83301 83.666 -29.5 114.999s-41.5 58.166 -65.5 80.499
s-46 41 -66 56s-30 29.5 -30 43.5v12c6.66699 24.667 14.5 45.834 23.5 63.501s19.667 34 32 49l39 49.5c13.667 18 28.167 39 43.5 63c27.333 44 45.333 94.667 54 152s13 109.333 13 156c0 49.333 -7.83301 99.166 -23.5 149.499s-38.834 96 -69.501 137
s-68.167 74.167 -112.5 99.5s-95.833 38 -154.5 38c-48 0 -91.167 -11 -129.5 -33s-71 -50.333 -98 -85s-47.667 -74.334 -62 -119.001s-21.5 -88.667 -21.5 -132c0 -42 5.33301 -83.833 16 -125.5s27.667 -79 51 -112s52.333 -59.667 87 -80s76 -30.5 124 -30.5
c19.333 0 34.833 3.66699 46.5 11s22.834 15.833 33.501 25.5s21.834 18.334 33.501 26.001s25.834 11.5 42.501 11.5c23.333 0 38.666 -4.16699 45.999 -12.5s11 -24.166 11 -47.499c0 -35.333 -7.83301 -66 -23.5 -92s-35.834 -47.833 -60.501 -65.5
s-51.667 -30.667 -81 -39s-58.333 -12.5 -87 -12.5c-70.667 0 -132 18.5 -184 55.5s-94.333 82.833 -127 137.5c-34 -54.667 -77 -100.5 -129 -137.5s-113.333 -55.5 -184 -55.5c-28.667 0 -57.834 4.16699 -87.501 12.5s-56.667 21.333 -81 39s-44.333 39.5 -60 65.5
s-23.5 56.667 -23.5 92c0 23.333 4 39.166 12 47.499s23.667 12.5 47 12.5c16.667 0 30.334 -3.83301 41.001 -11.5s21.5 -16.334 32.5 -26.001s22.667 -18.167 35 -25.5s27.5 -11 45.5 -11c48 0 89.667 10.833 125 32.5s64.5 50.667 87.5 87s40 77.666 51 123.999
s15.167 94.166 12.5 143.499c-1.33301 40.667 -10.166 80.834 -26.499 120.501s-38.166 74.834 -65.499 105.501s-59.5 55.667 -96.5 75s-77.167 29 -120.5 29c-58.667 0 -110.167 -12.667 -154.5 -38s-81.5 -58.5 -111.5 -99.5s-53 -86.833 -69 -137.5
s-24 -100.334 -24 -149.001c0 -23.333 1.16699 -48.333 3.5 -75s5.83301 -53.667 10.5 -81s11.167 -54 19.5 -80s19.166 -50 32.499 -72c15.333 -24.667 29.666 -45.834 42.999 -63.501l38.5 -49c12.333 -15 23.333 -31.333 33 -49s17.167 -38.834 22.5 -63.501v-12
c0 -13.333 -9.83301 -27.666 -29.5 -42.999s-41.5 -34.166 -65.5 -56.499s-45.833 -49.166 -65.5 -80.499s-29.5 -69.666 -29.5 -114.999c0 -48 8.16699 -91 24.5 -129s36.833 -71.333 61.5 -100s51.334 -53.667 80.001 -75s55.167 -39.833 79.5 -55.5l61.5 -41
c16.667 -11.667 25 -21.5 25 -29.5c0 -13.333 -3.16699 -27 -9.5 -41s-16.833 -21 -31.5 -21c-9.33301 0 -21.333 2.5 -36 7.5s-29.167 10.833 -43.5 17.5s-27 13.5 -38 20.5s-18.5 12.5 -22.5 16.5c-53.333 35.333 -103.833 73.5 -151.5 114.5s-89.167 85.333 -124.5 133
s-63.333 99.834 -84 156.501s-31 118.667 -31 186c0 31.333 5.83301 59.333 17.5 84s24.667 46.5 39 65.5s27.333 35.333 39 49s17.5 25.167 17.5 34.5v15c-57.333 69.333 -101.666 142.666 -132.999 219.999s-47 163 -47 257zM732.992 348c0 31.333 6.16699 57 18.5 77
s37.5 30 75.5 30c46.667 0 72.667 -33.667 78 -101c0 -23.333 -5.5 -45.166 -16.5 -65.499s-34.167 -30.5 -69.5 -30.5c-31.333 0 -53.5 8.16699 -66.5 24.5s-19.5 38.166 -19.5 65.499zM912.992 -160c0 48 16.833 88.667 50.5 122s74.167 50 121.5 50
c24.667 0 47.667 -4.33301 69 -13s39.833 -20.834 55.5 -36.501s28 -34.167 37 -55.5s13.5 -43.666 13.5 -66.999s-4.5 -45.5 -13.5 -66.5s-21.333 -39.333 -37 -55s-34.167 -28 -55.5 -37s-44.333 -13.5 -69 -13.5c-48 0 -88.667 16.667 -122 50s-50 74 -50 122z
M986.992 -174c0 -27.333 9.5 -50.833 28.5 -70.5s42.167 -29.5 69.5 -29.5s50.666 9.83301 69.999 29.5s29 43.167 29 70.5s-9.66699 50.166 -29 68.499s-42.666 27.5 -69.999 27.5s-50.5 -9.16699 -69.5 -27.5s-28.5 -41.166 -28.5 -68.499zM1265.99 348
c0 31.333 6.5 57 19.5 77s37.833 30 74.5 30c48 0 74.667 -33.667 80 -101c0 -23.333 -5.83301 -45.166 -17.5 -65.499s-35.167 -30.5 -70.5 -30.5c-31.333 0 -53.5 8.16699 -66.5 24.5s-19.5 38.166 -19.5 65.499z" />
    <glyph glyph-name="paragraph" unicode="&#xb6;" horiz-adv-x="1263" 
d="M53 791c0 48 5.83691 101.167 17.5039 159.5s28.834 118 51.501 179s50.667 120.5 84 178.5s72.166 109.167 116.499 153.5s93.5 80.166 147.5 107.499s113 41 177 41c86 0 160.167 -27 222.5 -81s113.166 -126 152.499 -216s68.666 -193.833 87.999 -311.5
s29 -239.834 29 -366.501c0 -132.667 -10 -262.5 -30 -389.5s-48.667 -240.333 -86 -340s-82.666 -180.167 -135.999 -241.5s-113.333 -92 -180 -92c-10.667 0 -27.667 1.33301 -51 4s-46.666 7.83398 -69.999 15.501s-43.5 18 -60.5 31s-25.5 29.5 -25.5 49.5v13l4 16
c56 45.333 102.667 99.333 140 162s67.666 129.834 90.999 201.501s40.166 144.334 50.499 218.001s15.5 144.167 15.5 211.5c0 44 -3.5 85.333 -10.5 124s-14.5 73 -22.5 103s-16.167 53.833 -24.5 71.5s-13.833 26.5 -16.5 26.5l-2 -4c0 -9.33301 -7.5 -24 -22.5 -44
s-34.833 -42.167 -59.5 -66.5s-53.334 -49.5 -86.001 -75.5s-67.167 -49.667 -103.5 -71s-72.833 -38.833 -109.5 -52.5s-71.334 -20.5 -104.001 -20.5c-53.333 0 -97.833 22.667 -133.5 68s-53.5 124.666 -53.5 237.999z" />
    <glyph glyph-name="periodcentered" unicode="&#xb7;" horiz-adv-x="393" 
d="M90 698c0 35.333 7.16699 64.333 21.5 87s43.5 34 87.5 34c26 0 46.833 -8.83301 62.5 -26.5s24.834 -46.834 27.501 -87.501c1.33301 -27.333 -4.83398 -52.666 -18.501 -75.999s-41.167 -35 -82.5 -35c-35.333 0 -60.5 9.5 -75.5 28.5s-22.5 44.167 -22.5 75.5z" />
    <glyph glyph-name="cedilla" unicode="&#xb8;" horiz-adv-x="591" 
d="M104 -408c0 20.667 5.16797 36.833 15.501 48.5s21.166 18.167 32.499 19.5c1.33301 0 2 -2 2 -6c0 -8 1.33301 -18.167 4 -30.5s8 -24.666 16 -36.999s19.167 -23 33.5 -32s32.5 -13.5 54.5 -13.5c15.333 0 30.166 5.83301 44.499 17.5s21.5 27.167 21.5 46.5
c0 2.66699 -1 6 -3 10s-7.16699 11.5 -15.5 22.5s-20.666 26.333 -36.999 46l-67.5 80.5c-12 15.333 -20.167 27.833 -24.5 37.5s-6.5 17.834 -6.5 24.501s1.33301 13.167 4 19.5s6 14.833 10 25.5c4 4 8.83301 13.167 14.5 27.5s10.5 29.666 14.5 45.999l11 46
c3.33301 14.333 5 24.166 5 29.499h37c8 -42 23 -78 45 -108s44.667 -58.333 68 -85s44.5 -53.334 63.5 -80.001s29.833 -57.667 32.5 -93c0 -1.33301 -1.66699 -10.5 -5 -27.5s-12.5 -35.833 -27.5 -56.5s-38.167 -39.167 -69.5 -55.5s-75 -24.5 -131 -24.5
c-42 0 -76.167 10.833 -102.5 32.5s-39.5 44.834 -39.5 69.501z" />
    <glyph glyph-name="uni00B9" unicode="&#xb9;" horiz-adv-x="901" 
d="M57 899c0 48 2.83203 100.002 8.49902 156.002s15.334 111.667 29.001 167s32 108.833 55 160.5s52.667 97.334 89 137.001s79.666 71.5 129.999 95.5s109.166 36 176.499 36c40.667 0 76 -16.833 106 -50.5s56 -76.334 78 -128.001s39.5 -109.334 52.5 -173.001
s23.5 -125.5 31.5 -185.5s13.5 -115 16.5 -165s4.5 -87.667 4.5 -113c0 -98 -3.16699 -189.167 -9.5 -273.5s-20.333 -163 -42 -236s-54 -142.333 -97 -208s-101.5 -129.834 -175.5 -192.501c-8 -5.33301 -15.667 -10 -23 -14c-6.66699 -2.66699 -13 -5.33398 -19 -8.00098
s-11.667 -4 -17 -4c-15.333 0 -30.5 6.16699 -45.5 18.5s-22.5 29.166 -22.5 50.499c0 2.66699 0.333008 7.83398 1 15.501s4.33398 12.834 11.001 15.501c35.333 83.333 64.333 167 87 251s40.167 165.167 52.5 243.5s20.833 153 25.5 224s7 135.167 7 192.5
c0 36.667 -1 81 -3 133s-9.16699 101.667 -21.5 149s-31.5 87.666 -57.5 120.999s-62.667 50 -110 50c-31.333 0 -59 -17.333 -83 -52s-44.167 -76 -60.5 -124s-28.666 -97.167 -36.999 -147.5s-12.5 -91.166 -12.5 -122.499c0 -13.333 -8.5 -24 -25.5 -32
s-35.167 -12 -54.5 -12c-12 0 -22.5 2.16699 -31.5 6.5s-13.5 10.5 -13.5 18.5z" />
    <glyph glyph-name="ordmasculine" unicode="&#xba;" horiz-adv-x="724" 
d="M47 1169c0 36.667 5.16699 79.002 15.5 127.002s28.833 93.167 55.5 135.5s63.834 78.166 111.501 107.499s108.5 44 182.5 44c30 0 59.667 -6.5 89 -19.5s55.833 -32.5 79.5 -58.5s43.167 -58.333 58.5 -97s23 -84 23 -136c0 -26 -2.16699 -62.833 -6.5 -110.5
s-17.333 -95.167 -39 -142.5s-55.5 -88.333 -101.5 -123s-110.333 -52 -193 -52c-40.667 0 -77.834 9.83301 -111.501 29.5s-62.5 45.167 -86.5 76.5s-42.833 66.166 -56.5 104.499s-20.5 76.5 -20.5 114.5zM80 676.002c0 15.333 5.16797 29.665 15.501 42.998
s26.166 20 47.499 20l84 -22c19.333 -5.33301 37.833 -10.166 55.5 -14.499l57.5 -13.5l72 -17c27.333 -6.66699 60.666 -15.667 99.999 -27l111 -29c2.66699 -1.33301 5.33398 -9.16602 8.00098 -23.499s5 -30.333 7 -48s3.66699 -34.334 5 -50.001s2 -26.167 2 -31.5
c0 -12 -3.66699 -23.5 -11 -34.5s-21.333 -16.5 -42 -16.5c-13.333 2.66699 -27.333 5 -42 7s-29.334 5 -44.001 9l-279 66c-19.333 4 -39.166 8.66699 -59.499 14l-65.5 18c-4 2.66699 -7.33301 10.834 -10 24.501s-5 29.167 -7 46.5s-3.33301 33.5 -4 48.5
s-1 25.167 -1 30.5zM252.001 1223c0 -16.667 0.664062 -41 1.99707 -73s5.83301 -64.333 13.5 -97s19.334 -61 35.001 -85s37.834 -36 66.501 -36c23.333 0 40.666 7.83301 51.999 23.5s20.166 34.334 26.499 56.001s9.83301 44.167 10.5 67.5s1 43.333 1 60
c0 19.333 -0.666992 47.666 -2 84.999s-5.16602 74.833 -11.499 112.5s-16.666 70.834 -30.999 99.501s-34.5 43 -60.5 43c-23.333 0 -41.666 -6.83301 -54.999 -20.5s-23.5 -30.834 -30.5 -51.501s-11.5 -42.5 -13.5 -65.5s-3 -44.167 -3 -63.5v-55z" />
    <glyph glyph-name="guillemotright" unicode="&#xbb;" horiz-adv-x="915" 
d="M76 291c0 2.66699 1.66699 6.00098 5 10.001s12.166 11.5 26.499 22.5s37.166 26.667 68.499 47l131 84.5l-123 81.5c-30 20.333 -52.833 36.333 -68.5 48s-25.5 19.834 -29.5 24.501s-6 8.66699 -6 12v2c0 15.333 6 27.333 18 36c6.66699 6.66699 14.167 11.5 22.5 14.5
s15.833 4.5 22.5 4.5l150.5 -92l116.5 -72c19.333 -12 35 -22.5 47 -31.5s18 -18.167 18 -27.5c0 -18 -23 -38.667 -69 -62c-31.333 -19.333 -67.166 -42.833 -107.499 -70.5s-89.166 -55.834 -146.499 -84.501l-13 -7c-18 0 -33 7.66699 -45 23
c-12 9.33301 -18 21.666 -18 36.999zM444 291.001c0 2.66699 1.83301 6.00098 5.5 10.001s12.667 11.5 27 22.5s37.166 26.667 68.499 47l131 84.5l-123 81.5c-30 20.333 -52.833 36.333 -68.5 48s-25.5 19.834 -29.5 24.501s-6 8.66699 -6 12v2c0 15.333 6 27.333 18 36
c6.66699 6.66699 14.167 11.5 22.5 14.5s15.833 4.5 22.5 4.5l150.5 -92l115.5 -72c19.333 -12 35.166 -22.5 47.499 -31.5s18.5 -18.167 18.5 -27.5c0 -18 -23.333 -38.667 -70 -62c-31.333 -19.333 -67.166 -42.833 -107.499 -70.5s-89.166 -55.834 -146.499 -84.501
l-12 -7c-18 0 -33 7.66699 -45 23c-12.667 9.33301 -19 21.666 -19 36.999z" />
    <glyph glyph-name="onequarter" unicode="&#xbc;" horiz-adv-x="2656" 
d="M1266 485l0.000976562 3.99609c2.66699 20.667 13.167 39.834 31.5 57.501s40.166 33.334 65.499 47.001s51.333 25.334 78 35.001s49 16.5 67 20.5l6 62c1.33301 8 2 16 2 24v25c0 49.333 -4.83301 97.833 -14.5 145.5s-20.334 95.334 -32.001 143.001
s-22.167 96.167 -31.5 145.5s-14 100 -14 152v29c0 8.66699 0.666992 18.667 2 30c4 46.667 12.833 86.667 26.5 120s30.334 61.166 50.001 83.499s40.5 39 62.5 50s43 16.5 63 16.5h11c26 0 47.167 -10.833 63.5 -32.5s25.833 -50.5 28.5 -86.5l8 -110
c6.66699 -78 17.834 -158.333 33.501 -241s23.5 -162.667 23.5 -240v-36c0 -11.333 -0.666992 -22.666 -2 -33.999c-5.33301 -56 -16.833 -107.167 -34.5 -153.5s-38.834 -87.5 -63.501 -123.5c2.66699 -1.33301 5.33398 -2 8.00098 -2s6.33398 -0.666992 11.001 -2
c15.333 -4 39.166 -8.33301 71.499 -13s69.666 -9.66699 111.999 -15l135.5 -16.5l141 -16.5v913c0 19.333 7.5 40.666 22.5 63.999s33.833 45.166 56.5 65.499s47 37.333 73 51s50 20.5 72 20.5c4 0 10 -0.333008 18 -1s16.167 -2.66699 24.5 -6
s15.5 -9.16602 21.5 -17.499s9 -19.833 9 -34.5v-1067l19.5 4c6.33301 1.33301 12.833 1.33301 19.5 0l25 -2c13.333 -1.33301 22.166 -5.16602 26.5 -11.499c4.33301 -6.33301 6.5 -16.833 6.5 -31.5v-15c-2.66699 -31.333 -13 -56.833 -31 -76.5s-40 -35.167 -66 -46.5
v-178l17 -102c0 -19.333 -6.5 -39.5 -19.5 -60.5s-28.833 -40 -47.5 -57s-38.167 -31.333 -58.5 -43s-38.166 -17.5 -53.5 -17.5c-24.667 0 -44.334 12.667 -59 38c-14.667 25.333 -26.167 58.333 -34.5 99s-14.166 87.667 -17.5 141c-3.33301 53.333 -5 108.666 -5 165.999
c-49.333 8 -104.666 20 -166 36l-186.5 47.5c-63 15.667 -123.167 29.667 -180.5 42s-106.333 20.5 -147 24.5h-23c-20.667 0 -42.167 -1.5 -64.5 -4.5s-43 -6.16699 -62 -9.5l-50 -9c-14.333 -2.66699 -22.833 -4 -25.5 -4h-5c-12 2.66699 -18 7.33398 -18 14.001z
M526.001 71.9961l894.999 1343c8 8 17.667 12 29 12c4 0 11.5 -2.33301 22.5 -7s22.333 -10.334 34 -17.001s21.834 -13.5 30.501 -20.5s13 -12.5 13 -16.5c0 -9.33301 1.33301 -16 4 -20v-5c-13.333 -27.333 -39.5 -70.666 -78.5 -129.999l-139.5 -205.5l-175 -250.5
l-185 -267.5l-172 -253c-54 -79.667 -98.667 -149.5 -134 -209.5c-12 -8 -25 -12.333 -39 -13c-10.667 0 -27 2.5 -49 7.5s-36.333 11.5 -43 19.5c-8.66699 11.333 -13 22.333 -13 33zM57 898.996c0 48 2.83203 100.002 8.49902 156.002s15.334 111.667 29.001 167
s32 108.833 55 160.5s52.667 97.334 89 137.001s79.666 71.5 129.999 95.5s109.166 36 176.499 36c40.667 0 76 -16.833 106 -50.5s56 -76.334 78 -128.001s39.5 -109.334 52.5 -173.001s23.5 -125.5 31.5 -185.5s13.5 -115 16.5 -165s4.5 -87.667 4.5 -113
c0 -98 -3.16699 -189.167 -9.5 -273.5s-20.333 -163 -42 -236s-54 -142.333 -97 -208s-101.5 -129.834 -175.5 -192.501c-8 -5.33301 -15.667 -10 -23 -14c-6.66699 -2.66699 -13 -5.33398 -19 -8.00098s-11.667 -4 -17 -4c-15.333 0 -30.5 6.16699 -45.5 18.5
s-22.5 29.166 -22.5 50.499c0 2.66699 0.333008 7.83398 1 15.501s4.33398 12.834 11.001 15.501c35.333 83.333 64.333 167 87 251s40.167 165.167 52.5 243.5s20.833 153 25.5 224s7 135.167 7 192.5c0 36.667 -1 81 -3 133s-9.16699 101.667 -21.5 149
s-31.5 87.666 -57.5 120.999s-62.667 50 -110 50c-31.333 0 -59 -17.333 -83 -52s-44.167 -76 -60.5 -124s-28.666 -97.167 -36.999 -147.5s-12.5 -91.166 -12.5 -122.499c0 -13.333 -8.5 -24 -25.5 -32s-35.167 -12 -54.5 -12c-12 0 -22.5 2.16699 -31.5 6.5
s-13.5 10.5 -13.5 18.5z" />
    <glyph glyph-name="onehalf" unicode="&#xbd;" horiz-adv-x="2750" 
d="M1299 981c6.66699 96.667 30.502 186.331 71.502 268.998s94.667 154 161 214s143.5 107.167 231.5 141.5s183 51.5 285 51.5c96.667 0 183.334 -16 260 -48c76.667 -32 142.334 -77.167 197 -135.5c54.667 -58.333 96.334 -127.666 125 -207.999
c28.667 -80.333 43 -169.166 43 -266.499c0 -88.667 -23.5 -173.167 -70.5 -253.5s-105 -155.666 -174 -225.999s-143.167 -134.5 -222.5 -192.5l-217 -155c18 -9.33301 34.5 -16.5 49.5 -21.5s32.333 -8.5 52 -10.5s43.834 -3.33301 72.5 -4
c28.667 -0.666992 65.667 -1 111 -1c131.333 0 274.666 6.33301 430 19c-46.667 -62.667 -93.5 -109.167 -140.5 -139.5s-105.5 -45.5 -175.5 -45.5c-32.667 0 -72.834 1.33301 -120.5 4c-47.667 2.66699 -111.167 4 -190.5 4c-32.667 0 -61.334 -0.333008 -86.001 -1
s-51.334 -2 -80.001 -4l-103.5 -7c-40.333 -2.66699 -92.5 -5.33398 -156.5 -8.00098c-16.667 0 -34.5 0.666992 -53.5 2s-36.333 4.66602 -52 9.99902s-28.667 13.5 -39 24.5s-15.5 26.167 -15.5 45.5c0 23.333 10.667 42.166 32 56.499s47.666 27 78.999 38l99 34.5
c34.667 12 66.334 28.333 95.001 49c52 27.333 109.5 64.5 172.5 111.5s121.833 98.833 176.5 155.5s100 116.167 136 178.5s54 122.166 54 179.499c0 75.333 -5.83301 149 -17.5 221s-32.834 136.333 -63.501 193s-73 102.5 -127 137.5s-123.333 52.5 -208 52.5
c-64 0 -123.333 -12.667 -178 -38s-102.5 -59.166 -143.5 -101.499s-73.667 -91.833 -98 -148.5s-38.833 -115.667 -43.5 -177c-1.33301 -23.333 -9.16602 -40.166 -23.499 -50.499s-30.833 -15.5 -49.5 -15.5c-20.667 0 -40.167 5.83301 -58.5 17.5
s-26.833 27.834 -25.5 48.501zM526.002 71.9971l894.999 1343c8 8 17.667 12 29 12c4 0 11.5 -2.33301 22.5 -7s22.333 -10.334 34 -17.001s21.834 -13.5 30.501 -20.5s13 -12.5 13 -16.5c0 -9.33301 1.33301 -16 4 -20v-5c-13.333 -27.333 -39.5 -70.666 -78.5 -129.999
l-139.5 -205.5l-175 -250.5l-185 -267.5l-172 -253c-54 -79.667 -98.667 -149.5 -134 -209.5c-12 -8 -25 -12.333 -39 -13c-10.667 0 -27 2.5 -49 7.5s-36.333 11.5 -43 19.5c-8.66699 11.333 -13 22.333 -13 33zM57.001 898.997c0 48 2.83203 100.002 8.49902 156.002
s15.334 111.667 29.001 167s32 108.833 55 160.5s52.667 97.334 89 137.001s79.666 71.5 129.999 95.5s109.166 36 176.499 36c40.667 0 76 -16.833 106 -50.5s56 -76.334 78 -128.001s39.5 -109.334 52.5 -173.001s23.5 -125.5 31.5 -185.5s13.5 -115 16.5 -165
s4.5 -87.667 4.5 -113c0 -98 -3.16699 -189.167 -9.5 -273.5s-20.333 -163 -42 -236s-54 -142.333 -97 -208s-101.5 -129.834 -175.5 -192.501c-8 -5.33301 -15.667 -10 -23 -14c-6.66699 -2.66699 -13 -5.33398 -19 -8.00098s-11.667 -4 -17 -4
c-15.333 0 -30.5 6.16699 -45.5 18.5s-22.5 29.166 -22.5 50.499c0 2.66699 0.333008 7.83398 1 15.501s4.33398 12.834 11.001 15.501c35.333 83.333 64.333 167 87 251s40.167 165.167 52.5 243.5s20.833 153 25.5 224s7 135.167 7 192.5c0 36.667 -1 81 -3 133
s-9.16699 101.667 -21.5 149s-31.5 87.666 -57.5 120.999s-62.667 50 -110 50c-31.333 0 -59 -17.333 -83 -52s-44.167 -76 -60.5 -124s-28.666 -97.167 -36.999 -147.5s-12.5 -91.166 -12.5 -122.499c0 -13.333 -8.5 -24 -25.5 -32s-35.167 -12 -54.5 -12
c-12 0 -22.5 2.16699 -31.5 6.5s-13.5 10.5 -13.5 18.5z" />
    <glyph glyph-name="threequarters" unicode="&#xbe;" horiz-adv-x="3014" 
d="M1624 485l0.000976562 3.99609c2.66699 20.667 13.167 39.834 31.5 57.501s40.166 33.334 65.499 47.001s51.333 25.334 78 35.001s49 16.5 67 20.5l6 62c1.33301 8 2 16 2 24v25c0 49.333 -4.83301 97.833 -14.5 145.5s-20.334 95.334 -32.001 143.001
s-22.167 96.167 -31.5 145.5s-14 100 -14 152v29c0 8.66699 0.666992 18.667 2 30c4 46.667 12.833 86.667 26.5 120s30.334 61.166 50.001 83.499s40.5 39 62.5 50s43 16.5 63 16.5h11c26 0 47.167 -10.833 63.5 -32.5s25.833 -50.5 28.5 -86.5l8 -110
c6.66699 -78 17.834 -158.333 33.5 -241c15.667 -82.667 23.5 -162.667 23.5 -240v-36c0 -11.333 -0.666992 -22.666 -2 -33.999c-5.33301 -56 -16.833 -107.167 -34.5 -153.5s-38.834 -87.5 -63.5 -123.5c2.66699 -1.33301 5.33398 -2 8 -2
c2.66699 0 6.33398 -0.666992 11 -2c15.333 -4 39.166 -8.33301 71.5 -13c32.333 -4.66699 69.666 -9.66699 112 -15l135.5 -16.5l141 -16.5v913c0 19.333 7.5 40.666 22.5 63.999s33.833 45.166 56.5 65.499s47 37.333 73 51s50 20.5 72 20.5c4 0 10 -0.333008 18 -1
s16.167 -2.66699 24.5 -6s15.5 -9.16602 21.5 -17.499s9 -19.833 9 -34.5v-1067l19.5 4c6.33301 1.33301 12.833 1.33301 19.5 0l25 -2c13.333 -1.33301 22.166 -5.16602 26.5 -11.499c4.33301 -6.33301 6.5 -16.833 6.5 -31.5v-15c-2.66699 -31.333 -13 -56.833 -31 -76.5
s-40 -35.167 -66 -46.5v-178l17 -102c0 -19.333 -6.5 -39.5 -19.5 -60.5s-28.833 -40 -47.5 -57s-38.167 -31.333 -58.5 -43s-38.166 -17.5 -53.5 -17.5c-24.667 0 -44.334 12.667 -59 38c-14.667 25.333 -26.167 58.333 -34.5 99s-14.166 87.667 -17.5 141
c-3.33301 53.333 -5 108.666 -5 165.999c-49.333 8 -104.666 20 -166 36l-186.5 47.5c-63 15.667 -123.167 29.667 -180.5 42s-106.333 20.5 -147 24.5h-23c-20.667 0 -42.167 -1.5 -64.5 -4.5s-43 -6.16699 -62 -9.5l-50 -9c-14.333 -2.66699 -22.833 -4 -25.5 -4h-5
c-12 2.66699 -18 7.33398 -18 14.001zM885.001 71.9961l894.999 1343c8 8 17.667 12 29 12c4 0 11.5 -2.33301 22.5 -7s22.333 -10.334 34 -17.001s21.834 -13.5 30.501 -20.5s13 -12.5 13 -16.5c0 -9.33301 1.33301 -16 4 -20v-5
c-13.333 -27.333 -39.5 -70.666 -78.5 -129.999l-139.5 -205.5l-175 -250.5l-185 -267.5l-172 -253c-54 -79.667 -98.667 -149.5 -134 -209.5c-12 -8 -25 -12.333 -39 -13c-10.667 0 -27 2.5 -49 7.5s-36.333 11.5 -43 19.5c-8.66699 11.333 -13 22.333 -13 33zM25 216.996
c0 6.66699 1.99609 14.5 5.99609 23.5s9.33301 18.333 16 28s14.5 17.5 23.5 23.5s18.833 9 29.5 9c22 0 41.833 -12 59.5 -36s39.5 -50 65.5 -78s58.833 -53.833 98.5 -77.5s90.834 -35.5 153.501 -35.5c60 0 111.833 4.66699 155.5 14s80.5 26.666 110.5 51.999
s52.167 59.5 66.5 102.5s21.5 98.167 21.5 165.5c0 58.667 -9.5 109.167 -28.5 151.5s-42.833 78.166 -71.5 107.499s-59.667 53.5 -93 72.5s-64.333 35.667 -93 50s-52.667 27.333 -72 39s-29 24.167 -29 37.5c0 19.333 11 39.166 33 59.499s46.333 45.166 73 74.499
s50.834 64.833 72.501 106.5s32.5 91.834 32.5 150.501c0 40.667 -9.16699 75.834 -27.5 105.501s-40.5 53.667 -66.5 72s-53.667 32 -83 41s-54.333 13.5 -75 13.5c-49.333 0 -88.166 -13 -116.499 -39s-52.833 -54.667 -73.5 -86s-40.5 -60 -59.5 -86
s-44.167 -39 -75.5 -39c-9.33301 0 -16.166 5.83301 -20.499 17.5s-6.5 25.5 -6.5 41.5c0 57.333 17.167 108.333 51.5 153s76.333 82.334 126 113.001s102.834 54.167 159.501 70.5s107.667 24.5 153 24.5c39.333 0 84.333 -2 135 -6s98.167 -14.667 142.5 -32
s81.5 -42.333 111.5 -75s45 -77.667 45 -135c0 -49.333 -5.5 -93.333 -16.5 -132s-23.667 -73.5 -38 -104.5s-28.333 -58 -42 -81s-23.834 -42.833 -30.501 -59.5c-1.33301 -2.66699 6.16699 -9.83398 22.5 -21.501l64.5 -48c26.667 -20.333 55.334 -45.166 86.001 -74.499
s59.667 -63.166 87 -101.499s49.833 -81.333 67.5 -129s26.5 -100.834 26.5 -159.501c0 -105.333 -20.167 -193.166 -60.5 -263.499s-93.833 -127 -160.5 -170s-142.334 -73.667 -227.001 -92s-171.334 -27.5 -260.001 -27.5c-35.333 0 -79.666 2.33301 -132.999 7
s-105 16.5 -155 35.5s-92.667 46.333 -128 82s-53 84.167 -53 145.5z" />
    <glyph glyph-name="questiondown" unicode="&#xbf;" horiz-adv-x="1341" 
d="M41 104c0 78 20.499 144.669 61.499 200.002s92.167 103.166 153.5 143.499s127.5 74.833 198.5 103.5l198.5 80c61.333 24.667 112.5 49.167 153.5 73.5s61.5 53.166 61.5 86.499c0 12 -10.5 21.333 -31.5 28s-56.167 10 -105.5 10c-8 0 -14.333 8 -19 24
s-7 33.333 -7 52c0 18 2 33.5 6 46.5s11.333 19.5 22 19.5c54.667 0 98 -4.5 130 -13.5s56.333 -20.333 73 -34s27.334 -29 32.001 -46s7 -33.833 7 -50.5c0 -75.333 -15 -136.166 -45 -182.499s-67.833 -85.5 -113.5 -117.5s-94.834 -61.333 -147.501 -88
s-101.834 -57.334 -147.501 -92.001s-83.667 -78 -114 -130s-45.5 -119.667 -45.5 -203c0 -53.333 9.33301 -100 28 -140s44 -73.333 76 -100s69.5 -46.834 112.5 -60.501s88.5 -20.5 136.5 -20.5c60 0 115.167 8.5 165.5 25.5s94 41.833 131 74.5s65.667 72.667 86 120
s30.5 100.333 30.5 159c0 20.667 -2.33301 42.5 -7 65.5s-12.5 44 -23.5 63s-25.667 34.667 -44 47s-41.166 18.5 -68.499 18.5l-84 -18c-22 0 -37.333 7.5 -46 22.5s-13 29.833 -13 44.5c0 19.333 4.33301 36.833 13 52.5s19.834 29 33.501 40s29.167 19.5 46.5 25.5
s34 9 50 9c48 0 91.833 -13.333 131.5 -40s73.5 -60.334 101.5 -101.001s49.5 -85.334 64.5 -134.001s22.5 -94.667 22.5 -138c0 -69.333 -17.833 -132.166 -53.5 -188.499s-81.167 -104.166 -136.5 -143.499s-116 -69.666 -182 -90.999s-129.333 -32 -190 -32
c-80.667 0 -162.5 11 -245.5 33s-158.333 55.167 -226 99.5s-123 99.5 -166 165.5s-64.5 143.333 -64.5 232zM724.999 1159c0 28.667 7.16895 56 21.502 82s44.166 39 89.499 39c39.333 0 67.166 -10.5 83.499 -31.5s24.5 -48.833 24.5 -83.5
c0 -39.333 -7.83301 -71.333 -23.5 -96s-47.5 -37 -95.5 -37c-28.667 0 -51.5 9.83301 -68.5 29.5s-27.5 52.167 -31.5 97.5z" />
    <glyph glyph-name="Agrave" unicode="&#xc0;" horiz-adv-x="1531" 
d="M104 446c0 100 14.8408 196.832 44.5078 290.499s70.334 181.334 122.001 263.001s113.334 156.334 185.001 224.001s149.5 126.167 233.5 175.5s172.833 87.166 266.5 113.499s188.834 39.5 285.501 39.5c19.333 0 44.666 -0.666992 75.999 -2s65.166 -4 101.499 -8
s73.166 -10.167 110.499 -18.5s71 -19.333 101 -33s54.667 -30.667 74 -51s29 -44.833 29 -73.5c0 -13.333 -1.83301 -28.333 -5.5 -45s-8.5 -31.5 -14.5 -44.5s-13.833 -23.833 -23.5 -32.5s-20.5 -13 -32.5 -13c-8 0 -14.333 0.666992 -19 2
c-32.667 12 -64.667 27.667 -96 47l-97 57.5c-33.333 19 -68.833 35.333 -106.5 49s-80.5 20.5 -128.5 20.5c-116 0 -220.333 -21.167 -313 -63.5s-171.5 -99.666 -236.5 -171.999s-114.833 -157.333 -149.5 -255s-52 -201.167 -52 -310.5
c0 -46.667 4.33301 -95.167 13 -145.5s24.334 -96.666 47.001 -138.999s52.5 -77.166 89.5 -104.499s82.5 -41 136.5 -41c38 0 74.167 9.16699 108.5 27.5s65.166 41.833 92.499 70.5s50.166 60.167 68.499 94.5s29.833 66.5 34.5 96.5l13 83
c6 38.667 13.833 79.834 23.5 123.501s19.5 85 29.5 124s19.333 66.167 28 81.5c6.66699 23.333 18.167 45.166 34.5 65.499s36.166 38 59.499 53s48.666 26.833 75.999 35.5s54.666 13 81.999 13c12 0 22.5 -3 31.5 -9s12.833 -13.667 11.5 -23l-35 -406v-65
c0 -19.333 0.666992 -39.5 2 -60.5s3.66602 -45.5 6.99902 -73.5s8.5 -60.833 15.5 -98.5s15.833 -81.834 26.5 -132.501v-43c0 -20.667 -7.83301 -40.167 -23.5 -58.5s-35.167 -34.333 -58.5 -48s-48.333 -24.5 -75 -32.5s-50.667 -12 -72 -12
c-27.333 0 -48.833 6.83301 -64.5 20.5s-28 30 -37 49s-15.833 40.167 -20.5 63.5s-11.334 43.666 -20.001 60.999c-38 -35.333 -75.833 -68.333 -113.5 -99s-76.834 -57.334 -117.501 -80.001s-84.334 -40.5 -131.001 -53.5s-98 -19.5 -154 -19.5
c-78 0 -146 13.667 -204 41s-106 65 -144 113s-66.667 103.667 -86 167s-29 130.333 -29 201zM629.008 1853c0 12 3.33301 21.498 10 28.498s15 11.833 25 14.5c5.33301 2.66699 13.333 4.33398 24 5.00098c10.667 0 21.667 -3 33 -9l178 -272
c1.33301 -4 2.33301 -7.66699 3 -11s1 -7.33301 1 -12c0 -15.333 -4.33301 -27.666 -13 -36.999s-18.667 -16 -30 -20c-10.667 -2.66699 -18.667 -4 -24 -4c-10.667 0 -19.667 3.33301 -27 10l-176 285c-2.66699 10.667 -4 18 -4 22z" />
    <glyph glyph-name="Aacute" unicode="&#xc1;" horiz-adv-x="1531" 
d="M104 446c0 100 14.8408 196.832 44.5078 290.499s70.334 181.334 122.001 263.001s113.334 156.334 185.001 224.001s149.5 126.167 233.5 175.5s172.833 87.166 266.5 113.499s188.834 39.5 285.501 39.5c19.333 0 44.666 -0.666992 75.999 -2s65.166 -4 101.499 -8
s73.166 -10.167 110.499 -18.5s71 -19.333 101 -33s54.667 -30.667 74 -51s29 -44.833 29 -73.5c0 -13.333 -1.83301 -28.333 -5.5 -45s-8.5 -31.5 -14.5 -44.5s-13.833 -23.833 -23.5 -32.5s-20.5 -13 -32.5 -13c-8 0 -14.333 0.666992 -19 2
c-32.667 12 -64.667 27.667 -96 47l-97 57.5c-33.333 19 -68.833 35.333 -106.5 49s-80.5 20.5 -128.5 20.5c-116 0 -220.333 -21.167 -313 -63.5s-171.5 -99.666 -236.5 -171.999s-114.833 -157.333 -149.5 -255s-52 -201.167 -52 -310.5
c0 -46.667 4.33301 -95.167 13 -145.5s24.334 -96.666 47.001 -138.999s52.5 -77.166 89.5 -104.499s82.5 -41 136.5 -41c38 0 74.167 9.16699 108.5 27.5s65.166 41.833 92.499 70.5s50.166 60.167 68.499 94.5s29.833 66.5 34.5 96.5l13 83
c6 38.667 13.833 79.834 23.5 123.501s19.5 85 29.5 124s19.333 66.167 28 81.5c6.66699 23.333 18.167 45.166 34.5 65.499s36.166 38 59.499 53s48.666 26.833 75.999 35.5s54.666 13 81.999 13c12 0 22.5 -3 31.5 -9s12.833 -13.667 11.5 -23l-35 -406v-65
c0 -19.333 0.666992 -39.5 2 -60.5s3.66602 -45.5 6.99902 -73.5s8.5 -60.833 15.5 -98.5s15.833 -81.834 26.5 -132.501v-43c0 -20.667 -7.83301 -40.167 -23.5 -58.5s-35.167 -34.333 -58.5 -48s-48.333 -24.5 -75 -32.5s-50.667 -12 -72 -12
c-27.333 0 -48.833 6.83301 -64.5 20.5s-28 30 -37 49s-15.833 40.167 -20.5 63.5s-11.334 43.666 -20.001 60.999c-38 -35.333 -75.833 -68.333 -113.5 -99s-76.834 -57.334 -117.501 -80.001s-84.334 -40.5 -131.001 -53.5s-98 -19.5 -154 -19.5
c-78 0 -146 13.667 -204 41s-106 65 -144 113s-66.667 103.667 -86 167s-29 130.333 -29 201zM889.008 1663c0 4 0.333008 7.66797 1 11.001s1.66699 7.33301 3 12l178 272c10.667 5.33301 21.667 8 33 8c10.667 0 18.667 -1.33301 24 -4
c9.33301 -2.66699 17.5 -7.5 24.5 -14.5s10.5 -16.5 10.5 -28.5c0 -4 -1.33301 -11.667 -4 -23l-176 -284c-6.66699 -6.66699 -15.667 -10 -27 -10c-5.33301 0 -13.333 1.33301 -24 4c-10.667 4 -20.5 10.667 -29.5 20s-13.5 21.666 -13.5 36.999z" />
    <glyph glyph-name="Acircumflex" unicode="&#xc2;" horiz-adv-x="1531" 
d="M104 446c0 100 14.8408 196.832 44.5078 290.499s70.334 181.334 122.001 263.001s113.334 156.334 185.001 224.001s149.5 126.167 233.5 175.5s172.833 87.166 266.5 113.499s188.834 39.5 285.501 39.5c19.333 0 44.666 -0.666992 75.999 -2s65.166 -4 101.499 -8
s73.166 -10.167 110.499 -18.5s71 -19.333 101 -33s54.667 -30.667 74 -51s29 -44.833 29 -73.5c0 -13.333 -1.83301 -28.333 -5.5 -45s-8.5 -31.5 -14.5 -44.5s-13.833 -23.833 -23.5 -32.5s-20.5 -13 -32.5 -13c-8 0 -14.333 0.666992 -19 2
c-32.667 12 -64.667 27.667 -96 47l-97 57.5c-33.333 19 -68.833 35.333 -106.5 49s-80.5 20.5 -128.5 20.5c-116 0 -220.333 -21.167 -313 -63.5s-171.5 -99.666 -236.5 -171.999s-114.833 -157.333 -149.5 -255s-52 -201.167 -52 -310.5
c0 -46.667 4.33301 -95.167 13 -145.5s24.334 -96.666 47.001 -138.999s52.5 -77.166 89.5 -104.499s82.5 -41 136.5 -41c38 0 74.167 9.16699 108.5 27.5s65.166 41.833 92.499 70.5s50.166 60.167 68.499 94.5s29.833 66.5 34.5 96.5l13 83
c6 38.667 13.833 79.834 23.5 123.501s19.5 85 29.5 124s19.333 66.167 28 81.5c6.66699 23.333 18.167 45.166 34.5 65.499s36.166 38 59.499 53s48.666 26.833 75.999 35.5s54.666 13 81.999 13c12 0 22.5 -3 31.5 -9s12.833 -13.667 11.5 -23l-35 -406v-65
c0 -19.333 0.666992 -39.5 2 -60.5s3.66602 -45.5 6.99902 -73.5s8.5 -60.833 15.5 -98.5s15.833 -81.834 26.5 -132.501v-43c0 -20.667 -7.83301 -40.167 -23.5 -58.5s-35.167 -34.333 -58.5 -48s-48.333 -24.5 -75 -32.5s-50.667 -12 -72 -12
c-27.333 0 -48.833 6.83301 -64.5 20.5s-28 30 -37 49s-15.833 40.167 -20.5 63.5s-11.334 43.666 -20.001 60.999c-38 -35.333 -75.833 -68.333 -113.5 -99s-76.834 -57.334 -117.501 -80.001s-84.334 -40.5 -131.001 -53.5s-98 -19.5 -154 -19.5
c-78 0 -146 13.667 -204 41s-106 65 -144 113s-66.667 103.667 -86 167s-29 130.333 -29 201zM758.008 1646l92 151.5l72 117.5c12 19.333 22.167 35 30.5 47s17.166 18 26.499 18c13.333 0 34.333 -23 63 -69l69 -114l93 -151c0 -18 -6.66699 -33 -20 -45
c-9.33301 -12 -21.666 -18 -36.999 -18c-2.66699 0 -6.16699 1.33301 -10.5 4s-11.833 11.167 -22.5 25.5s-26.334 37.166 -47.001 68.499l-86 131l-86 -131c-20.667 -31.333 -36.5 -54.166 -47.5 -68.499s-18.5 -22.833 -22.5 -25.5s-7.33301 -4 -10 -4
c-15.333 0 -27.666 6 -36.999 18c-13.333 12 -20 27 -20 45z" />
    <glyph glyph-name="Atilde" unicode="&#xc3;" horiz-adv-x="1531" 
d="M104 446c0 100 14.8408 196.832 44.5078 290.499s70.334 181.334 122.001 263.001s113.334 156.334 185.001 224.001s149.5 126.167 233.5 175.5s172.833 87.166 266.5 113.499s188.834 39.5 285.501 39.5c19.333 0 44.666 -0.666992 75.999 -2s65.166 -4 101.499 -8
s73.166 -10.167 110.499 -18.5s71 -19.333 101 -33s54.667 -30.667 74 -51s29 -44.833 29 -73.5c0 -13.333 -1.83301 -28.333 -5.5 -45s-8.5 -31.5 -14.5 -44.5s-13.833 -23.833 -23.5 -32.5s-20.5 -13 -32.5 -13c-8 0 -14.333 0.666992 -19 2
c-32.667 12 -64.667 27.667 -96 47l-97 57.5c-33.333 19 -68.833 35.333 -106.5 49s-80.5 20.5 -128.5 20.5c-116 0 -220.333 -21.167 -313 -63.5s-171.5 -99.666 -236.5 -171.999s-114.833 -157.333 -149.5 -255s-52 -201.167 -52 -310.5
c0 -46.667 4.33301 -95.167 13 -145.5s24.334 -96.666 47.001 -138.999s52.5 -77.166 89.5 -104.499s82.5 -41 136.5 -41c38 0 74.167 9.16699 108.5 27.5s65.166 41.833 92.499 70.5s50.166 60.167 68.499 94.5s29.833 66.5 34.5 96.5l13 83
c6 38.667 13.833 79.834 23.5 123.501s19.5 85 29.5 124s19.333 66.167 28 81.5c6.66699 23.333 18.167 45.166 34.5 65.499s36.166 38 59.499 53s48.666 26.833 75.999 35.5s54.666 13 81.999 13c12 0 22.5 -3 31.5 -9s12.833 -13.667 11.5 -23l-35 -406v-65
c0 -19.333 0.666992 -39.5 2 -60.5s3.66602 -45.5 6.99902 -73.5s8.5 -60.833 15.5 -98.5s15.833 -81.834 26.5 -132.501v-43c0 -20.667 -7.83301 -40.167 -23.5 -58.5s-35.167 -34.333 -58.5 -48s-48.333 -24.5 -75 -32.5s-50.667 -12 -72 -12
c-27.333 0 -48.833 6.83301 -64.5 20.5s-28 30 -37 49s-15.833 40.167 -20.5 63.5s-11.334 43.666 -20.001 60.999c-38 -35.333 -75.833 -68.333 -113.5 -99s-76.834 -57.334 -117.501 -80.001s-84.334 -40.5 -131.001 -53.5s-98 -19.5 -154 -19.5
c-78 0 -146 13.667 -204 41s-106 65 -144 113s-66.667 103.667 -86 167s-29 130.333 -29 201zM656.008 1699c31.333 78 65.835 136.502 103.502 175.502s87.167 58.5 148.5 58.5c31.333 0 58.5 -4.83301 81.5 -14.5s48.167 -23.834 75.5 -42.501v2
c26 -16.667 48 -29.834 66 -39.501s35 -14.5 51 -14.5c15.333 0 29.166 8.66699 41.499 26s28.5 49.666 48.5 96.999c5.33301 15.333 19 23 41 23c12 0 24.667 -2.83301 38 -8.5s25.666 -12.5 36.999 -20.5s20.833 -17.5 28.5 -28.5s11.5 -21.833 11.5 -32.5
c-31.333 -78 -65.833 -136.5 -103.5 -175.5s-87.167 -58.5 -148.5 -58.5c-30 0 -58.333 6.16699 -85 18.5s-50.334 25.5 -71.001 39.5c-26 18 -48.5 31.667 -67.5 41s-33.833 14 -44.5 14c-19.333 0 -35.5 -9.66699 -48.5 -29s-29.833 -52.666 -50.5 -99.999
c-5.33301 -13.333 -16.666 -20.333 -33.999 -21c-12 0 -25 2.83301 -39 8.5s-26.833 12.5 -38.5 20.5s-21.5 17.5 -29.5 28.5s-12 21.833 -12 32.5z" />
    <glyph glyph-name="Adieresis" unicode="&#xc4;" horiz-adv-x="1531" 
d="M104 446c0 100 14.8408 196.832 44.5078 290.499s70.334 181.334 122.001 263.001s113.334 156.334 185.001 224.001s149.5 126.167 233.5 175.5s172.833 87.166 266.5 113.499s188.834 39.5 285.501 39.5c19.333 0 44.666 -0.666992 75.999 -2s65.166 -4 101.499 -8
s73.166 -10.167 110.499 -18.5s71 -19.333 101 -33s54.667 -30.667 74 -51s29 -44.833 29 -73.5c0 -13.333 -1.83301 -28.333 -5.5 -45s-8.5 -31.5 -14.5 -44.5s-13.833 -23.833 -23.5 -32.5s-20.5 -13 -32.5 -13c-8 0 -14.333 0.666992 -19 2
c-32.667 12 -64.667 27.667 -96 47l-97 57.5c-33.333 19 -68.833 35.333 -106.5 49s-80.5 20.5 -128.5 20.5c-116 0 -220.333 -21.167 -313 -63.5s-171.5 -99.666 -236.5 -171.999s-114.833 -157.333 -149.5 -255s-52 -201.167 -52 -310.5
c0 -46.667 4.33301 -95.167 13 -145.5s24.334 -96.666 47.001 -138.999s52.5 -77.166 89.5 -104.499s82.5 -41 136.5 -41c38 0 74.167 9.16699 108.5 27.5s65.166 41.833 92.499 70.5s50.166 60.167 68.499 94.5s29.833 66.5 34.5 96.5l13 83
c6 38.667 13.833 79.834 23.5 123.501s19.5 85 29.5 124s19.333 66.167 28 81.5c6.66699 23.333 18.167 45.166 34.5 65.499s36.166 38 59.499 53s48.666 26.833 75.999 35.5s54.666 13 81.999 13c12 0 22.5 -3 31.5 -9s12.833 -13.667 11.5 -23l-35 -406v-65
c0 -19.333 0.666992 -39.5 2 -60.5s3.66602 -45.5 6.99902 -73.5s8.5 -60.833 15.5 -98.5s15.833 -81.834 26.5 -132.501v-43c0 -20.667 -7.83301 -40.167 -23.5 -58.5s-35.167 -34.333 -58.5 -48s-48.333 -24.5 -75 -32.5s-50.667 -12 -72 -12
c-27.333 0 -48.833 6.83301 -64.5 20.5s-28 30 -37 49s-15.833 40.167 -20.5 63.5s-11.334 43.666 -20.001 60.999c-38 -35.333 -75.833 -68.333 -113.5 -99s-76.834 -57.334 -117.501 -80.001s-84.334 -40.5 -131.001 -53.5s-98 -19.5 -154 -19.5
c-78 0 -146 13.667 -204 41s-106 65 -144 113s-66.667 103.667 -86 167s-29 130.333 -29 201zM791.008 1677c0 28.667 6.00293 52.667 18.0029 72s36 29 72 29c20.667 0 37.667 -7.16699 51 -21.5s20.666 -38.833 21.999 -73.5
c1.33301 -23.333 -3.33398 -44.5 -14.001 -63.5s-33.334 -28.5 -68.001 -28.5c-30 0 -51 7.83301 -63 23.5s-18 36.5 -18 62.5zM1028.01 1677c0 28.667 5.83301 52.667 17.5 72s35.167 29 70.5 29c22 0 39.5 -7.16699 52.5 -21.5s20.833 -38.833 23.5 -73.5
c0 -23.333 -5.5 -44.5 -16.5 -63.5s-33.5 -28.5 -67.5 -28.5c-30 0 -50.833 7.83301 -62.5 23.5s-17.5 36.5 -17.5 62.5z" />
    <glyph glyph-name="Aring" unicode="&#xc5;" horiz-adv-x="1531" 
d="M104 446c0 100 14.8408 196.832 44.5078 290.499s70.334 181.334 122.001 263.001s113.334 156.334 185.001 224.001s149.5 126.167 233.5 175.5s172.833 87.166 266.5 113.499s188.834 39.5 285.501 39.5c19.333 0 44.666 -0.666992 75.999 -2s65.166 -4 101.499 -8
s73.166 -10.167 110.499 -18.5s71 -19.333 101 -33s54.667 -30.667 74 -51s29 -44.833 29 -73.5c0 -13.333 -1.83301 -28.333 -5.5 -45s-8.5 -31.5 -14.5 -44.5s-13.833 -23.833 -23.5 -32.5s-20.5 -13 -32.5 -13c-8 0 -14.333 0.666992 -19 2
c-32.667 12 -64.667 27.667 -96 47l-97 57.5c-33.333 19 -68.833 35.333 -106.5 49s-80.5 20.5 -128.5 20.5c-116 0 -220.333 -21.167 -313 -63.5s-171.5 -99.666 -236.5 -171.999s-114.833 -157.333 -149.5 -255s-52 -201.167 -52 -310.5
c0 -46.667 4.33301 -95.167 13 -145.5s24.334 -96.666 47.001 -138.999s52.5 -77.166 89.5 -104.499s82.5 -41 136.5 -41c38 0 74.167 9.16699 108.5 27.5s65.166 41.833 92.499 70.5s50.166 60.167 68.499 94.5s29.833 66.5 34.5 96.5l13 83
c6 38.667 13.833 79.834 23.5 123.501s19.5 85 29.5 124s19.333 66.167 28 81.5c6.66699 23.333 18.167 45.166 34.5 65.499s36.166 38 59.499 53s48.666 26.833 75.999 35.5s54.666 13 81.999 13c12 0 22.5 -3 31.5 -9s12.833 -13.667 11.5 -23l-35 -406v-65
c0 -19.333 0.666992 -39.5 2 -60.5s3.66602 -45.5 6.99902 -73.5s8.5 -60.833 15.5 -98.5s15.833 -81.834 26.5 -132.501v-43c0 -20.667 -7.83301 -40.167 -23.5 -58.5s-35.167 -34.333 -58.5 -48s-48.333 -24.5 -75 -32.5s-50.667 -12 -72 -12
c-27.333 0 -48.833 6.83301 -64.5 20.5s-28 30 -37 49s-15.833 40.167 -20.5 63.5s-11.334 43.666 -20.001 60.999c-38 -35.333 -75.833 -68.333 -113.5 -99s-76.834 -57.334 -117.501 -80.001s-84.334 -40.5 -131.001 -53.5s-98 -19.5 -154 -19.5
c-78 0 -146 13.667 -204 41s-106 65 -144 113s-66.667 103.667 -86 167s-29 130.333 -29 201zM1016.01 1776c0 45.333 16 84 48 116s70.667 48 116 48c46.667 0 86 -16.167 118 -48.5s48 -70.833 48 -115.5c0 -45.333 -16.167 -84 -48.5 -116s-71.5 -48 -117.5 -48
c-45.333 0 -84 16 -116 48s-48 70.667 -48 116zM1086.01 1761c0 -26 9.16699 -48.167 27.5 -66.5s40.5 -27.5 66.5 -27.5s48.167 9.16699 66.5 27.5s27.5 40.5 27.5 66.5s-9.16699 47.833 -27.5 65.5s-40.5 26.5 -66.5 26.5s-48.167 -8.83301 -66.5 -26.5
s-27.5 -39.5 -27.5 -65.5z" />
    </font>
</defs>
</svg>
